<?xml version="1.0" encoding="UTF-8"?> <svg xmlns="http://www.w3.org/2000/svg" viewBox="1950 2450 100 100" width="100" height="100" data-guides="{&quot;vertical&quot;:[],&quot;horizontal&quot;:[]}"><path fill="#ffffff" stroke="black" fill-opacity="1" stroke-width="0.5" stroke-opacity="1" color="rgb(51, 51, 51)" fill-rule="evenodd" font-size-adjust="none" id="tSvg5b85e3d776" title="Path 5" d="M 2040.9680547649455 2476.0639692691084 C 2040.967264993927 2476.056578760955 2040.9664752229087 2476.0491882528017 2040.9656854518903 2476.0417977446477C 2040.9259398713139 2475.8575803817203 2040.8559129131347 2475.6809950081997 2040.7583705595646 2475.5190165363256C 2040.6834452845762 2475.3855481391975 2040.591040958755 2475.2623558665146 2040.4835302451672 2475.1526029215634C 2040.4823455886396 2475.1510470251096 2040.481160932112 2475.149491128657 2040.4799762755847 2475.1479352322035C 2034.176024006849 2468.936407616352 2027.8720717381136 2462.724880000501 2021.5681194693777 2456.51335238465C 2021.5669348128504 2456.5125744364227 2021.5657501563228 2456.511796488196 2021.5645654997952 2456.51101853997C 2021.4261739026363 2456.3790946303543 2021.2674364727584 2456.2696024422225 2021.094256858348 2456.1866141294477C 2020.9578959731411 2456.117634995026 2020.8129131613975 2456.0666305547666 2020.6630418823108 2456.034914225247C 2020.6535646300902 2456.032580380567 2020.645272034397 2456.0337473029076 2020.6357947821766 2456.032580380567C 2020.5288022042052 2456.012173467048 2020.420170353538 2456.0012385846176 2020.311198893621 2455.999906555047C 2004.1331344675482 2455.999906555047 1987.9550700414757 2455.999906555047 1971.777005615403 2455.999906555047C 1970.795604014452 2455.999906555047 1970.0000208240403 2456.7835799461222 1970.0000208240403 2457.750290065056C 1970.0000208240403 2486.916736005276 1970.0000208240403 2516.083181945497 1970.0000208240403 2545.249627885717C 1970.0000208240403 2546.21633800465 1970.795604014452 2547.000011395726 1971.777005615403 2547.000011395726C 1994.259022310211 2547.000011395726 2016.7410390050193 2547.000011395726 2039.2230556998275 2547.000011395726C 2040.2044573007781 2547.000011395726 2041.0000404911898 2546.21633800465 2041.0000404911898 2545.249627885717C 2041.0000404911898 2522.2943205872343 2041.0000404911898 2499.339013288752 2041.0000404911898 2476.3837059902694C 2041.0000773111874 2476.2763503818114 2040.989363532185 2476.1692529679294 2040.9680547649455 2476.0639692691084ZM 2022.089368341511 2461.979216625237 C 2026.371111917676 2466.198418832585 2030.6528554938411 2470.4176210399332 2034.9345990700062 2474.6368232472814C 2030.6528554938411 2474.6368232472814 2026.371111917676 2474.6368232472814 2022.089368341511 2474.6368232472814C 2022.089368341511 2470.4176210399332 2022.089368341511 2466.1984188325855 2022.089368341511 2461.979216625237ZM 1973.5551750632928 2543.5015782203886 C 1973.5551750632928 2515.5020546201736 1973.5551750632928 2487.5025310199594 1973.5551750632928 2459.503007419745C 1988.5485829617905 2459.503007419745 2003.5419908602885 2459.503007419745 2018.535398758786 2459.503007419745C 2018.535398758786 2465.1310738655925 2018.535398758786 2470.7591403114416 2018.535398758786 2476.3872067572897C 2018.535398758786 2477.353916876223 2019.3309819491978 2478.1375902672985 2020.3123835501485 2478.1375902672985C 2026.0240075550964 2478.1375902672985 2031.7356315600443 2478.1375902672985 2037.4472555649927 2478.1375902672985C 2037.4472555649927 2499.9259752257753 2037.4472555649927 2521.7143601842517 2037.4472555649927 2543.502745142728C 2016.1498953977593 2543.5023561686153 1994.8525352305262 2543.5019671945015 1973.5551750632928 2543.5015782203886Z" style=""></path><path fill="#ffffff" stroke="black" fill-opacity="1" stroke-width="0.5" stroke-opacity="1" color="rgb(51, 51, 51)" fill-rule="evenodd" font-size-adjust="none" id="tSvge21ae70c42" title="Path 6" d="M 2003.4452439105362 2480.37691423777 C 1996.0423252697208 2480.37691423777 1988.639406628905 2480.37691423777 1981.236487988089 2480.37691423777C 1979.8685644579036 2480.37691423777 1979.0136122515378 2481.835567162777 1979.6975740166304 2483.0024895027827C 1980.0150017765022 2483.54406004552 1980.6016324683449 2483.877681257787 1981.236487988089 2483.877681257787C 1988.639406628905 2483.877681257787 1996.0423252697208 2483.877681257787 2003.4452439105362 2483.877681257787C 2004.8131674407216 2483.877681257787 2005.6681196470877 2482.4190283327803 2004.984157881995 2481.2521059927744C 2004.666730122123 2480.7105354500372 2004.0800994302804 2480.37691423777 2003.4452439105362 2480.37691423777ZM 2003.4452439105362 2488.681900531592 C 1996.0423252697208 2488.681900531592 1988.639406628905 2488.681900531592 1981.236487988089 2488.681900531592C 1979.8685644579036 2488.681900531592 1979.0136122515378 2490.1405534565993 1979.6975740166304 2491.307475796605C 1980.0150017765022 2491.849046339342 1980.6016324683449 2492.1826675516095 1981.236487988089 2492.1826675516095C 1988.639406628905 2492.1826675516095 1996.0423252697208 2492.1826675516095 2003.4452439105362 2492.1826675516095C 2004.8131674407216 2492.1826675516095 2005.6681196470877 2490.724014626602 2004.984157881995 2489.5570922865963C 2004.666730122123 2489.0155217438596 2004.0800994302804 2488.681900531592 2003.4452439105362 2488.681900531592ZM 2003.4452439105362 2496.988053747754 C 1996.0423252697208 2496.988053747754 1988.639406628905 2496.988053747754 1981.236487988089 2496.988053747754C 1979.8685644579036 2496.988053747754 1979.0136122515378 2498.446706672761 1979.6975740166304 2499.613629012767C 1980.0150017765022 2500.155199555504 1980.6016324683449 2500.4888207677714 1981.236487988089 2500.4888207677714C 1988.639406628905 2500.4888207677714 1996.0423252697208 2500.4888207677714 2003.4452439105362 2500.4888207677714C 2004.8131674407216 2500.4888207677714 2005.6681196470877 2499.030167842764 2004.984157881995 2497.8632455027578C 2004.666730122123 2497.321674960021 2004.0800994302804 2496.988053747754 2003.4452439105362 2496.988053747754ZM 2020.843109674502 2515.9925509770896 C 2015.0987101722912 2515.9925509770896 2010.4264248275356 2520.592558841393 2010.4264248275356 2526.248631423401C 2010.4264248275356 2531.9058709277497 2015.099894828819 2536.507045714393 2020.843109674502 2536.507045714393C 2026.5863245201854 2536.507045714393 2031.2586098649413 2531.9058709277497 2031.2586098649413 2526.248631423401C 2031.2586098649413 2520.592558841393 2026.5863245201854 2515.9925509770896 2020.843109674502 2515.9925509770896ZM 2020.843109674502 2533.0062786943754 C 2017.0554863011557 2533.0024193960285 2013.9856175949258 2529.9795529091275 2013.9803944102603 2526.248631423401C 2013.986271367626 2522.518353889775 2017.0561384594705 2519.4965312401805 2020.843109674502 2519.493317997107C 2024.6296168585257 2519.497176158143 2027.6987646612126 2522.5188103612713 2027.7046402822161 2526.248631423401C 2027.700721350524 2529.9796308355085 2024.6308112017953 2533.003060503194 2020.843109674502 2533.0062786943754Z" style=""></path><defs></defs></svg> 