<?xml version="1.0" encoding="UTF-8"?> <svg xmlns="http://www.w3.org/2000/svg" viewBox="1950 2450 100 100" width="100" height="100" data-guides="{&quot;vertical&quot;:[],&quot;horizontal&quot;:[]}"><path fill="#ffffff" stroke="black" fill-opacity="1" stroke-width="0.5" stroke-opacity="1" color="rgb(51, 51, 51)" fill-rule="evenodd" font-size-adjust="none" id="tSvg4ea8fd37e9" title="Path 9" d="M 2000.9984742498732 2462.713823132762 C 1980.0457297286794 2462.713823132762 1963.0000989796943 2479.2165573412994 1963.0000989796943 2499.4995283604567C 1963.0000989796943 2519.7824993796144 1980.0468589523132 2536.2852335881516 2000.9984742498732 2536.2852335881516C 2021.9512187710673 2536.2852335881516 2038.997978743686 2519.7824993796144 2038.997978743686 2499.4995283604567C 2038.997978743686 2479.2165573412994 2021.9512187710673 2462.713823132762 2000.9984742498732 2462.713823132762ZM 2000.9984742498732 2532.342112079792 C 1982.2917555358827 2532.342112079792 1967.0720794024064 2517.609245828569 1967.0720794024064 2499.4995283604567C 1967.0720794024064 2481.389810892344 1982.2917555358827 2466.655851455231 2000.9984742498732 2466.655851455231C 2019.705192963864 2466.655851455231 2034.9237398737066 2481.389810892344 2034.9237398737066 2499.4995283604567C 2034.9237398737066 2517.609245828569 2019.705192963864 2532.342112079792 2000.9984742498732 2532.342112079792Z" style=""></path><path fill="#ffffff" stroke="black" fill-opacity="1" stroke-width="0.5" stroke-opacity="1" color="rgb(51, 51, 51)" fill-rule="evenodd" font-size-adjust="none" id="tSvg82c43b0290" title="Path 10" d="M 2010.6002628062574 2493.523081095084 C 2007.8682944287343 2496.167862160389 2005.1363260512114 2498.8126432256954 2002.4043576736883 2501.4574242910007C 2002.4043576736883 2492.0501953047883 2002.4043576736883 2482.6429663185754 2002.4043576736883 2473.235737332363C 2002.367438987319 2471.7180291561626 2000.6472357890275 2470.8081517432997 1999.3079919167626 2471.5979579891614C 1998.7156240822594 2471.9473012456265 1998.3475777210972 2472.564432035126 1998.331248027342 2473.235737332363C 1998.331248027342 2484.2291790462245 1998.331248027342 2495.222620760086 1998.331248027342 2506.216062473947C 1998.331248027342 2506.3461515949607 1998.3447987109455 2506.4762407159737 1998.3719000781514 2506.6041434652057C 1998.3831923144871 2506.6598959456396 1998.4046475635255 2506.7112756825104 1998.4215859180295 2506.765934977054C 1998.441911943434 2506.834805688178 1998.4588502979375 2506.9047695851937 1998.488210112411 2506.972547110428C 1998.5164407032507 2507.0381382638802 1998.5548343067926 2507.0971703019864 1998.5898402394337 2507.159481897766C 1998.6180708302734 2507.210861634637 1998.6417845265785 2507.263334557398 1998.6756612355862 2507.3125279224873C 1998.8247187552197 2507.52897872888 1999.017815996563 2507.7148203303263 1999.2414022760129 2507.8602140538123C 1999.2831835504555 2507.8875437010843 1999.3283524957992 2507.905034675338 1999.3712629938755 2507.9279915790457C 1999.443533306425 2507.967346271117 1999.5135451717072 2508.0088873349705 1999.5914616024247 2508.0405897258056C 1999.6524396786383 2508.0646398154045 1999.716805425753 2508.0788512319855 1999.7789127256 2508.0974353921306C 1999.8432784727147 2508.1160195522752 1999.904256548928 2508.140069641874 1999.9708807433096 2508.152094686674C 2000.2330972648012 2508.2045950150464 2000.5036376598628 2508.2045950150464 2000.7658541813546 2508.152094686674C 2000.8324783757362 2508.1389764559835 2000.8945856755834 2508.1160195522752 2000.9589514226977 2508.0963422062396C 2001.021058722545 2508.077758046095 2001.084295246026 2508.0646398154045 2001.1452733222395 2508.0405897258056C 2001.2243189765904 2508.0088873349705 2001.29658928914 2507.966253085226 2001.3699888253232 2507.925805207264C 2001.4117700997658 2507.902848303556 2001.454680597842 2507.886450515193 2001.4953326486514 2507.8602140538123C 2001.6091790959724 2507.7877610862197 2001.7147850515323 2507.7038472167656 2001.8103860424217 2507.609874484803C 2005.7005614601267 2503.843849090765 2009.5907368778314 2500.0778236967258 2013.4809122955364 2496.311798302687C 2014.5896747802433 2495.238420529001 2014.0823806907447 2493.405593938488 2012.5677829340582 2493.0127104401317C 2011.8648556947426 2492.8303725806877 2011.1148412662144 2493.024924773297 2010.6002628062574 2493.523081095084Z" style=""></path><path fill="#ffffff" stroke="black" fill-opacity="1" stroke-width="0.5" stroke-opacity="1" color="rgb(51, 51, 51)" fill-rule="evenodd" font-size-adjust="none" id="tSvgd8e1e17d8" title="Path 11" d="M 2000.9996034735068 2454.0000383966567 C 1975.0839210827012 2454.0000383966567 1954.0001866200114 2474.410912165046 1954.0001866200114 2499.500621546348C 1954.0001866200114 2524.59033092765 1975.0839210827012 2545.0001115101472 2000.9996034735068 2545.0001115101472C 2026.9152858643124 2545.0001115101472 2048.000149550636 2524.589237741759 2048.000149550636 2499.500621546348C 2048.000149550636 2474.4120053509364 2026.9152858643124 2454.0000383966567 2000.9996034735068 2454.0000383966567ZM 2000.9996034735068 2541.0558968158975 C 1977.3299468899042 2541.0558968158975 1958.0721670427235 2522.413797818933 1958.0721670427235 2499.4995283604567C 1958.0721670427235 2476.5852589019814 1977.3288176662709 2457.9420667191257 2000.9996034735068 2457.9420667191257C 2024.670389280743 2457.9420667191257 2043.9259106806564 2476.5852589019814 2043.9259106806564 2499.4995283604567C 2043.9259106806564 2522.413797818933 2024.669260057109 2541.0558968158975 2000.9996034735068 2541.0558968158975Z" style=""></path><defs></defs></svg> 