<?xml version="1.0" encoding="UTF-8"?> <svg xmlns="http://www.w3.org/2000/svg" viewBox="1950 2450 100 100" width="100" height="100" data-guides="{&quot;vertical&quot;:[],&quot;horizontal&quot;:[]}"><path fill="#ffffff" stroke="black" fill-opacity="1" stroke-width="0.5" stroke-opacity="1" color="rgb(51, 51, 51)" fill-rule="evenodd" font-size-adjust="none" id="tSvgc2af99e666" title="Path 3" d="M 2044.5824949154235 2521.7662294080687 C 2042.052979866642 2518.704451815905 2038.3827837538267 2516.7655553587842 2034.3904714382415 2516.38197261977C 2029.1801377943664 2515.851387636113 2024.065113947694 2518.0288078069984 2020.8924253531793 2522.1279707433273C 2019.102072403539 2520.5035338866765 2017.3117194538993 2518.879097030026 2015.5213665042593 2517.254660173376C 2014.6236087278298 2516.4403253982578 2013.1661512176063 2516.887154026641 2012.8979429854155 2518.058951704065C 2012.7734671081741 2518.6027849140123 2012.953454320556 2519.17061699031 2013.3701051770454 2519.5485510738135C 2015.315808809371 2521.313963287627 2017.2615124416964 2523.0793755014397 2019.207216074022 2524.8447877152535C 2018.4716808426647 2526.3722862863906 2018.0065932277857 2528.012030127365 2017.8319805223782 2529.6934097074286C 2017.4216881330997 2533.6173431686957 2018.6242911288348 2537.539663000304 2021.171838290656 2540.5864395893373C 2023.7029421081986 2543.648562290995 2027.3746060837655 2545.587403655301 2031.3682275949861 2545.9706963776357C 2031.882303741672 2546.0211469496157 2032.3931055179971 2546.045835527393 2032.9039072943215 2546.045835527393C 2036.3791057041897 2546.045835527393 2039.7200549292545 2544.877958456885 2042.4454225264406 2542.6849687004064C 2045.5587468784024 2540.1967331844394 2047.530524488128 2536.5869934123098 2047.9212612269143 2532.6603327064026C 2048.331785383749 2528.7362238067553 2047.129605358501 2524.813615242348 2044.5824949154235 2521.7662294080687ZM 2044.7647681988558 2532.347968526699 C 2044.4561728850917 2535.4511021591165 2042.8977901647152 2538.3037554048656 2040.4371420383259 2540.2697817439325C 2037.9886532023272 2542.2504136120033 2034.8362531564637 2543.18541096104 2031.6825671496476 2542.8663760762483C 2028.5269859943446 2542.5636638480014 2025.6258878355072 2541.031368265373 2023.6265246046614 2538.611353367154C 2021.6129638112325 2536.2040667388296 2020.6629572994234 2533.1042798620165 2020.9884735504368 2530.003627054282C 2021.2951813343823 2526.9017679363883 2022.8516830088536 2524.049733622939 2025.3106424270316 2522.0839606698983C 2027.7601443255733 2520.099540639048 2030.9162060538974 2519.1635002150515 2034.0728575132189 2519.485219504732C 2037.227652087774 2519.788332993708 2040.127708187351 2521.3210875747914 2042.1256256878441 2523.7413156302514C 2044.1391852093848 2526.148222919117 2045.0895584408734 2529.247537376635 2044.7647681988558 2532.347968526699ZM 2007.1073261331308 2491.3799572463536 C 2007.1073261160398 2492.5805949019036 2008.4288983649726 2493.3309934549993 2009.4861561812104 2492.7306746417817C 2009.9768312550823 2492.4520657031685 2010.2790995641399 2491.9371751370913 2010.279099556208 2491.3799572463536C 2010.279099556208 2486.5850060754337 2005.9067236674102 2482.618732384692 2000.2529775106525 2481.983269861033C 2000.2529775106525 2479.4553741799236 2000.2529775106525 2476.927478498815 2000.2529775106525 2474.399582817706C 2000.252977527744 2473.1989451621553 1998.9314052788106 2472.44854660906 1997.8741474625726 2473.0488654222772C 1997.383472388701 2473.32747436089 1997.0812040796434 2473.842364926967 1997.0812040875758 2474.399582817706C 1997.0812040875758 2476.9278363042895 1997.0812040875758 2479.4560897908746 1997.0812040875758 2481.984343277458C 1991.4274579308178 2482.6208792175426 1987.0539905852336 2486.5860794918594 1987.0539905852336 2491.3810306627784C 1987.0539905852336 2496.1738350008472 1991.4274579308178 2500.13796185874 1997.0812040875758 2500.773424382399C 1997.0812040875758 2505.020575371042 1997.0812040875758 2509.267726359686 1997.0812040875758 2513.5148773483293C 1993.1836119011316 2512.9534805580024 1990.226855465097 2510.3601064749623 1990.226855465097 2507.2514925078735C 1990.2268554821885 2506.050854852324 1988.9052832332554 2505.300456299228 1987.8480254170174 2505.9007751124454C 1987.3573503431455 2506.1793840510586 1987.0550820340884 2506.6942746171353 1987.0550820420203 2507.2514925078735C 1987.0550820420203 2512.049663928068 1991.428549387605 2516.018084451661 1997.0822955443625 2516.6524735588946C 1997.0822955443625 2519.1785802126287 1997.0822955443625 2521.704686866363 1997.0822955443625 2524.2307935200965C 1997.0822955272713 2525.4314311756466 1998.4038677762044 2526.181829728743 1999.4611255924422 2525.581510915524C 1999.9518006663143 2525.302901976912 2000.2540689753719 2524.7880114108343 2000.2540689674395 2524.2307935200965C 2000.2540689674395 2521.704329060888 2000.2540689674395 2519.1778646016787 2000.2540689674395 2516.65140014247C 2005.9067236674102 2516.0137907859607 2010.279099556208 2512.0475170952186 2010.279099556208 2507.2514925078735C 2010.279099556208 2502.45761475338 2005.9078151241972 2498.4913410626377 2000.2540689674395 2497.853731706128C 2000.2540689674395 2493.6094431612855 2000.2540689674395 2489.3651546164415 2000.2540689674395 2485.120866071599C 2004.150569697097 2485.6833362783514 2007.1073261331308 2488.2734901121157 2007.1073261331308 2491.3799572463536ZM 1990.226855465097 2491.3799572463536 C 1990.226855465097 2488.274563528541 1993.1836119011316 2485.6833362783514 1997.0812040875758 2485.120866071599C 1997.0812040875758 2489.2925201050098 1997.0812040875758 2493.4641741384216 1997.0812040875758 2497.635828171833C 1993.1836119011316 2497.0733579650814 1990.226855465097 2494.4842775477414 1990.226855465097 2491.3799572463536ZM 2007.1062346763438 2507.2504190914487 C 2007.1062346763438 2510.356886225687 2004.150569697097 2512.948113475876 2000.2540689674395 2513.512730515479C 2000.2540689674395 2509.338214038268 2000.2540689674395 2505.163697561056 2000.2540689674395 2500.989181083844C 2004.150569697097 2501.553798123446 2007.1062346763438 2504.1450253736357 2007.1062346763438 2507.2504190914487ZM 1964.6136390441254 2481.3177516774713 C 1969.1758287737866 2481.7824247382846 1973.703636156237 2480.169992985504 1976.905625379532 2476.9403594959163C 1978.9157249622917 2478.763736196685 1980.9258245450515 2480.587112897454 1982.935924127811 2482.4104895982227C 1983.2404405713896 2482.6874310358985 1983.626816273994 2482.823754921886 1984.0110090630249 2482.823754921886C 1985.2318252130065 2482.8236030519015 1985.9946693182308 2481.5237797553536 1985.3841275095303 2480.484072988218C 1985.304138436751 2480.347857615117 1985.2036571351753 2480.224326417149 1985.0860939982383 2480.1176721142097C 1983.0181472057668 2478.2413402031366 1980.9502004132949 2476.3650082920626 1978.8822536208233 2474.488676380989C 1980.1496989082957 2472.5337890096544 1980.9322122210572 2470.3132969416574 1981.1666726760538 2468.006314589813C 1981.5778334987265 2464.0828055275315 1980.375547771976 2460.1606251301246 1977.8279063645628 2457.1143581243286C 1975.297882875076 2454.0500511052837 1971.6252073008113 2452.1101099218113 1967.6304256034455 2451.72795450318C 1963.6390904690934 2451.3216677166924 1959.6486373804628 2452.50508636908 1956.5510477584169 2455.01368218041C 1950.0983552335617 2460.2015037629153 1949.142239088133 2469.58638356756 1954.4172497397956 2475.9345683055976C 1956.948468825543 2478.9963839101824 1960.6201493784693 2480.934847507711 1964.6136390441254 2481.3177516774713ZM 1958.558236789745 2457.4288691368833 C 1961.0067602111 2455.4475896312824 1964.159921016165 2454.512869815226 1967.3139031352105 2454.8333482209923C 1970.4706141077495 2455.13519267342 1973.3728385998177 2456.6680545257245 1975.3721285937704 2459.089444346512C 1977.3855170056827 2461.49640148906 1978.3355201012382 2464.5957906672265 1978.010179647995 2467.6960972429597C 1977.7018993670267 2470.798829483457 1976.1443771929814 2473.651346323872 1973.6847364010393 2475.6179104601933C 1971.2353360802754 2477.5975749523923 1968.0828754946263 2478.5320871979875 1964.9290700555741 2478.2134313760835C 1961.7736509061335 2477.910838550999 1958.8724212027469 2476.3794541230363 1956.8719360538007 2473.96055549984C 1952.7047540409626 2468.943407128925 1953.4600421375799 2461.5282464643383 1958.558236789745 2457.4288691368833ZM 2019.8042429365212 2476.8577064311835 C 2022.194149830682 2479.0143982337368 2025.2307503562479 2480.350730776717 2028.458403800794 2480.6661879074363C 2032.4487458856643 2481.072846257023 2036.438401970432 2479.8902040317776 2039.5355987322482 2477.382607063057C 2042.649076281337 2474.893431753434 2044.6211293457422 2471.283134165969 2045.012528889509 2467.355824236203C 2045.422948484792 2463.432384708168 2044.2207471854288 2459.5104797373783 2041.6737625780183 2456.463867770719C 2039.1447798204742 2453.401845798457 2035.4749565090474 2451.4625521005014 2031.4828305576234 2451.078537565995C 2027.4888323107532 2450.6724505688876 2023.4957529320116 2451.8557155413027 2020.3947210582983 2454.3642652432245C 2017.2826777421767 2456.8520563138477 2015.3123740051956 2460.4612029312507 2014.9232481849729 2464.386754404378C 2014.5510580655473 2467.986471346808 2015.5373396459395 2471.5951470246273 2017.694456967214 2474.5262459558676C 2015.7040036066205 2476.3317323828846 2013.7135502460271 2478.1372188099017 2011.7230968854337 2479.942705236919C 2010.8149512442938 2480.7451018598986 2011.1305784913045 2482.2134469379293 2012.2912259312782 2482.5857263762905C 2012.8439774313827 2482.763022263849 2013.4510621990169 2482.628636791402 2013.8732667558609 2482.235522720932C 2015.8502588160811 2480.4429172910154 2017.8272508763012 2478.6503118611 2019.8042429365212 2476.8577064311835ZM 2018.0797412130316 2464.6980451676563 C 2018.3871258710453 2461.596440357044 2019.9439852698156 2458.7448573212923 2022.4030015464134 2456.779452199698C 2024.853006507221 2454.7952463333563 2028.0094550612262 2453.859594398266 2031.166308089388 2454.1817844509574C 2034.3202982530192 2454.4847126462955 2037.2196155776353 2456.0171057093644 2039.2168933504388 2458.436807160052C 2041.23007774835 2460.844331553151 2042.1803839898978 2463.943814056219 2041.8560358614504 2467.0445334729247C 2041.5473271232986 2470.1481808548133 2039.988533871697 2473.0012526604028 2037.5273182441338 2474.967420106583C 2035.0810011890155 2476.9511124804167 2031.927304035507 2477.885837700066 2028.7738348122425 2477.561867606048C 2025.6184342339664 2477.2585711593706 2022.7175509840106 2475.726389099319 2020.7177922672563 2473.3068448969543C 2018.7057006544153 2470.898366840582 2017.7559016431337 2467.798870546247 2018.0797412130316 2464.6980451676563ZM 1983.4085249165905 2516.750154453579 C 1981.3969700581144 2518.575677987198 1979.3854151996388 2520.4012015208177 1977.373860341163 2522.2267250544364C 1974.8703711250298 2519.4494270147293 1971.3935649489147 2517.703340780897 1967.6380658009548 2517.3373132381084C 1963.6443725048885 2516.9309122844547 1959.6515103587428 2518.1142293832263 1956.5510477584169 2520.6230409153372C 1953.4379825831652 2523.1104635782126 1951.467467548272 2526.720383826247 1951.0795748850917 2530.6466034929163C 1950.668433248461 2534.5707703052576 1951.8706835755047 2538.4936082836 1954.4183411965826 2541.5407067912506C 1956.9494450141246 2544.6028294929088 1960.621108989692 2546.541670857214 1964.6147305009124 2546.9249635795495C 1965.1288066475981 2546.975414151529 1965.6406998807104 2547.0001027293065 1966.150410200248 2547.0001027293065C 1969.6267000669036 2547.0001027293065 1972.9687407487547 2545.831152242373 1975.6941083459408 2543.638162485895C 1978.8074144799439 2541.1506550067475 1980.7786052839776 2537.540936916665 1981.1677641328408 2533.614599908316C 1981.4850135277547 2530.5414049596625 1980.8126837369898 2527.447840347619 1979.2457087309003 2524.7707219819217C 1981.3504012352016 2522.86039855072 1983.4550937395034 2520.9500751195183 1985.5597862438044 2519.039751688316C 1986.4848074476881 2518.2562219687593 1986.2004947055366 2516.781702324699 1985.0480233067372 2516.3856163300175C 1984.475602264265 2516.188884369277 1983.8392215003757 2516.3303819459825 1983.4085249165905 2516.750154453579ZM 1978.011271104782 2533.3043825614627 C 1977.7032590921303 2536.406595297687 1976.1456281393603 2539.2585382696525 1973.6858278578266 2541.224048945846C 1971.2368794317263 2543.2046960715784 1968.0842907525982 2544.140019294007 1964.9301615123609 2543.821716694587C 1961.774544209355 2543.5191213965322 1958.8734030550943 2541.9868030895113 1956.874118967375 2539.566693985493C 1954.861308391991 2537.1581734013616 1953.9114357693454 2534.0580503793617 1954.23606791315 2530.9568208397695C 1954.5434525711642 2527.855216029157 1956.1003119699342 2525.003632993406 1958.5593282465318 2523.038227871811C 1961.0088898611273 2521.054853125878 1964.1644650490714 2520.1196136295835 1967.3204518759323 2520.441633539496C 1970.4753912122312 2520.744278907074 1973.3756196123072 2522.2771245690888 1975.3732200505576 2524.6977296650152C 1977.3860607934835 2527.104974476941 1978.335993470363 2530.2041339206385 1978.011271104782 2533.3043825614627Z" style=""></path><defs></defs></svg> 