<?xml version="1.0" encoding="UTF-8"?> <svg xmlns="http://www.w3.org/2000/svg" viewBox="1945 2445 110 110" width="110" height="110" data-guides="{&quot;vertical&quot;:[],&quot;horizontal&quot;:[]}"><path fill="#ffffff" stroke="black" fill-opacity="1" stroke-width="0.5" stroke-opacity="1" color="rgb(51, 51, 51)" fill-rule="evenodd" font-size-adjust="none" id="tSvg18606016d93" title="Path 7" d="M 2017.5798725924744 2483.607567945469 C 2005.4623820006777 2493.253110918054 1993.344891408881 2502.898653890639 1981.227400817084 2512.5441968632254C 1980.2078283247336 2513.410795318113 1980.5087050105742 2515.0561517192828 1981.768978853213 2515.505838383958C 1982.3160958086282 2515.701058811887 1982.9245685674152 2515.610069547013 1983.3906456094267 2515.2633390050946C 1995.5081362012234 2505.617796032509 2007.6256267930205 2495.972253059924 2019.7431173848172 2486.3267100873386C 2020.7626898771675 2485.4601116324507 2020.4618131913264 2483.8147552312807 2019.2015393486881 2483.3650685666053C 2018.6544223932729 2483.169848138676 2018.0459496344859 2483.26083740355 2017.5798725924744 2483.607567945469ZM 1985.6534830421024 2494.5767819010844 C 1987.5829422043125 2495.995703308591 1990.0000562581663 2496.5833073711565 1992.3655637789427 2496.2084987996773C 1997.2826608818802 2495.4430162801814 2000.6618623294476 2490.8200114120627 1999.8987047715495 2485.902857436604C 1999.1332311057363 2480.984545393793 1994.507963600053 2477.605304861436 1989.5931826050303 2478.3707873809317C 1984.6749274481353 2479.1351118330754 1981.295726000568 2483.7581167011945 1982.061199666381 2488.675270676653C 1982.4214434366077 2491.043614805803 1983.715193088324 2493.1690256592533 1985.6534830421024 2494.5767819010844ZM 1990.1258874254142 2481.803299011469 C 1993.1543102946819 2481.3386751975568 1995.9883773598744 2483.410146431166 1996.4650747879862 2486.436726485753C 1996.9323680648047 2489.465836866523 1994.8596796805343 2492.301634775266 1991.831700904601 2492.77598716914C 1990.3766434728 2493.00708005471 1988.889663847403 2492.645445764269 1987.7032385466239 2491.771942775187C 1986.511117950588 2490.906209428738 1985.71535530592 2489.599108291242 1985.4936715959868 2488.142559694856C 1985.0263380391173 2485.113836722407 1987.0983785606309 2482.2782164708183 1990.1258874254142 2481.803299011469ZM 2010.0768410027592 2502.485223846071 C 2005.098367040082 2502.485223846071 2001.0474942972473 2506.5349853750813 2001.0474942972473 2511.512358852831C 2001.0474942972473 2516.489732330579 2005.098367040082 2520.5383357922387 2010.0768410027592 2520.5383357922387C 2015.0553149654363 2520.5383357922387 2019.1050296543135 2516.488574263228 2019.1050296543135 2511.512358852831C 2019.1061877082707 2506.5349853750813 2015.0553149654363 2502.485223846071 2010.0768410027592 2502.485223846071ZM 2010.0768410027592 2517.06413373704 C 2007.0112124960092 2517.061579834046 2004.5261248854272 2514.578020624259 2004.521656169318 2511.512358852831C 2004.521656169318 2508.4504287748478 2007.01378828555 2505.95942590127 2010.0768410027592 2505.95942590127C 2013.139893719968 2505.95942590127 2015.6308677822428 2508.4504287748478 2015.6308677822428 2511.512358852831C 2015.6270370429306 2514.577834331573 2013.1422823556034 2517.0615799899592 2010.0768410027592 2517.06413373704Z" style=""></path><path fill="#ffffff" stroke="black" fill-opacity="1" stroke-width="0.5" stroke-opacity="1" color="rgb(51, 51, 51)" fill-rule="evenodd" font-size-adjust="none" id="tSvgcbd88a46c9" title="Path 8" d="M 2044.8902590688224 2489.8634477795313 C 2041.4473646536003 2488.1483500316144 2037.8886648426426 2486.3741908487596 2036.9182156263776 2484.081217492328C 2035.9280794928377 2481.740763374475 2037.2899509466893 2478.0164187713012 2038.606658296204 2474.4148293074113C 2040.394693606363 2469.52315281369 2042.2452638302195 2464.4658726886714 2038.8880654078416 2461.110951570701C 2035.58529552146 2457.8069854162068 2030.6867272818401 2458.9430494882563 2025.9479704883356 2460.043213472403C 2022.55487239328 2460.830699271582 2019.0459689024883 2461.6448206198497 2016.660377750333 2460.63614395649C 2014.3373215118754 2459.6517867075167 2012.4381130218096 2456.655866468583 2010.6014394454419 2453.758381954547C 2007.9992922032607 2449.653033192653 2005.0508868278303 2444.999918573389 2000.001771573754 2444.999918573389C 1994.943391888019 2444.999918573389 1992.0517311564988 2449.756101186957 1989.5005382884417 2453.9529372696384C 1987.690499953093 2456.9303284309444 1985.8179267040466 2460.0096295192025 1983.4960285195461 2460.9916706334725C 1981.1139115292629 2461.99918922948 1977.564476149964 2461.105161233942 1974.130846166401 2460.242401056901C 1969.3561897002182 2459.041485213153 1964.4194056800059 2457.8011950794476 1961.1120035777947 2461.110951570701C 1957.7721759647775 2464.4485016783956 1959.4166125842241 2469.5347334872076 1961.0077787216323 2474.45420359737C 1962.1716229487763 2478.0511607918534 1963.3736829565125 2481.77087312562 1962.3765984992283 2484.1286982537486C 1961.406149282963 2486.427461946939 1958.0037867562485 2488.1854081868696 1954.7137554633975 2489.886609126566C 1950.1602873030704 2492.240960052639 1944.999998869088 2494.909147231033 1944.999998869088 2500.0000113092506C 1944.999998869088 2505.074662444546 1949.9599439684475 2507.849391819299 1954.3362298732993 2510.297546200863C 1957.4710819358645 2512.050860171387 1960.7124749625061 2513.8643936442004 1961.6898725025158 2516.173579943557C 1962.6915891756291 2518.541827677851 1961.642392290264 2522.181633364348 1960.6290950775767 2525.7010000462647C 1959.231323951047 2530.550986115323 1957.7860726122656 2535.567733883031 1961.1120035777947 2538.8913871825057C 1964.539843291571 2542.318108476284 1970.0348093192295 2539.465788588965 1975.3491189295403 2536.7037979550823C 1979.2112288773255 2534.69802530188 1983.589830890092 2532.421264888372 1985.8665649702557 2533.385934992366C 1988.0888705144237 2534.3262856819733 1989.5781279035846 2538.918022731595 1990.8925191451847 2542.9689423279588C 1992.8102564985677 2548.883192293259 1994.7951609814775 2555.0001040451143 2000.0029296277112 2555.0001040451143C 2005.2164885437319 2555.0001040451143 2007.1353839510728 2548.8774019565 2008.9905863907582 2542.9562035870886C 2010.2644457438507 2538.8925452498574 2011.7085390286752 2534.285753324663 2013.9285284649284 2533.347718769759C 2016.205262545092 2532.385364800469 2020.6336608780248 2534.6679155507345 2024.5397768761898 2536.682952742751C 2029.9108311304108 2539.4542079154485 2035.4636998559372 2542.318108476284 2038.889223461799 2538.8925452498574C 2042.2487379920913 2535.5341499298315 2040.4085902538511 2530.5475119132675 2038.629819375351 2525.7241613932997C 2037.3223764574952 2522.1781591622926 2035.969769435302 2518.511717926706 2036.9575894609277 2516.173579943557C 2037.9291967311501 2513.8771323850697 2041.4763160025345 2512.052018238738 2044.9064718242253 2510.2871235946964C 2049.8687330314997 2507.7335850841255 2055.000070116548 2505.0943495895262 2055.000070116548 2500.0000113092506C 2054.996595954676 2494.8998826922193 2049.858310545884 2492.339395777537 2044.8902590688224 2489.8634477795313ZM 2043.3141476328597 2507.198557967625 C 2039.333916181424 2509.246021045489 2035.2181924169777 2511.3641262318088 2033.7555702688358 2514.822115344084C 2032.2327293149115 2518.426020942677 2033.8273696141919 2522.7479282993454 2035.368739431434 2526.927393371751C 2036.8336776874903 2530.8995643881954 2038.2175521665322 2534.6505445404587 2036.4306749103303 2536.4362843968315C 2034.8001349383717 2538.0680012954235 2030.193396296006 2535.6928051570185 2026.130943013598 2533.596703250382C 2021.3227029826521 2531.116122982969 2016.351177343719 2528.5521618662324 2012.5736053348207 2530.149136744272C 2008.872464887108 2531.713685736464 2007.2453990770218 2536.901827472228 2005.6739198568882 2541.919733307288C 2004.1939268993863 2546.6434900350073 2002.6629795677602 2551.5282181246175 2000.001771573754 2551.5282181246175C 1997.3185605545582 2551.5282181246175 1995.7308685790222 2546.633067428841 1994.1952890315665 2541.8988880949564C 1992.5763295991817 2536.9076178089863 1990.902941630801 2531.7461116223126 1987.2191719924485 2530.1885110342314C 1986.4015858985547 2529.842248896063 1985.5307293226224 2529.690542072987 1984.6193408581823 2529.690542072987C 1981.314254863886 2529.690542072987 1977.4810962650345 2531.682417917967 1973.7463722525583 2533.62218073212C 1969.7395055601035 2535.705543897888 1965.1953018314348 2538.06568516072 1963.5670779673912 2536.4362843968315C 1961.6910305564732 2534.561373354375 1962.7958140317917 2530.725854285435 1963.966606582679 2526.6645120829075C 1965.1478216191833 2522.5637955904203 1966.3695685441949 2518.324111015725 1964.8884175327353 2514.8209572767328C 1963.4466403558258 2511.4150811952854 1959.6771747246294 2509.3062405477785 1956.0316208668698 2507.266883941377C 1952.14519178598 2505.093191522174 1948.4741607411586 2503.038780040199 1948.4741607411586 2500.002327443955C 1948.4741607411586 2497.0260943500007 1952.2795260450334 2495.057379852055 1956.3095538166351 2492.9751747536384C 1960.1473446313162 2490.990247312768 1964.1171535971355 2488.938151965496 1965.5763015834057 2485.4836370552766C 1967.0771395121399 2481.935318689566 1965.6724200618658 2477.5902499858635 1964.3128647159292 2473.3876235664243C 1962.985734880798 2469.2834328718814 1961.7315624449802 2465.4050653109275 1963.5682360213486 2463.5706866257824C 1965.4836572668166 2461.652927091312 1969.2728098152884 2462.6060165217887 1973.284308723573 2463.6146931851476C 1977.27264655271 2464.618737579101 1981.3999508567304 2465.6563659262533 1984.8497935956964 2464.1948849283667C 1988.2035178562019 2462.777410489845 1990.3725529183314 2459.210563046506 1992.4697886351046 2455.760680405694C 1994.7465227152684 2452.0154905901886 1996.89702891408 2448.4775948306437 2000.001771573754 2448.4775948306437C 2003.1389397442342 2448.4775948306437 2005.3380842092545 2451.948322683788 2007.6669307174998 2455.621712323486C 2009.7896436213346 2458.969685037346 2011.9829978165687 2462.4323064190285 2015.3077707281404 2463.8393582513845C 2018.7344523879594 2465.2881005084027 2022.8015378861971 2464.3442756167397 2026.7342891253809 2463.430560476222C 2030.7237850084755 2462.505264662187 2034.492092585715 2461.629765744277 2036.432991018245 2463.5706866257824C 2038.2221843823615 2465.3587426168583 2036.8244132558316 2469.179206810226 2035.3455783522868 2473.2243360698294C 2033.7984182652579 2477.458230307766 2032.1968296422335 2481.835724897317 2033.720828650115 2485.437314361207C 2035.1915571759582 2488.9126744837586 2039.3350742353814 2490.97866663925 2043.343098981794 2492.9751747536384C 2047.5503090088712 2495.0724347276273 2051.5247501905205 2497.0527298990914 2051.5247501905205 2500.002327443955C 2051.5224340826057 2502.9739282685027 2047.5352543074255 2505.0260236157733 2043.3141476328597 2507.198557967625Z" style=""></path><defs></defs></svg> 