<?xml version="1.0" encoding="UTF-8"?> <svg xmlns="http://www.w3.org/2000/svg" viewBox="1950 2450 100 100" width="100" height="100" data-guides="{&quot;vertical&quot;:[],&quot;horizontal&quot;:[]}"><path fill="#ffffff" stroke="black" fill-opacity="1" stroke-width="0.5" stroke-opacity="1" color="rgb(51, 51, 51)" fill-rule="evenodd" font-size-adjust="none" id="tSvgf787e7cde4" title="Path 1" d="M 2037.990892307692 2467.2596605676417 C 2037.9799867553331 2467.085114942537 2037.9466778099268 2466.9128563501954 2037.8918461538462 2466.7474392738795C 2037.8552072672976 2466.6405129546342 2037.8074925006392 2466.5380204537773 2037.7495384615384 2466.441758824377C 2037.6661224276154 2466.295593612664 2037.5617027221224 2466.1634636905646 2037.439876923077 2466.049921336983C 2037.3195904123395 2465.932229481818 2037.1815284295278 2465.835747867916 2037.0311692307691 2465.764304855208C 2036.930912413537 2465.7151016885896 2036.8264903389982 2465.675593120757 2036.7192307692308 2465.646281515632C 2036.6629568699414 2465.631029999641 2036.6059570638536 2465.618817815446 2036.5484615384614 2465.609694280363C 2036.5188615384618 2465.60497334678 2036.4915384615383 2465.594351246218 2036.4619384615382 2465.591990779427C 2022.8960307692307 2464.1851525716756 2012.2867076923078 2461.3254470537386 2001.327876923077 2451.4350911972338C 2000.6167107726624 2450.7931805343333 1999.5382779492033 2450.870320568816 1998.9188923076924 2451.6074052730155C 1998.879046153846 2451.6546146088463 1998.8494461538464 2451.7077251116552 1998.8152923076923 2451.7584751476734C 1987.7949846153847 2461.6157844690965 1978.5916615384615 2464.2394433078807 1965.5380615384615 2465.5908105460308C 1964.6647782349155 2465.6811864862348 1963.9997550420217 2466.4430738688475 1964 2467.3528990059067C 1964 2481.173825481439 1964 2494.9947519569705 1964 2508.815678432503C 1964 2508.972649474139 1964.0204923076924 2509.1284402823803 1964.0603384615383 2509.2795101570377C 1970.9856 2535.756866157614 1998.9154769230772 2548.33579368967 2000.1006153846154 2548.8586370839935C 2000.5251900897663 2549.046017585803 2001.0048408615405 2549.047294768711 2001.4303384615384 2548.8621777841804C 2002.630276923077 2548.3405146232535 2030.8800615384616 2535.7627673245934 2037.8053230769228 2509.2806903904334C 2037.8292307692307 2509.1874519521684 2037.8474461538462 2509.093033280507 2037.8565538461537 2508.9962541420546C 2037.9013333333335 2508.5395038178935 2037.9461128205128 2508.082753493733 2037.990892307692 2507.6260031695724C 2037.9965846153848 2507.5669914997843 2038 2507.5067995965996 2038 2507.446607693416C 2038 2494.082431542045 2038 2480.7182553906737 2038 2467.354079239303C 2038 2467.319852470826 2037.9931692307691 2467.290346635931 2037.990892307692 2467.2596605676417ZM 2034.4730461538463 2508.488753781876 C 2028.4961230769231 2531.030031407578 2005.0415384615383 2543.228923786198 2000.7723076923075 2545.2837101282234C 1996.5406461538462 2543.223022619219 1973.4264615384616 2531.051275608702 1967.4142461538463 2508.5749108197665C 1967.4142461538463 2495.3649518321085 1967.4142461538463 2482.154992844451 1967.4142461538463 2468.945033856793C 1979.7881846153846 2467.5252130816884 1989.3854153846155 2464.58525169284 2000.262276923077 2455.11977985881C 2011.0412307692307 2464.3881527157473 2021.8839384615385 2467.481544446045 2034.583476923077 2468.9391326898144C 2034.583476923077 2481.7442716227247 2034.583476923077 2494.549410555636 2034.583476923077 2507.354549488546C 2034.5466666666666 2507.7326175863227 2034.5098564102564 2508.1106856840993 2034.4730461538463 2508.488753781876Z" style=""></path><path fill="#ffffff" stroke="black" fill-opacity="1" stroke-width="0.5" stroke-opacity="1" color="rgb(51, 51, 51)" fill-rule="evenodd" font-size-adjust="none" id="tSvg1939fb6d61c" title="Path 2" d="M 2017.5065805288461 2489.1566460164245 C 2016.9601189903847 2489.1566460164245 2016.413657451923 2489.1566460164245 2015.8671959134613 2489.1566460164245C 2014.965534375 2481.316355568362 2008.4683343749998 2475.212188445469 2000.601565144231 2475.212188445469C 1992.7347959134615 2475.212188445469 1986.2375959134615 2481.316355568362 1985.3370728365385 2489.1566460164245C 1984.676006169872 2489.1566460164245 1984.0149395032051 2489.1566460164245 1983.3538728365384 2489.1566460164245C 1982.4107404175966 2489.1566460164245 1981.6461805288461 2489.9492587514883 1981.6461805288461 2490.9269961100704C 1981.6461805288461 2499.582041012342 1981.6461805288461 2508.2370859146135 1981.6461805288461 2516.8921308168856C 1981.6461805288461 2517.8698681754677 1982.4107404175966 2518.662480910532 1983.3538728365384 2518.662480910532C 1994.7384882211538 2518.662480910532 2006.1231036057693 2518.662480910532 2017.5077189903845 2518.662480910532C 2018.4508514093263 2518.662480910532 2019.2154112980768 2517.8698681754677 2019.2154112980768 2516.8921308168856C 2019.2154112980768 2508.2370859146135 2019.2154112980768 2499.582041012342 2019.2154112980768 2490.9269961100704C 2019.2147828199195 2489.949037086054 2018.4499269762537 2489.156602280758 2017.5065805288461 2489.1566460164245ZM 2000.6004266826926 2478.752888632762 C 2006.5796266826924 2478.752888632762 2011.5342112980768 2483.2755430053307 2012.4142420673077 2489.1566460164245C 2004.5383651442305 2489.1566460164245 1996.6624882211538 2489.1566460164245 1988.7866112980767 2489.1566460164245C 1989.6677805288462 2483.2755430053307 1994.6212266826924 2478.752888632762 2000.6004266826926 2478.752888632762C 2000.6004266826926 2478.752888632762 2000.6004266826926 2478.752888632762 2000.6004266826926 2478.752888632762ZM 2015.7988882211537 2492.697346203717 C 2015.7988882211537 2500.1721577102244 2015.7988882211537 2507.646969216731 2015.7988882211537 2515.1217807232388C 2005.552734375 2515.1217807232388 1995.3065805288463 2515.1217807232388 1985.0604266826922 2515.1217807232388C 1985.0604266826922 2507.646969216731 1985.0604266826922 2500.1721577102244 1985.0604266826922 2492.697346203717C 1995.3065805288463 2492.697346203717 2005.552734375 2492.697346203717 2015.7988882211537 2492.697346203717Z" style=""></path><defs></defs></svg> 