<?xml version="1.0" encoding="UTF-8"?> <svg xmlns="http://www.w3.org/2000/svg" viewBox="1950 2450 100 100" width="100" height="100" data-guides="{&quot;vertical&quot;:[],&quot;horizontal&quot;:[]}"><path fill="#ffffff" stroke="black" fill-opacity="1" stroke-width="0.5" stroke-opacity="1" color="rgb(51, 51, 51)" fill-rule="evenodd" font-size-adjust="none" id="tSvg1747ca3cbb9" title="Path 4" d="M 2049.8431980096266 2502.344812552458 C 2049.4669666513987 2501.573242013216 2048.5343953837973 2501.2514449415617 2047.7598491240908 2501.6259231854683C 2044.0828007168348 2503.405882208922 2040.405752309579 2505.185841232375 2036.7287039023229 2506.9658002558285C 2034.2229328126173 2508.0472418972363 2031.7171617229117 2509.1286835386436 2029.2113906332056 2510.2101251800514C 2026.9392809232543 2509.6273382558998 2024.6768232217914 2509.0078100850255 2022.4249128264298 2508.3517858077475C 2021.9896689474824 2508.1901910797214 2021.5544250685348 2508.028596351695 2021.119181189587 2507.867001623668C 2020.9336326683313 2507.7989546893987 2020.7367190107366 2507.7669567975645 2020.539087038824 2507.772738032319C 2019.615926454814 2507.4754451672966 2018.8133589200665 2507.193690256892 2018.2727693888896 2506.9564774830574C 2015.6800188297445 2505.8190992050254 2011.0475823856584 2503.145535147101 2009.1804693125932 2501.5316595941194C 2007.0711305457507 2499.7147547674635 2001.575830042286 2492.9712824632843 2001.5207314939162 2492.902915462965C 2001.0540531951049 2492.329189753127 2000.2465682893608 2492.1620367008563 1999.5891635152104 2492.5030720974637C 1998.0775920184196 2493.2872208738486 1993.1748608087448 2495.355840565315 1990.578991463843 2494.6038035618076C 1989.2088049213596 2494.1977450144586 1986.6732321010895 2492.8117594625405 1985.9559113770274 2491.948885049425C 1985.4776975609864 2491.3750165922024 1985.0701762220988 2489.3063969007367 1985.2853724393176 2488.645515897654C 1985.8457142802874 2488.3627251236076 1987.9706469759142 2488.721133943461 1989.0112818234297 2488.896194898823C 1990.7921084905572 2489.196595354769 1992.4762527992239 2489.480421992457 1993.7767864598054 2489.060897217773C 1996.3092404943195 2488.245672532152 2001.4157323734375 2483.8981528300574 2002.6466131521174 2482.829141552344C 2003.868137573527 2482.3847560502713 2009.8946712508985 2480.3606784953768 2014.0977548557994 2482.0263472304177C 2016.1020864455425 2482.8161257736674 2018.2392346783301 2483.2176223300426 2020.3945832987592 2483.2093035086627C 2024.5540039030654 2483.2093035086627 2027.621849492495 2481.7849910020195 2027.8495208527406 2481.6762253196944C 2032.956012731859 2478.9570832615573 2038.062504610977 2476.2379412034206 2043.1689964900952 2473.5187991452835C 2044.207727474125 2472.9176646047395 2044.2038428487194 2471.421532471011 2043.1620041640624 2470.825761304746C 2042.7125651047193 2470.5687514274077 2042.1643977941437 2470.5508198342627 2041.6990088033945 2470.777903950682C 2036.6153880198262 2473.4853062208845 2031.5317672362578 2476.192708491088 2026.4481464526896 2478.9001107612917C 2026.395127094824 2478.92497148868 2020.9705190685133 2481.404829045701 2015.2506659905598 2479.138359398766C 2010.268925541713 2477.161931571366 2003.8057618583914 2479.126964898713 2001.8461248078747 2479.8127066291845C 1999.6723311353915 2478.991266761717 1993.561590242587 2476.8128455242836 1990.8461674436749 2477.223047526197C 1988.3116342186565 2477.6104605280034 1980.9305079275857 2477.957474847804 1977.9406319820762 2477.40743125433C 1976.6785633458285 2477.0521300254 1967.0914159294546 2471.8831704558365 1958.7133177914634 2467.201066797635C 1957.6661503668693 2466.615769176771 1956.3757849638682 2467.3794811424855 1956.3906600660387 2468.5757483359102C 1956.3975636249816 2469.1309378725146 1956.7011998680666 2469.640284375463 1957.1871919611406 2469.911921946643C 1962.6668985358212 2472.974970733656 1975.5994634739786 2480.1317526306725 1977.3210332117271 2480.4518344958014C 1980.9783293091898 2481.1272175898607 1988.8376694163019 2480.6735093150173 1991.3150249024457 2480.295419085981C 1992.5396681096122 2480.109999494207 1995.866372916855 2481.0225953620998 1998.778279218445 2482.0149527303647C 1996.6013667602053 2483.7893871477318 1994.0023786295467 2485.7212728385603 1992.8172400419662 2486.10247065852C 1992.2413042722123 2486.287890250294 1990.7390891326918 2486.0341036582017 1989.5310794495617 2485.830038520886C 1987.0599615349313 2485.4136213371253 1984.50567600012 2484.9827020623884 1983.0086588368606 2486.4960988421744C 1981.338029266473 2488.202166259222 1982.3391594944028 2492.4740679155107 1983.5534067490466 2493.930492195031C 1984.806119028024 2495.4376737929697 1987.9716865711664 2497.0733024824167 1989.6984542851758 2497.5839832575257C 1993.0584261404915 2498.5566592166074 1997.7043773228568 2496.7874041174464 1999.87817099534 2495.8085129765177C 2001.5228106844204 2497.796335303971 2005.3152541646778 2502.3085573250155 2007.1366250466433 2503.8778907414267C 2009.4091802680912 2505.8429240687733 2014.5042365994345 2508.696728400266 2017.0138195383986 2509.7978514508554C 2017.9910390755263 2510.2266989983104 2019.6429559313729 2510.763276364449 2021.4081886697163 2511.2884592305354C 2023.846039536274 2512.1934587650594 2026.2838904028317 2513.0984582995834 2028.7217412693897 2514.003457834108C 2029.1043123222228 2514.2002719259344 2029.3943593976041 2514.5669676549173 2029.5846053287685 2515.095258111927C 2029.9151966189884 2516.014069161667 2029.8486625228434 2517.240531712842 2029.4213888741629 2518.143804807964C 2028.9160810319338 2519.199815271642 2027.7827086443124 2519.8082566985636 2026.619679669313 2519.647878814979C 2026.399952999932 2519.5216165475717 2026.1526965449575 2519.45051440731 2025.8992401594944 2519.4407060867397C 2022.594020320798 2517.732221654529 2019.2888004821018 2516.0237372223182 2015.9835806434055 2514.315252790107C 2014.9245714974384 2513.752028998396 2013.6507867215994 2514.542310133037 2013.6907680468232 2515.737758832424C 2013.7097650026062 2516.3057711720835 2014.038477517716 2516.818130721563 2014.5478996000295 2517.0737576666093C 2017.8766835977772 2518.793981886754 2021.2054675955246 2520.514206106898 2024.5342515932725 2522.234430327043C 2024.564399855588 2522.248932418019 2024.5955877131562 2522.257219327149 2024.6257359754718 2522.271721418126C 2024.7016264288868 2522.6653496017793 2024.630933951733 2522.938817603055 2024.5186576644885 2523.299298150191C 2024.4243883995389 2523.5776194522546 2024.3544745684587 2523.863549167032 2024.3096990187835 2524.153885654177C 2023.6547540098575 2525.359630932528 2022.1722911801298 2525.893100707743 2020.9008661866117 2525.3482364324746C 2018.1109390612876 2524.1400741389616 2015.3210119359628 2522.9319118454473 2012.5310848106385 2521.723749551934C 2012.493659381557 2521.7071757336744 2012.4551943572233 2521.700960551827 2012.4167293328894 2521.6874943244916C 2012.3668287607807 2521.669884642591 2012.3169281886724 2521.65123909705 2012.2670276165636 2521.639844596997C 2012.2160874492026 2521.6274142333023 2012.1641076865894 2521.6211990514553 2012.1131675192285 2521.6149838696083C 2012.06326694712 2521.608768687761 2012.0144059702634 2521.6004817786315 2011.965544993407 2521.598410051349C 2011.912525635542 2521.596338324067 2011.8605458729287 2521.6004817786315 2011.8085661103153 2521.604625233196C 2011.7607447287114 2521.60773282412 2011.712923347107 2521.608768687761 2011.6661415607552 2521.6170555968906C 2011.614161798142 2521.62534250602 2011.5642612260333 2521.6388087333557 2011.514360653925 2521.6522749606916C 2011.4686184628251 2521.664705324385 2011.4218366764735 2521.675063960797 2011.377134080626 2521.6916377790562C 2011.3293126990218 2521.7092474609567 2011.2846101031746 2521.732036461063 2011.238867912075 2521.7537895975283C 2011.1941653162278 2521.7755427339935 2011.1494627203801 2521.7952241431763 2011.1068393150374 2521.821120734206C 2011.0642159096947 2521.8459814615944 2011.025750885361 2521.8770573708302 2010.986246265775 2521.906061552784C 2010.9444703593808 2521.935424805516 2010.9042206593267 2521.9668866624565 2010.8656532165126 2522.0003251441326C 2010.8292673826832 2522.0334727806508 2010.7970399298629 2522.0707638717336 2010.7637728817906 2522.107019099176C 2010.7284266432137 2522.1463819175415 2010.6920408093845 2522.1836730086243 2010.6608529518167 2522.226143417913C 2010.630704689501 2522.2665420999197 2010.6067939986988 2522.3110842364913 2010.5797645221398 2522.354590509421C 2010.5579330218422 2522.390845736863 2010.5329827357882 2522.4219216460992 2010.5142700212475 2522.4602486008234C 2010.5080324497337 2522.472678964518 2010.5059532592293 2522.486145191853 2010.4997156877157 2522.498575555547C 2010.4945177114544 2522.5099700556007 2010.4862009494364 2522.519292828371 2010.4820425684272 2522.5306873284244C 2010.4664486396434 2522.565906692225 2010.4602110681296 2522.601126056026 2010.4477359251025 2522.6373812834677C 2010.4290232105618 2522.6902103291686 2010.4092709007687 2522.7430393748696 2010.3967957577415 2522.7958684205705C 2010.3853602099666 2522.843518148065 2010.3801622337053 2522.8922037392012 2010.3739246621917 2522.9408893303375C 2010.366647495426 2522.992682512397 2010.3583307334077 2523.044475694457 2010.3572911381557 2523.096268876517C 2010.355211947651 2523.145990331295 2010.35937032866 2523.1957117860716 2010.362489114417 2523.245433240849C 2010.3656079001737 2523.2951546956265 2010.3676870906781 2523.3448761504037 2010.374964257444 2523.394597605181C 2010.3832810194622 2523.444319059958 2010.3967957577415 2523.493004651094 2010.4092709007687 2523.5416902422307C 2010.421746043796 2523.589339969726 2010.4331815915707 2523.63595383358 2010.449815115607 2523.682567697433C 2010.4674882348957 2523.729181561287 2010.489319735193 2523.7747595615 2010.5111512354906 2523.819301698071C 2010.531943140536 2523.8638438346425 2010.5527350455814 2523.908385971214 2010.5776853316352 2523.949820516862C 2010.6036752129419 2523.9933267897914 2010.63486307051 2524.0337254717983 2010.6650113328255 2524.074124153805C 2010.694119999889 2524.114522835812 2010.7232286669525 2524.153885654177 2010.7564957150248 2524.1911767452602C 2010.7908023583495 2524.2295036999844 2010.8303069779356 2524.2626513365026 2010.8698115975212 2524.297870700303C 2010.9072370266028 2524.331018336821 2010.9425832651798 2524.3652018369808 2010.9831274800183 2524.395241882575C 2011.025750885361 2524.4263177918115 2011.072532671713 2524.4532502464826 2011.1193144580645 2524.480182701153C 2011.152581506137 2524.5008999739775 2011.1827297684529 2524.5247248377245 2011.2180760070296 2524.5423345196255C 2011.9617331441489 2524.909375536489 2012.705390281268 2525.276416553352 2013.4490474183872 2525.643457570215C 2014.7740192665365 2526.272693472556 2015.3391426494516 2527.8508409642654 2014.7131952451396 2529.1736808594083C 2014.4102374946956 2529.8179151268173 2013.86099803181 2530.31444796498 2013.188109010069 2530.5524153658384C 2012.5280120952048 2530.789758054994 2011.7999312815384 2530.7531861410944 2011.1671358396688 2530.450900729001C 2009.0758167238655 2529.4664849819856 2006.9844976080622 2528.48206923497 2004.893178492259 2527.4976534879543C 2005.4892131035567 2526.4901034529516 2006.0852477148544 2525.4825534179495 2006.6812823261519 2524.4750033829478C 2008.4028520639004 2521.5756210512427 2007.433949288791 2517.815436033705 2004.523082582453 2516.093830662039C 2004.5223895189515 2516.0934853741587 2004.52169645545 2516.0931400862783 2004.5210033919484 2516.092794798398C 2003.2715500512707 2515.356877369166 2001.8012706075215 2515.084643099515 2000.3698995496604 2515.324183976631C 2000.6537090535282 2512.5553204637167 1999.3864424410192 2509.7605603597726 1996.8778990973076 2508.2740960346573C 1996.8751268433014 2508.2723695952554 1996.8723545892954 2508.2706431558536 1996.8695823352894 2508.2689167164517C 1994.3776725156138 2506.810420709649 1991.3566087125362 2507.0175934378885 1989.070538752809 2508.534097808598C 1988.603896435124 2507.138465622976 1987.6484284295802 2505.9569672567336 1986.3790266446988 2505.205867929438C 1983.4463284380636 2503.490477739619 1979.6622017198245 2504.456938516854 1977.943750767833 2507.358392575841C 1976.5500000662985 2509.708767177713 1975.1562493647639 2512.059141779584 1973.762498663229 2514.4095163814554C 1970.3512401088021 2511.977999127691 1966.9399815543748 2509.5464818739256 1963.5287229999476 2507.1149646201607C 1963.4923371661184 2507.0890680291304 1963.4517929512801 2507.071458347231 1963.4133279269465 2507.0497052107653C 1963.375902497865 2507.0279520743 1963.3426354497924 2507.001019619629 1963.3031308302066 2506.9823740740876C 1959.615686470428 2505.1979263081894 1955.9282421106495 2503.4134785422907 1952.240797750871 2501.6290307763916C 1951.1608188215703 2501.1067283870693 1949.9183862327739 2501.9452043724395 1950.0044190895958 2503.138287549361C 1950.044347078499 2503.6919993939805 1950.3777079845424 2504.182425368566 1950.8789279704058 2504.4248267439775C 1954.5268677105985 2506.190628964334 1958.174807450791 2507.956431184691 1961.8227471909834 2509.7222334050484C 1965.3213317466007 2512.216247765165 1968.819916302218 2514.7102621252825 1972.3185008578355 2517.2042764853995C 1971.498990761689 2519.9125833209805 1972.6409563395453 2522.8284464258218 1975.0848638241087 2524.2678306547086C 1976.0295737058634 2524.8235332270024 1977.1066031309224 2525.116508265479 1978.2036495808989 2525.116202976847C 1978.5456764188934 2525.116202976847 1978.8845844711313 2525.077876022123 1979.2203737376124 2525.021939385498C 1978.9251286859696 2527.81462776216 1980.2038308462538 2530.634248593493 1982.7373244760197 2532.127963964096C 1983.8397821923404 2532.7776931124854 1985.0971248571336 2533.1204201913893 1986.3779870494463 2533.1203213323606C 1987.0359152708184 2533.11960319481 1987.6907910973196 2533.031113921795 1988.325148956936 2532.8572119674977C 1989.109524870445 2532.641614506915 1989.8532771615976 2532.2997647907287 1990.5270117012299 2531.8451731900495C 1991.0006428376066 2533.232624027048 1991.9568167228554 2534.40545532103 1993.222682190349 2535.151649932744C 1996.1467010898057 2536.864823869855 1999.9104183428283 2535.9019265148245 2001.6444433289355 2532.9970535590587C 2002.1978545348904 2532.060978115299 2002.7512657408456 2531.124902671539 2003.3046769468003 2530.1888272277793C 2005.4805498097876 2531.2132963689205 2007.656422672775 2532.2377655100627 2009.8322955357626 2533.2622346512044C 2011.2124737169086 2533.9187810643066 2012.798810867308 2533.998223480561 2014.238100214855 2533.482873606779C 2015.6929901113594 2532.9703105257254 2016.8805909512555 2531.8974323689868 2017.5346567597826 2530.5047656383435C 2017.9765709311348 2529.571348540675 2018.1572394381362 2528.5363230146772 2018.0575731716713 2527.5090479880078C 2018.5933112583375 2527.7410814436353 2019.129049345004 2527.973114899263 2019.6647874316704 2528.2051483548903C 2020.38198558576 2528.5138378245088 2021.1550541226816 2528.672832128947 2021.936303057866 2528.6723228570695C 2024.2505564521912 2528.6717580178465 2026.3448957297312 2527.3058963208996 2027.271505892482 2525.1928568862954C 2027.3577922984202 2524.99707865811 2027.401455299015 2524.7930135207944 2027.401455299015 2524.579625610708C 2027.4056136800243 2524.522653110442 2027.4596726331417 2524.3527714732863 2027.4981376574756 2524.228467836343C 2027.612493135225 2523.8607362437187 2027.7663532325596 2523.368701014151 2027.7861055423527 2522.7316448748165C 2029.7264298367022 2522.4646227619323 2031.4013528718606 2521.2419488840073 2032.2418107935541 2519.479033041464C 2033.0256656137606 2517.825794670117 2033.1327439247436 2515.745780478597 2032.522501511665 2514.050071697961C 2032.3239639241299 2513.5034272224434 2032.0385993884918 2512.9921044600956 2031.6773105715747 2512.535639054534C 2033.784570147913 2511.626150777565 2035.891829724251 2510.7166625005957 2037.999089300589 2509.807174223626C 2038.010524848364 2509.8019949054205 2038.0198812056344 2509.794743859932 2038.031316753409 2509.7885286780847C 2038.0406731106796 2509.78438522352 2038.051069063202 2509.783349359879 2038.0604254204725 2509.7781700416726C 2041.747869780251 2507.993376987894 2045.4353141400297 2506.2085839341153 2049.1227584998082 2504.4237908803366C 2049.896650438592 2504.046855450527 2050.2187975313673 2503.1172328882526 2049.8431980096266 2502.344812552458ZM 1976.6681673933058 2521.587015551296 C 1975.2243109955598 2520.7413444370977 1974.7389791473186 2518.8912893732345 1975.5828299499426 2517.449776168363C 1977.264895068105 2514.61254565513 1978.9469601862672 2511.7753151418965 1980.6290253044294 2508.9380846286635C 1981.177706233659 2508.018759742061 1982.1732768983236 2507.4569693945955 1983.2467261496288 2507.4609430763194C 1983.7738009425266 2507.4609430763194 1984.30815290219 2507.5966412133157 1984.793643884997 2507.880467851004C 1986.22937935983 2508.7312668858335 1986.7071032194863 2510.577016363201 1985.8633873995761 2512.013563779372C 1984.1820153449153 2514.8511395804853 1982.5006432902544 2517.6887153815987 1980.8192712355935 2520.5262911827117C 1979.9650256154964 2521.9588365070404 1978.1088788046623 2522.433134483275 1976.6681673933058 2521.587015551296ZM 1987.5017895171432 2529.8563149989554 C 1986.4298464988494 2530.1572998472757 1985.2810887860346 2530.0099188329345 1984.320628045217 2529.4481847243246C 1982.3214863751143 2528.269371900645 1981.6873332712337 2525.625847888315 1982.9046993116342 2523.557228196849C 1985.0823048333752 2519.8881991797357 1987.2599103551165 2516.219170162623 1989.4375158768576 2512.5501411455107C 1990.2165857429857 2511.2148800570876 1991.6466356103185 2510.390115036329 1993.1966923090426 2510.38207854449C 1993.9119338425999 2510.38207854449 1994.6313337571662 2510.5633546816985 1995.286278766092 2510.9455883652995C 1997.2729452931676 2512.125437052621 1997.895662849273 2514.7596382921793 1996.6741384278637 2516.817899347234C 1994.4979190331258 2520.4865830764666 1992.3216996383874 2524.1552668056984 1990.1454802436492 2527.8239505349306C 1989.5657458668463 2528.8205640442334 1988.6163531071268 2529.5504194970817 1987.5017895171432 2529.8563149989554ZM 1998.959168792339 2531.4121821880303 C 1998.1023616225739 2532.8414096101264 1996.2490219759684 2533.3145277971917 1994.808064950051 2532.4718706929725C 1993.3609483589003 2531.6183190526276 1992.8744177808408 2529.761015543966 1993.7248066971922 2528.330487855475C 1995.4054856883517 2525.493257342242 1997.0861646795108 2522.6560268290086 1998.7668436706704 2519.818796315776C 1999.3156658670891 2518.900905029645 2000.3101790749092 2518.340052852008 2001.382465325365 2518.3437264907143C 2003.7160833911855 2518.3418721192234 2005.1766073109275 2520.857860986296 2004.0114099960736 2522.872506450162C 2004.0070023351066 2522.880127369005 2004.0025612873665 2522.887729068239 2003.99808698006 2522.895311330125C 2003.2928948672745 2524.087935669021 2002.5877027544893 2525.280560007917 2001.8825106417037 2526.473184346812C 2001.4276915194262 2526.5814882912427 2001.0465851485737 2526.889240167862 2000.8460341751972 2527.310162168898C 2000.6895731320913 2527.6434943479862 2000.6582215628382 2528.021670405697 2000.7576685787546 2528.376065855688C 2000.1581686499494 2529.3881046331353 1999.5586687211442 2530.400143410583 1998.959168792339 2531.4121821880303Z" style=""></path><defs></defs></svg> 