<?xml version="1.0" encoding="UTF-8"?> <svg xmlns="http://www.w3.org/2000/svg" width="181" height="241" viewBox="0 0 181 241" fill="none"> <path d="M161.54 160.702C161.424 160.795 161.297 160.887 161.169 160.98C154.732 165.821 148.168 170.661 141.488 175.502C141.488 175.502 141.488 175.502 141.476 175.502C131.247 182.565 74.6151 212.826 72.3072 213.885C67.2274 216.226 63.5393 217.919 60.6515 219.162C60.5819 219.201 60.5007 219.228 60.4195 219.254C60.2223 219.334 60.0136 219.426 59.8164 219.506C59.7584 219.532 59.7004 219.545 59.6541 219.572C58.7262 219.955 57.868 220.299 57.0446 220.617C57.033 220.617 57.033 220.617 57.0214 220.63C56.7546 220.722 56.4995 220.828 56.2443 220.921C56.0008 221.013 55.7688 221.093 55.5369 221.172C54.7714 221.437 54.0291 221.701 53.2985 221.939C53.0201 222.032 52.7418 222.124 52.475 222.204C51.7792 222.415 51.0833 222.627 50.3527 222.825C47.4532 223.632 43.626 224.704 39.3928 225.524C39.3232 225.537 39.242 225.563 39.1724 225.563C38.1982 225.735 37.4096 225.854 36.8413 225.947C31.6571 226.714 27.7023 226.846 24.6985 226.688C24.6637 226.688 24.6289 226.688 24.6057 226.688C21.973 226.489 19.3983 226.013 16.9859 225.166C16.9395 225.153 16.8932 225.127 16.8352 225.114C11.5814 223.024 8.9719 220.101 8.07888 219.043C7.62657 218.501 7.22065 217.945 6.84952 217.416C6.60597 217.046 6.37401 216.675 6.15365 216.305C5.08666 214.467 4.4256 212.721 3.9269 211.319C3.88051 211.186 3.82252 211.041 3.77612 210.909C3.77612 210.895 3.76452 210.869 3.76452 210.856C1.05064 202.999 1.7465 195.923 2.09444 192.63C2.10603 192.498 2.12924 192.379 2.14084 192.247C2.14084 192.233 2.14084 192.22 2.14084 192.22C2.52356 189.257 3.12664 186.692 3.66014 184.734C3.69493 184.589 3.72973 184.456 3.77612 184.324C4.34441 182.367 5.02868 180.343 5.80573 178.015C5.80573 177.989 5.81731 177.975 5.82891 177.949C6.30442 176.6 6.87272 175.026 7.5106 173.346C7.76575 172.672 8.00931 172.024 8.24126 171.429C8.25286 171.429 8.25284 171.415 8.25284 171.415C8.34562 171.19 8.42681 170.979 8.50799 170.767C8.54278 170.688 8.566 170.609 8.60079 170.529C8.92553 169.749 9.20386 169.074 9.42422 168.558C8.65877 170.582 7.9397 172.976 7.45259 175.674C7.45259 175.687 7.44102 175.714 7.44102 175.74C7.42942 175.753 7.42941 175.78 7.42941 175.806C7.40621 175.912 7.37141 176.018 7.34821 176.124C7.37141 176.005 7.38303 175.873 7.40622 175.753C7.29025 176.256 7.15107 176.772 7.03509 177.301C6.94231 177.724 6.83792 178.161 6.73354 178.624C6.18844 180.607 5.73613 182.631 5.38819 184.655C5.21423 185.673 5.06345 186.692 4.94747 187.697C4.91268 188.041 4.87789 188.371 4.8431 188.715C4.76191 189.601 4.71554 190.474 4.68075 191.347V191.453C4.65755 192.537 4.66915 193.609 4.75033 194.654C4.76193 194.905 4.78512 195.17 4.81991 195.421C4.8779 196.016 4.94749 196.585 5.04027 197.153C5.06347 197.325 5.08667 197.497 5.12147 197.656C5.17946 197.987 5.24902 198.304 5.31861 198.635C5.41139 199.045 5.51579 199.455 5.63177 199.852C5.63177 199.865 5.64334 199.891 5.64334 199.904C5.97968 201.055 6.39721 202.153 6.9191 203.185C7.02348 203.396 7.13946 203.608 7.24384 203.806C7.73094 204.798 8.29922 205.737 8.97189 206.623C16.9511 217.151 33.7099 213.144 39.5204 211.768C39.648 211.742 39.7755 211.702 39.9147 211.663C39.9843 211.636 40.0423 211.623 40.1235 211.61C40.2394 211.583 40.3554 211.557 40.4714 211.517C46.363 209.864 53.3449 205.79 56.2907 203.965C56.3139 203.965 56.3371 203.938 56.3603 203.925C57.2185 203.409 57.7056 203.079 57.7056 203.066C57.694 203.052 57.694 203.052 57.6824 203.039V203.026C56.0703 200.738 53.6928 197.233 50.9557 192.815C49.1697 189.932 47.8823 187.697 46.9777 186.136C41.5732 176.732 34.7537 164.379 32.6545 160.57C46.0963 166.799 69.2918 175.304 98.9008 174.973C99.0052 174.973 99.1096 174.973 99.214 174.973C126.77 174.59 148.435 166.746 161.54 160.702Z" fill="url(#paint0_linear_75_903)"></path> <path d="M57.7582 203.12C57.7582 203.133 57.7582 203.133 57.7582 203.133C57.7466 203.133 57.677 203.186 57.6654 203.186C52.5044 206.241 49.9181 207.776 48.5612 208.45C45.0007 210.209 42.0665 211.122 40.524 211.558C40.3732 211.598 40.2572 211.638 40.1761 211.651H40.1645C40.0949 211.664 40.0369 211.691 39.9673 211.704C39.8397 211.73 39.7121 211.77 39.5846 211.796C33.7857 213.172 17.0154 217.18 9.03611 206.638C8.36344 205.752 7.79516 204.813 7.30806 203.834C7.19208 203.623 7.08769 203.424 6.97171 203.226V203.213C6.44981 202.194 6.0439 201.11 5.70756 199.985C5.70756 199.972 5.69595 199.946 5.69595 199.933C5.57998 199.536 5.47561 199.126 5.38283 198.716C5.31324 198.398 5.24364 198.068 5.18565 197.737C5.15086 197.565 5.12765 197.406 5.10446 197.234C5.01167 196.666 4.94208 196.084 4.8841 195.502C4.8609 195.25 4.83771 194.986 4.81451 194.735C4.73333 193.69 4.72173 192.605 4.74493 191.534V191.428C4.77972 190.555 4.82613 189.682 4.90731 188.796C4.94211 188.452 4.9769 188.122 5.01169 187.778C5.12767 186.773 5.27844 185.754 5.45241 184.736C5.80034 182.712 6.26426 180.688 6.79775 178.705C6.90213 178.255 7.00649 177.818 7.09927 177.382C7.22685 176.853 7.35443 176.337 7.47041 175.834C7.44721 175.954 7.43563 176.086 7.41243 176.205C7.09929 178.136 6.89052 180.226 6.89052 182.448C6.89052 183.188 6.20625 194.761 12.0747 201.586C17.1777 207.511 24.8554 207.167 28.3927 207.009C40.7328 206.453 52.0753 197.287 53.1307 196.401C53.1887 196.362 53.2119 196.335 53.2119 196.335L57.7582 203.12Z" fill="url(#paint1_linear_75_903)"></path> <path d="M161.742 160.557C161.73 160.584 161.707 160.61 161.696 160.636C161.696 160.636 161.696 160.636 161.684 160.65C161.684 160.65 161.684 160.65 161.684 160.663C161.661 160.703 161.649 160.742 161.626 160.782C158.309 166.641 153.855 174.048 148.184 182.275C145.807 185.74 141.075 192.432 133.362 201.876C125.789 211.16 114.156 224.545 98.0124 240.218C98.0124 240.218 92.9325 236.555 90.4622 234.703C89.6156 234.068 88.2007 232.997 86.519 231.661C84.4662 230.021 81.6827 227.733 78.4238 224.783C74.0862 227.124 67.2551 230.352 58.522 232.6C47.423 235.457 25.944 240.999 11.4004 228.024C9.47519 226.304 2.91086 220.445 0.707293 210.526C-0.208929 206.412 -0.0349869 203.093 0.138979 199.442C0.591291 190.052 3.24718 182.962 5.43916 177.262C7.54995 171.746 9.75353 167.501 9.98549 167.236L9.99706 167.223C10.0319 167.236 9.82311 167.712 9.46358 168.559C9.24322 169.075 8.96488 169.749 8.64015 170.53C8.60535 170.609 8.57054 170.688 8.54734 170.768C8.46616 170.979 8.37338 171.191 8.29219 171.416C8.29219 171.416 8.29222 171.429 8.28062 171.429C7.58475 173.135 6.76129 175.304 5.93785 177.751C5.91466 177.817 5.89146 177.897 5.86827 177.963C5.85667 177.989 5.84508 178.002 5.84508 178.029C5.06804 180.357 4.38377 182.38 3.81548 184.338C3.78069 184.47 3.74589 184.602 3.6995 184.748C3.00363 187.181 2.49333 189.536 2.18019 192.234C2.18019 192.234 2.18019 192.247 2.18019 192.26C2.1686 192.393 2.14539 192.512 2.13379 192.644C1.77426 195.937 1.09 203.026 3.80387 210.869C3.80387 210.883 3.81548 210.909 3.81548 210.922C3.86187 211.055 3.90827 211.187 3.96626 211.332C4.46496 212.774 5.12601 214.507 6.193 216.319C6.41336 216.689 6.64532 217.059 6.88887 217.43C7.26 217.972 7.66592 218.514 8.11823 219.056C9.01126 220.115 11.6208 223.038 16.8746 225.127C16.9209 225.154 16.9673 225.167 17.0253 225.18C18.3358 225.696 20.6554 226.463 24.645 226.701C24.6798 226.701 24.7146 226.701 24.7378 226.701C27.7416 226.873 31.6965 226.728 36.8807 225.961C37.4489 225.881 38.2376 225.749 39.2118 225.577C39.2814 225.577 39.3626 225.551 39.4321 225.537C46.2168 223.99 53.3378 221.94 53.3378 221.94C63.8802 217.998 71.5231 214.335 76.6493 211.637C80.175 209.785 90.6362 204.124 92.1091 203.331C95.3449 201.585 98.0007 200.143 98.975 199.614C112.846 192.062 119.781 188.292 127.958 183.346C140.298 175.873 150.04 169.062 155.676 164.988C158.181 163.202 160.269 161.655 161.742 160.557Z" fill="url(#paint2_linear_75_903)"></path> <path d="M5.17491 197.643C5.14011 197.471 5.11695 197.312 5.09375 197.14C5.12854 197.325 5.15172 197.51 5.18652 197.696C5.24451 198.013 5.3025 198.317 5.37208 198.621C5.2909 198.304 5.2329 197.973 5.17491 197.643Z" fill="url(#paint3_linear_75_903)"></path> <path d="M5.84601 178.016C5.06896 180.343 4.3847 182.367 3.81641 184.325C4.11795 183.253 4.3847 182.394 4.58186 181.772C4.79062 181.124 5.23133 179.775 5.84601 178.016Z" fill="url(#paint4_linear_75_903)"></path> <path d="M7.09522 177.342C6.99084 177.765 6.88648 178.215 6.7937 178.664C6.26021 180.648 5.79629 182.672 5.44836 184.695C5.27439 185.714 5.12363 186.732 5.01925 187.737C4.97286 188.068 4.94965 188.412 4.90326 188.743C4.82208 189.629 4.76407 190.502 4.74088 191.375V191.48C4.71768 192.565 4.72928 193.636 4.81046 194.681C4.82206 194.932 4.84525 195.197 4.88004 195.448C4.92644 196.017 4.99605 196.586 5.08883 197.141C4.99605 196.572 4.92646 195.99 4.86847 195.409C4.84528 195.157 4.82208 194.893 4.79889 194.641C4.7177 193.597 4.70611 192.512 4.7293 191.441V191.335C4.7641 190.462 4.81047 189.589 4.89165 188.703C4.92645 188.359 4.96124 188.028 4.99603 187.684C5.11201 186.679 5.26278 185.661 5.43675 184.642C5.78468 182.619 6.2486 180.595 6.78209 178.611C6.88647 178.162 6.99086 177.725 7.08365 177.289C7.21122 176.76 7.33877 176.244 7.45475 175.741C7.43155 175.86 7.41997 175.993 7.39677 176.112C7.29239 176.522 7.188 176.932 7.09522 177.342Z" fill="url(#paint5_linear_75_903)"></path> <path d="M9.4719 168.546C9.25155 169.062 8.97317 169.737 8.64844 170.517C9.17034 169.195 9.62265 168.084 9.99378 167.211C10.0286 167.144 10.0518 167.078 10.075 167.012C10.075 167.025 10.0634 167.052 10.0634 167.052C10.0518 167.078 10.0518 167.105 10.0402 167.131C10.0286 167.144 10.017 167.171 10.0054 167.211C9.81983 167.634 9.64587 168.084 9.4719 168.546Z" fill="url(#paint6_linear_75_903)"></path> <path d="M117.544 36.152C116.071 32.9909 114.598 29.9886 113.113 27.1714C114.586 29.9621 116.071 32.9512 117.544 36.152Z" fill="url(#paint7_linear_75_903)"></path> <path d="M179.883 62.988L179.836 60.2105C179.674 52.5658 178.746 48.3599 178.016 45.1988C177.366 42.3816 176.589 40.0671 176.589 40.0671C176.438 39.6042 175.963 38.2022 175.232 36.4563C174.304 34.2079 174.594 34.8295 173.91 33.454C173.713 33.0572 171.509 28.5867 169.457 25.8225C162.66 16.6171 153.556 12.7815 153.556 12.7815C145.797 9.50138 139.07 10.3214 134.988 10.8637C128.748 11.6969 122.288 14.5935 109.357 20.3733C106.829 21.5107 104.764 22.463 103.407 23.1111C103.407 23.1111 96.124 26.5499 88.7246 30.4781C74.4014 38.0964 56.6916 49.6825 55.5898 50.4099C62.3629 42.0113 69.3796 33.5201 76.6398 24.9495C83.7144 16.6038 90.7426 8.53586 97.7012 0.732422C99.151 2.90151 100.624 5.13674 102.085 7.43809C103.5 9.64686 104.869 11.8292 106.191 13.9983C109.403 12.2392 113.822 10.123 119.25 8.37715C122.091 7.46454 128.261 5.49384 134.779 5.25577C137.899 5.13674 151.167 4.6606 163.089 15.0431C176.009 26.2986 178.653 42.752 179.5 48.0028C180.498 53.9678 180.115 59.4434 179.883 62.988Z" fill="url(#paint8_linear_75_903)"></path> <path d="M178.876 56.0045C178.181 51.6928 176.974 47.024 174.922 42.3948C173.599 39.4321 169.877 31.2848 161.921 25.4653C161.143 24.8966 158.511 23.0317 154.753 21.471C152.619 20.5848 148.189 18.8125 142.413 18.958C138.679 19.0506 135.976 19.9103 133.262 20.7965C129.528 22.0133 124.1 24.2749 118.093 28.7322C120.459 37.1705 122.21 43.929 123.37 49.0476C123.288 49.074 123.323 49.0608 123.242 49.1005C121.943 45.7013 120.505 42.1567 118.87 38.4931C118.638 37.9773 118.406 37.4614 118.174 36.9324C117.965 36.4695 117.756 36.0066 117.548 35.5569C116.075 32.3958 114.602 29.3935 113.117 26.5763C118.58 22.873 123.288 20.4261 126.745 18.8258C129.934 17.3444 131.894 16.6699 133.251 16.2599C136.185 15.3473 139.235 14.4082 143.364 14.4611C147.725 14.514 151.053 15.6647 152.492 16.2202C154.533 17.0138 156.052 17.8999 157.061 18.4951C158.116 19.1167 160.506 20.5981 163.243 23.0714C164.379 24.103 165.829 25.5182 167.383 27.3699C167.383 27.3831 167.395 27.3831 167.395 27.3831C167.685 27.7667 168.009 28.1767 168.346 28.5734C169.169 29.6448 169.795 30.5309 170.166 31.0864C176.174 40.0009 178.018 49.4311 178.876 56.0045Z" fill="url(#paint9_linear_75_903)"></path> <path d="M179.691 65.8315C179.633 63.702 179.493 61.3875 179.215 58.9274C179.122 58.0412 179.006 57.0625 178.867 56.0044C179.447 59.5887 179.656 62.9481 179.691 65.8315Z" fill="url(#paint10_linear_75_903)"></path> <path d="M179.564 72.9729C179.576 72.9729 179.587 72.6555 179.622 72.0338C179.657 71.4916 179.692 70.698 179.715 69.6928C179.738 68.5157 179.738 67.2592 179.715 65.9366V65.8175C179.668 62.9342 179.46 59.588 178.891 56.0037C178.033 49.4303 176.189 40 170.181 31.0856C169.81 30.5301 169.196 29.6439 168.361 28.5726C168.071 28.1891 167.746 27.7923 167.41 27.3823C167.398 27.3823 167.398 27.3691 167.398 27.3691C165.681 25.3058 163.072 22.5547 159.453 20.0947C157.041 18.4546 152.738 15.5713 146.615 14.7381C141.477 14.0371 137.429 15.0952 134.947 15.73C131.758 16.5633 129.195 17.7139 126.759 18.8117C123.64 20.2137 121.285 21.5495 119.708 22.4621C117.064 23.9699 114.849 25.3983 113.132 26.5623C115.428 31.1121 117.087 34.4847 117.562 35.5428C117.771 35.9925 117.98 36.4554 118.189 36.9184C118.421 37.4474 118.664 37.9632 118.885 38.479C120.392 41.8649 121.738 45.145 122.955 48.3061C123.048 48.5442 123.141 48.7822 123.234 49.0335C113.816 46.8909 101.674 45.1186 87.5359 45.5947C75.1031 46.018 64.3636 48.0416 55.7812 50.3561C56.8946 49.6287 74.6044 38.0426 88.916 30.4243C96.3038 26.4961 103.599 23.0573 103.599 23.0573C104.944 22.4225 107.008 21.4569 109.548 20.3195C122.457 14.5397 128.917 11.6431 135.029 10.8231C139.053 10.2808 146.128 9.43436 154.211 13.0054C155.777 13.6932 163.211 17.132 169.509 25.7819C172.06 29.2868 173.475 32.3553 174.322 34.207C179.251 44.9995 179.692 55.0779 179.854 59.8393C180.039 66.0556 179.529 72.9729 179.564 72.9729Z" fill="url(#paint11_linear_75_903)"></path> <path d="M179.671 77.1927C179.566 84.4009 176.168 114.848 174.939 120.826C174.939 120.813 174.915 120.813 174.904 120.813C174.788 120.746 174.683 120.68 174.567 120.614C173.651 120.032 172.654 119.424 171.61 118.802C170.068 117.876 168.374 116.898 166.542 115.879C165.707 115.416 164.814 114.94 163.874 114.438C163.41 114.186 162.935 113.935 162.436 113.697C160.36 112.626 158.075 111.501 155.582 110.39C155.547 110.377 155.466 110.337 155.362 110.298C155.292 110.271 155.211 110.232 155.106 110.192C153.831 109.636 150.467 108.182 150.119 108.036C150.027 107.996 149.934 107.957 149.853 107.917C149.366 107.705 148.855 107.52 148.345 107.309C147.672 107.044 146.988 106.78 146.292 106.515C146.141 106.462 146.002 106.396 145.851 106.343C145.469 106.198 145.074 106.052 144.692 105.92C144.309 105.774 143.915 105.629 143.52 105.483C142.743 105.206 141.931 104.928 141.12 104.637C140.308 104.359 139.484 104.095 138.661 103.83C138.255 103.698 137.849 103.566 137.443 103.447C137.443 103.447 137.443 103.447 137.432 103.447C137.246 103.394 136.991 103.314 136.666 103.209C136.504 103.169 136.33 103.103 136.144 103.05C135.553 102.878 134.822 102.653 133.952 102.415C132.618 102.045 130.983 101.608 129.128 101.159C126.054 100.418 121.937 99.4127 116.776 98.5397C116.521 98.4868 116.254 98.4604 115.987 98.4075C115.28 98.3016 114.584 98.1826 113.876 98.0768C113.876 98.0768 113.865 98.0768 113.853 98.0768H113.83C112.867 97.9313 111.893 97.8123 110.919 97.6932C110.896 97.68 110.861 97.68 110.826 97.68C109.806 97.5478 108.773 97.4419 107.741 97.3361C106.697 97.2303 105.654 97.1245 104.598 97.0452C102.453 96.8732 100.284 96.741 98.092 96.6616C97.0134 96.6087 95.958 96.5822 94.8794 96.569C93.6848 96.5426 92.4555 96.5426 91.1913 96.569C91.1913 96.569 90.855 96.569 90.5535 96.569C89.3821 96.5822 75.4648 97.2303 65.0268 99.2275C56.4445 100.868 39.4654 105.47 18.7518 115.8C17.998 108.936 17.3137 101.873 16.7222 94.6115C15.9452 85.3135 15.2725 75.7643 15.1797 71.8096C30.1756 64.0194 57.4767 52.5391 92.8382 52.592C133.825 52.6184 164.617 68.146 179.671 77.1927Z" fill="url(#paint12_linear_75_903)"></path> <path d="M161.728 160.716C161.728 160.716 161.728 160.729 161.717 160.729C161.682 160.742 161.659 160.756 161.624 160.769C161.624 160.769 161.624 160.769 161.612 160.769C161.554 160.795 161.496 160.835 161.45 160.848C161.438 160.848 161.427 160.862 161.415 160.862C161.346 160.901 161.264 160.928 161.195 160.967C161.311 160.875 161.438 160.782 161.566 160.69C148.461 166.734 126.796 174.577 99.2978 174.934C89.8572 162.462 74.8961 145.889 53.3359 132.319C53.3243 132.319 53.3243 132.306 53.3127 132.306C53.3011 132.293 53.2895 132.28 53.2779 132.28C52.8836 132.028 52.3849 131.711 51.805 131.314C52.9996 132.042 40.3232 123.445 41.0539 116.964C41.8773 109.769 58.0678 106.595 68.7841 104.492C88.0016 100.722 106.013 102.984 108.066 103.262C108.541 103.645 108.935 104.015 109.249 104.32C109.852 104.743 110.733 105.338 111.777 106.092C111.777 106.092 121.786 113.208 130.878 121.884C146.06 136.393 160.406 158.613 161.682 160.61C161.682 160.623 161.682 160.623 161.694 160.637C161.705 160.676 161.717 160.69 161.728 160.716Z" fill="url(#paint13_linear_75_903)"></path> <path d="M174.939 120.826C173.698 121.739 172.469 122.651 171.228 123.577C156.986 115.826 145.098 111.091 135.472 108.459C128.71 106.621 119.571 104.505 108.704 103.381C108.693 103.381 108.693 103.381 108.681 103.381C108.554 103.367 108.426 103.354 108.287 103.341C108.275 103.328 108.252 103.314 108.24 103.301C108.24 103.301 108.24 103.301 108.229 103.301C108.229 103.301 108.159 103.288 108.032 103.275C105.979 102.997 87.9675 100.749 68.7501 104.505C58.0338 106.608 41.8433 109.769 41.0199 116.977C40.2776 123.458 52.954 132.055 51.771 131.327H51.7594C39.6398 123.987 28.274 118.948 18.5898 115.853C18.6362 115.826 18.6942 115.8 18.7406 115.773C39.4542 105.444 56.4333 100.828 65.0156 99.2011C75.4536 97.2039 89.3709 96.5691 90.5423 96.5426C90.8554 96.5426 91.1801 96.5426 91.1801 96.5426C92.4559 96.5294 93.6853 96.5294 94.8682 96.5426C95.9468 96.5559 97.0138 96.5823 98.0808 96.6352C100.273 96.7013 102.442 96.8468 104.587 97.0188C105.643 97.0981 106.686 97.2039 107.73 97.3098C108.774 97.4288 109.795 97.5346 110.815 97.6536C110.85 97.6536 110.885 97.6536 110.908 97.6668C111.882 97.7859 112.856 97.9182 113.819 98.0504H113.842C113.842 98.0504 113.854 98.0504 113.865 98.0504C114.573 98.1562 115.28 98.262 115.976 98.3811C116.243 98.434 116.498 98.4604 116.765 98.5133C121.926 99.3862 126.031 100.378 129.116 101.132C130.972 101.582 132.607 102.018 133.941 102.389C134.799 102.64 135.542 102.852 136.133 103.023C136.319 103.076 136.493 103.142 136.655 103.182C136.98 103.288 137.246 103.367 137.42 103.42C137.42 103.42 137.42 103.42 137.432 103.42C137.838 103.553 138.244 103.672 138.65 103.804C139.473 104.068 140.297 104.333 141.108 104.611C141.92 104.902 142.72 105.179 143.509 105.457C143.903 105.603 144.298 105.748 144.681 105.894C145.063 106.026 145.458 106.171 145.84 106.317C145.991 106.356 146.142 106.436 146.281 106.489C146.977 106.753 147.65 107.018 148.334 107.282C148.844 107.494 149.343 107.679 149.842 107.891C149.934 107.93 150.027 107.97 150.108 108.01C150.468 108.155 153.82 109.623 155.095 110.166C155.188 110.205 155.281 110.245 155.35 110.271C155.455 110.311 155.536 110.351 155.571 110.364C158.064 111.488 160.361 112.612 162.425 113.671C162.924 113.922 163.399 114.173 163.863 114.411C164.803 114.901 165.684 115.39 166.531 115.853C167.053 116.144 168.989 117.215 171.599 118.776C172.492 119.331 173.628 120.006 174.939 120.826Z" fill="url(#paint14_linear_75_903)"></path> <defs> <linearGradient id="paint0_linear_75_903" x1="1.7777" y1="193.671" x2="161.543" y2="193.671" gradientUnits="userSpaceOnUse"> <stop stop-color="#0F1323"></stop> <stop offset="0.4142" stop-color="#3C9DC2"></stop> <stop offset="0.475" stop-color="#3A96BA"></stop> <stop offset="0.5657" stop-color="#3482A3"></stop> <stop offset="0.6751" stop-color="#2C6481"></stop> <stop offset="0.7991" stop-color="#214159"></stop> <stop offset="0.9337" stop-color="#141E30"></stop> <stop offset="0.9792" stop-color="#0F1323"></stop> </linearGradient> <linearGradient id="paint1_linear_75_903" x1="4.71651" y1="194.781" x2="57.7526" y2="194.781" gradientUnits="userSpaceOnUse"> <stop stop-color="#0F1323"></stop> <stop offset="0.4142" stop-color="#3C9DC2"></stop> <stop offset="0.475" stop-color="#3A96BA"></stop> <stop offset="0.5657" stop-color="#3482A3"></stop> <stop offset="0.6751" stop-color="#2C6481"></stop> <stop offset="0.7991" stop-color="#214159"></stop> <stop offset="0.9337" stop-color="#141E30"></stop> <stop offset="0.9792" stop-color="#0F1323"></stop> </linearGradient> <linearGradient id="paint2_linear_75_903" x1="0.00746932" y1="200.378" x2="161.743" y2="200.378" gradientUnits="userSpaceOnUse"> <stop offset="0.0659" stop-color="#61C0BE"></stop> <stop offset="0.4376" stop-color="#61BFBE"></stop> <stop offset="0.7201" stop-color="#3BBDDF"></stop> </linearGradient> <linearGradient id="paint3_linear_75_903" x1="5.08981" y1="197.883" x2="5.37081" y2="197.883" gradientUnits="userSpaceOnUse"> <stop stop-color="#0F1323"></stop> <stop offset="0.4142" stop-color="#3C9DC2"></stop> <stop offset="0.475" stop-color="#3A96BA"></stop> <stop offset="0.5657" stop-color="#3482A3"></stop> <stop offset="0.6751" stop-color="#2C6481"></stop> <stop offset="0.7991" stop-color="#214159"></stop> <stop offset="0.9337" stop-color="#141E30"></stop> <stop offset="0.9792" stop-color="#0F1323"></stop> </linearGradient> <linearGradient id="paint4_linear_75_903" x1="3.81374" y1="181.178" x2="5.8459" y2="181.178" gradientUnits="userSpaceOnUse"> <stop stop-color="#0F1323"></stop> <stop offset="0.4142" stop-color="#3C9DC2"></stop> <stop offset="0.475" stop-color="#3A96BA"></stop> <stop offset="0.5657" stop-color="#3482A3"></stop> <stop offset="0.6751" stop-color="#2C6481"></stop> <stop offset="0.7991" stop-color="#214159"></stop> <stop offset="0.9337" stop-color="#141E30"></stop> <stop offset="0.9792" stop-color="#0F1323"></stop> </linearGradient> <linearGradient id="paint5_linear_75_903" x1="4.71249" y1="186.448" x2="7.45312" y2="186.448" gradientUnits="userSpaceOnUse"> <stop stop-color="#0F1323"></stop> <stop offset="0.4142" stop-color="#3C9DC2"></stop> <stop offset="0.475" stop-color="#3A96BA"></stop> <stop offset="0.5657" stop-color="#3482A3"></stop> <stop offset="0.6751" stop-color="#2C6481"></stop> <stop offset="0.7991" stop-color="#214159"></stop> <stop offset="0.9337" stop-color="#141E30"></stop> <stop offset="0.9792" stop-color="#0F1323"></stop> </linearGradient> <linearGradient id="paint6_linear_75_903" x1="8.64635" y1="168.77" x2="10.0764" y2="168.77" gradientUnits="userSpaceOnUse"> <stop stop-color="#0F1323"></stop> <stop offset="0.4142" stop-color="#3C9DC2"></stop> <stop offset="0.475" stop-color="#3A96BA"></stop> <stop offset="0.5657" stop-color="#3482A3"></stop> <stop offset="0.6751" stop-color="#2C6481"></stop> <stop offset="0.7991" stop-color="#214159"></stop> <stop offset="0.9337" stop-color="#141E30"></stop> <stop offset="0.9792" stop-color="#0F1323"></stop> </linearGradient> <linearGradient id="paint7_linear_75_903" x1="113.114" y1="31.6682" x2="117.541" y2="31.6682" gradientUnits="userSpaceOnUse"> <stop offset="0.0659" stop-color="#61C0BE"></stop> <stop offset="0.4376" stop-color="#61BFBE"></stop> <stop offset="0.7201" stop-color="#3BBDDF"></stop> </linearGradient> <linearGradient id="paint8_linear_75_903" x1="55.6134" y1="31.8544" x2="180.156" y2="31.8544" gradientUnits="userSpaceOnUse"> <stop offset="0.0659" stop-color="#61C0BE"></stop> <stop offset="0.4376" stop-color="#61BFBE"></stop> <stop offset="0.7201" stop-color="#3BBDDF"></stop> </linearGradient> <linearGradient id="paint9_linear_75_903" x1="112.928" y1="10.3535" x2="194.035" y2="63.2761" gradientUnits="userSpaceOnUse"> <stop offset="0.0855" stop-color="#0F1323"></stop> <stop offset="0.595" stop-color="#3994B7"></stop> <stop offset="0.617" stop-color="#368AAC"></stop> <stop offset="0.8828" stop-color="#1A2D42"></stop> <stop offset="1" stop-color="#0F1323"></stop> </linearGradient> <linearGradient id="paint10_linear_75_903" x1="178.867" y1="60.9171" x2="179.696" y2="60.9171" gradientUnits="userSpaceOnUse"> <stop offset="0.076" stop-color="#0F1323"></stop> <stop offset="0.5573" stop-color="#3C9DC2"></stop> <stop offset="0.6038" stop-color="#3A96BA"></stop> <stop offset="0.6732" stop-color="#3482A3"></stop> <stop offset="0.7565" stop-color="#2C6582"></stop> <stop offset="0.8391" stop-color="#23465F"></stop> </linearGradient> <linearGradient id="paint11_linear_75_903" x1="63.4009" y1="76.7861" x2="177.668" y2="43.7009" gradientUnits="userSpaceOnUse"> <stop offset="0.076" stop-color="#0F1323"></stop> <stop offset="0.5573" stop-color="#3C9DC2"></stop> <stop offset="0.6038" stop-color="#3A96BA"></stop> <stop offset="0.6732" stop-color="#3482A3"></stop> <stop offset="0.7565" stop-color="#2C6582"></stop> <stop offset="0.8391" stop-color="#23465F"></stop> </linearGradient> <linearGradient id="paint12_linear_75_903" x1="45.9084" y1="122.037" x2="168.788" y2="72.5602" gradientUnits="userSpaceOnUse"> <stop offset="0.07" stop-color="#0B7372"></stop> <stop offset="0.44" stop-color="#61C0BE"></stop> <stop offset="0.72" stop-color="#86CEE1"></stop> </linearGradient> <linearGradient id="paint13_linear_75_903" x1="32.8786" y1="115.574" x2="162.409" y2="148.691" gradientUnits="userSpaceOnUse"> <stop offset="0.1303" stop-color="#237085"></stop> <stop offset="0.2125" stop-color="#2A7B94"></stop> <stop offset="0.48" stop-color="#3994B9"></stop> <stop offset="0.58" stop-color="#3586A7"></stop> <stop offset="0.71" stop-color="#2C6986"></stop> <stop offset="0.84" stop-color="#1D4057"></stop> <stop offset="0.98" stop-color="#0F1323"></stop> </linearGradient> <linearGradient id="paint14_linear_75_903" x1="18.5982" y1="113.942" x2="174.943" y2="113.942" gradientUnits="userSpaceOnUse"> <stop stop-color="#0F1323"></stop> <stop offset="0.4142" stop-color="#3C9DC2"></stop> <stop offset="0.475" stop-color="#3A96BA"></stop> <stop offset="0.5657" stop-color="#3482A3"></stop> <stop offset="0.6751" stop-color="#2C6481"></stop> <stop offset="0.7991" stop-color="#214159"></stop> <stop offset="0.9337" stop-color="#141E30"></stop> <stop offset="0.9792" stop-color="#0F1323"></stop> </linearGradient> </defs> </svg> 