<?xml version="1.0" encoding="UTF-8"?> <svg xmlns="http://www.w3.org/2000/svg" viewBox="1550 1700 800 1200" width="100%" height="100%" data-guides="{&quot;vertical&quot;:[],&quot;horizontal&quot;:[]}"><path fill="url(#tSvgGradientbc62349c28)" stroke="none" fill-opacity="1" stroke-width="1" stroke-opacity="1" color="rgb(51, 51, 51)" font-size-adjust="none" id="tSvg1191c25d85a" title="Path 31" d="M 2263.756269309564 2483.843261576901 C 2263.2623995111244 2484.292562151231 2262.7216972317983 2484.7370315365883 2262.1767374542083 2485.186332110914C 2234.7712211390826 2508.574117920852 2206.825002544631 2531.9570725418225 2178.3849141517358 2555.34485835176C 2178.3849141517358 2555.34485835176 2178.3849141517358 2555.34485835176 2178.333824172589 2555.34485835176C 2134.783874446406 2589.467546055871 1893.6736585994804 2735.664155515603 1883.8477783596654 2740.780384636183C 1862.2205386862804 2752.0901980179347 1846.518459344689 2760.2694009463003 1834.2236558625038 2766.2745688375935C 1833.9273339834413 2766.462985207475 1833.5816251245335 2766.5934273096987 1833.2359162656253 2766.719038222951C 1832.396337608279 2767.105533340654 1831.5077977209141 2767.5500027260123 1830.6682190635663 2767.936497843715C 1830.4212841643466 2768.0621087569666 1830.1743492651267 2768.124914213593 1829.977227095577 2768.25535631582C 1826.0266944578887 2770.1057016918166 1822.3729094490884 2771.767630697934 1818.867285379822 2773.3039487908C 1818.8178983999767 2773.3039487908 1818.8178983999767 2773.3039487908 1818.7685114201347 2773.3667542474263C 1817.6326108837231 2773.8112236327834 1816.5465230769823 2774.3233296637386 1815.4600095204164 2774.772630238065C 1814.423308693519 2775.2170996234217 1813.4355690966402 2775.6035947411247 1812.4482552495872 2775.985258669857C 1809.1891403297132 2777.265523747243 1806.028799369527 2778.540957635661 1802.9182711390117 2779.6907806108243C 1801.7329836227568 2780.1400811851536 1800.548121856328 2780.5845505705074 1799.4122213199173 2780.971045688213C 1796.4498540289321 2781.99042656115 1793.4870609881223 2783.01463862306 1790.3765327576054 2783.971214039372C 1778.0319165457515 2787.8699835391926 1761.737619195859 2793.049018116399 1743.7147775514297 2797.0105930728428C 1743.4184556723646 2797.073398529469 1743.0727468134567 2797.199009442722 1742.7764249343932 2797.199009442722C 1738.6287701271547 2798.029973945782 1735.2713069974195 2798.604885433363 1732.8517707348924 2799.0541860076924C 1710.78004824291 2802.75970794866 1693.9424941147347 2803.3974248928675 1681.153820834111 2802.634097035407C 1681.0056598945791 2802.634097035407 1680.8574989550466 2802.634097035407 1680.7587249953592 2802.634097035407C 1669.5500093199153 2801.672690430123 1658.5882285436908 2799.3730444797948 1648.3174397354537 2795.281027421128C 1648.1198918160794 2795.2182219644983 1647.9227696465298 2795.092611051246 1647.6758347473099 2795.0298055946196C 1625.3077903762653 2784.932620644657 1614.1978486605087 2770.8110552816215 1610.3958175622115 2765.6996573500155C 1608.4701085231404 2763.0811529275843 1606.7419048284644 2760.3950118595562 1605.161819498336 2757.8393128937514C 1604.1249057965276 2756.0517729743783 1603.1373364995775 2754.2594018660366 1602.199154182474 2752.4718619466635C 1597.6564461114663 2743.5921366174634 1594.8419843101176 2735.1568806736186 1592.7187699266542 2728.3835537358914C 1592.5212645822614 2727.7410056027124 1592.2743722580242 2727.040483201879 1592.0768243386478 2726.402766257668C 1592.0768243386478 2726.335129612071 1592.0274373588043 2726.2095186988186 1592.0274373588043 2726.146713242189C 1580.4730979744177 2688.188061494887 1583.435720715297 2654.002568334153 1584.917074660721 2638.0934630517463C 1584.966419065581 2637.4557461075383 1585.0652356002518 2636.880834619955 1585.1146225800956 2636.243117675747C 1585.1146225800956 2636.175481030152 1585.1146225800956 2636.112675573523 1585.1146225800956 2636.112675573523C 1586.7440523150856 2621.7978626516388 1589.3116643671785 2609.405862940321 1591.583039690173 2599.946394934563C 1591.7311580547232 2599.245872533729 1591.8793189942558 2598.6033244005503 1592.0768243386478 2597.9656074563427C 1594.4963180261923 2588.5109706395588 1597.409596362211 2578.732644161698 1600.7178853870166 2567.485636236572C 1600.7178853870166 2567.3600253233194 1600.7671872168946 2567.2923886777226 1600.8165741967384 2567.16677776447C 1602.8410571954967 2560.6495038422195 1605.2605934580245 2553.045212401432 1607.9763664496504 2544.9288149296913C 1609.062667131304 2541.6725935630534 1610.0996234080947 2538.5419831096674 1611.0871501300612 2535.6674256717606C 1611.1365371099064 2535.6674256717606 1611.1364519599401 2535.5997890261633 1611.1364519599401 2535.5997890261633C 1611.5314626487263 2534.512771507626 1611.8771289326514 2533.4933906346846 1612.222752641594 2532.469178572777C 1612.3708710061426 2532.0875146440458 1612.469730115796 2531.7058507153138 1612.6178484803456 2531.319355597614C 1614.0004284660806 2527.5510282000178 1615.185417957457 2524.289975644408 1616.123600274562 2521.797082135233C 1612.8646982295998 2531.5754086130905 1609.803258954049 2543.1412750103214 1607.7293889754471 2556.17582285482C 1607.7293889754471 2556.238628311447 1607.6801297205516 2556.36907041367 1607.6801297205516 2556.4946813269225C 1607.6307427407064 2556.5574867835517 1607.6307001657242 2556.6879288857754 1607.6307001657242 2556.813539799028C 1607.531926206037 2557.3256458299825 1607.3837652665045 2557.8377518609377 1607.2849913068171 2558.34985789189C 1607.3837652665045 2557.774946404312 1607.4332373963139 2557.1372294601047 1607.5319687810193 2556.5574867835517C 1607.0382267075277 2558.987574836101 1606.4456680993658 2561.4804683452794 1605.9518834508922 2564.036167311081C 1605.5568727621046 2566.0797602459334 1605.1124325184921 2568.1909898263802 1604.6680348498621 2570.4278303200763C 1602.347272547023 2580.0080780501157 1600.4215635079531 2589.786404527974 1598.9402095625298 2599.5647310058343C 1598.1995751648012 2604.4828813785903 1597.5576295767953 2609.405862940321 1597.0638449283217 2614.2612078564507C 1596.9157265637712 2615.9231368625688 1596.7676081992227 2617.51742922309 1596.619489834674 2619.179358229207C 1596.2738235507477 2623.459791657756 1596.07640335632 2627.677419629678 1595.9282849917709 2631.8950476016007C 1595.9282849917709 2632.0657496119193 1595.9282849917709 2632.236451622238 1595.9282849917709 2632.407153632557C 1595.829511032082 2637.6441624774175 1595.8788980119273 2642.823197054624 1596.22452172087 2647.8717895296036C 1596.2739087007135 2649.084417961397 1596.3726400854187 2650.364683038783 1596.5207584499676 2651.577311470571C 1596.7676507742049 2654.451868908481 1597.063930078286 2657.2008154331356 1597.4589407670721 2659.944930768819C 1597.557714726761 2660.775895271879 1597.6564886864483 2661.606859774937 1597.8046496259808 2662.375018821371C 1598.0515419502178 2663.9741423708624 1598.3476935293497 2665.505629274757 1598.6439728334324 2667.104752824249C 1599.0389835222174 2669.085540302472 1599.4834663408128 2671.0663277806925 1599.9772509892878 2672.9843098022893C 1599.9772509892878 2673.0471152589157 1600.0265102441833 2673.172726172168 1600.0265102441833 2673.235531628794C 1601.458477209762 2678.7962301347325 1603.2361104592665 2684.1008756251913 1605.458056227435 2689.086662643545C 1605.902453896065 2690.106043516487 1606.3962385445395 2691.130255578397 1606.8406362131695 2692.086830994707C 1608.9144636167885 2696.8793704542113 1611.333914729352 2701.415856898239 1614.1978060855265 2705.6962903267877C 1648.169278795923 2756.5590478163617 1719.5198406759855 2737.2004736084677 1744.2580343297127 2730.5527575839933C 1744.8012911079945 2730.427146670741 1745.3441221364524 2730.233899111892 1745.9367658945805 2730.0454827420094C 1746.2330877736438 2729.915040639786 1746.4800226728635 2729.8522351831593 1746.8257315317708 2729.789429726534C 1747.3191755803837 2729.6589876243065 1747.8130453788228 2729.5333767110546 1748.3069151772625 2729.3401291522014C 1773.3903919400734 2721.3541737826886 1803.1158190583874 2701.671909913715 1815.657557439791 2692.8549900411413C 1815.75633139948 2692.8549900411413 1815.8551053591666 2692.7245479389176 1815.9538793188553 2692.6617424822916C 1819.6076643276542 2690.168848973113 1821.681491731274 2688.574556612592 1821.681491731274 2688.5117511559633C 1821.6321047514296 2688.444114510366 1821.6321047514296 2688.444114510366 1821.582717771585 2688.3813090537406C 1821.582717771585 2688.3603739015307 1821.582717771585 2688.33943874932 1821.582717771585 2688.3185035971137C 1814.7192048227573 2677.2647432308377 1804.5970027038793 2660.331425886522 1792.9438042098393 2638.987233011433C 1785.339912313175 2625.0589152072475 1779.8588090501516 2614.2612078564507 1776.0074761219746 2606.7197218722895C 1752.9978267627853 2561.287220786426 1723.9638173622866 2501.6075434242753 1715.0264770098383 2483.2055446326945C 1772.2549171534874 2513.2990207347584 1871.009718099198 2554.388282935447 1997.069984150868 2552.7891593859554C 1997.514466969465 2552.7891593859554 1997.958949788059 2552.7891593859554 1998.4034326066549 2552.7891593859554C 2115.7230547256004 2550.9388140099586 2207.9617545806927 2513.042967719283 2263.756269309564 2483.843261576901Z"></path><path fill="url(#tSvgGradient11d7c7eee16)" stroke="none" fill-opacity="1" stroke-width="1" stroke-opacity="1" color="rgb(51, 51, 51)" font-size-adjust="none" id="tSvg11a553dcf05" title="Path 32" d="M 1821.9054361398762 2688.772635360414 C 1821.9054361398762 2688.83544081704 1821.9054361398762 2688.83544081704 1821.9054361398762 2688.83544081704C 1821.8560491600322 2688.83544081704 1821.559727280969 2689.0914938325186 1821.5103403011253 2689.0914938325186C 1799.5373917688312 2703.85077613976 1788.5262240127636 2711.266651210665 1782.7492246205009 2714.5228725773036C 1767.5904020571934 2723.020933977775 1755.098050655632 2727.43180950855 1748.530859585865 2729.538207900025C 1747.888828847895 2729.731455458875 1747.3949590494556 2729.9247030177285 1747.0496759403734 2729.987508474355C 1747.033213613759 2729.987508474355 1747.0167512871444 2729.987508474355 1747.00028896053 2729.987508474355C 1746.7039670814665 2730.0503139309812 1746.457032182247 2730.1807560332045 1746.1607103031824 2730.243561489834C 1745.6174535248992 2730.369172403086 1745.074196746616 2730.562419961937 1744.5313657181582 2730.688030875188C 1719.842559044274 2737.3357468996633 1648.443035934196 2756.6991522965286 1614.4712226239374 2705.768758161357C 1611.607331267763 2701.4883247328075 1609.1878801552007 2696.9518382887827 1607.1140527515822 2692.2221042859014C 1606.6202681031073 2691.202723412966 1606.1758278594948 2690.241316807682 1605.6820432110203 2689.284741391369C 1605.6820432110203 2689.263806239159 1605.6820432110203 2689.242871086953 1605.6820432110203 2689.2219359347423C 1603.4600548678693 2684.2989543730123 1601.7318937481743 2679.061945528153 1600.2999267825958 2673.6268579354683C 1600.2999267825958 2673.5640524788414 1600.2504972277686 2673.43844156559 1600.2504972277686 2673.3756361089636C 1599.7567551542777 2671.457654087367 1599.31240006063 2669.4768666091463 1598.9173893718437 2667.4960791309195C 1598.6211100677624 2665.959761038057 1598.3247881886991 2664.3654686775367 1598.0778958644614 2662.766345128045C 1597.929777499913 2661.9353806249846 1597.8309609652417 2661.16722157855 1597.7322295805368 2660.336257075493C 1597.3371763167684 2657.59214173981 1597.040897012687 2654.780389758527 1596.7940472634318 2651.9686377772455C 1596.695273303743 2650.751178156485 1596.5965419190395 2649.4757442680675 1596.497767959351 2648.2631158362774C 1596.1521442504084 2643.2145233612982 1596.1027572705648 2637.9726833274653 1596.2015312302535 2632.7984799392298C 1596.2015312302535 2632.627777928911 1596.2015312302535 2632.4570759185935 1596.2015312302535 2632.286373908275C 1596.3496495948018 2628.0687459363517 1596.5472400891601 2623.85111796443 1596.8928637981028 2619.570684535879C 1597.041024737634 2617.908755529763 1597.1891431021827 2616.31446316924 1597.3372614667328 2614.652534163122C 1597.8310461152078 2609.797189246992 1598.4729491282312 2604.8742076852645 1599.2136261009423 2599.956057312505C 1600.694937471382 2590.177730834648 1602.6700760652777 2580.39940435679 1604.9414088132917 2570.8191566267506C 1605.3858064819215 2568.6451215896777 1605.8301190005868 2566.5338920092336 1606.2251296893728 2564.427493617755C 1606.7683013176916 2561.871794651953 1607.31147294601 2559.3789011427752 1607.8052575944837 2556.9488130902228C 1607.7064836347965 2557.5285557667785 1607.657181804917 2558.1662727109856 1607.5584078452298 2558.741184198565C 1606.2252148393386 2568.070210102096 1605.3363769270954 2578.1673950520617 1605.3363769270954 2588.9022969462294C 1605.3363769270954 2592.4773767849756 1602.4230985910758 2648.3887267495306 1627.4080142691105 2681.3615914784796C 1649.134027902185 2709.9863861332788 1681.8218223114825 2708.3244571271603 1696.8818709151024 2707.561129269698C 1749.419825223057 2704.87498820167 1797.7104992644324 2660.592310090969 1802.2038629305775 2656.3118766624207C 1802.450797829798 2656.1234602925415 1802.5495717894867 2655.9930181903183 1802.5495717894867 2655.9930181903183C 1809.0015265729494 2666.9195572470167 1815.453481356414 2677.8460963037155 1821.9054361398762 2688.772635360414Z"></path><path fill="url(#tSvgGradient190dc9b76dd)" stroke="none" fill-opacity="1" stroke-width="1" stroke-opacity="1" color="rgb(51, 51, 51)" font-size-adjust="none" id="tSvg15054792fd6" title="Path 33" d="M 2264.6162839585722 2483.142739176065 C 2264.5651939794243 2483.273181278289 2264.4672715193838 2483.3987921915436 2264.420439038498 2483.5244031047964C 2264.420439038498 2483.5244031047964 2264.420439038498 2483.5244031047964 2264.3693490593523 2483.5920397503933C 2264.3693490593523 2483.5920397503933 2264.3693490593523 2483.5920397503933 2264.3693490593523 2483.6548452070197C 2264.271426599316 2483.848092765873 2264.2203366201666 2484.0365091357517 2264.122414160133 2484.229756694604C 2250.0002924237215 2512.535692877298 2231.0373951629495 2548.320309587525 2206.89312251683 2588.066501254201C 2196.773049147081 2604.8065710396645 2176.6265673693624 2637.136887635433 2143.7884832714017 2682.7626362801493C 2111.5464489301758 2727.6153946894574 2062.018971643572 2792.2808590699647 1993.287622694544 2868.000083816746C 1993.287622694544 2868.000083816746 1971.6599572713328 2850.30343861497 1961.1426593137037 2841.3560766401692C 1957.5382612847486 2838.28827164341 1951.5143269932653 2833.1140682551745 1944.354492165372 2826.659599789553C 1935.6146997322985 2818.736449876663 1923.7639533188838 2807.6826895103877 1909.8891922315179 2793.430682045128C 1891.4218677684926 2804.74049542688 1862.33847138815 2820.3355734261545 1825.1573133127047 2831.1960862335777C 1777.9033400982262 2844.9987931245105 1686.4565349199406 2871.77324240331 1624.537183190769 2809.088565501029C 1616.340604960996 2800.778920470436 1588.3929813921159 2772.4729842877423 1579.0112987185141 2724.5524208816696C 1575.1104851455334 2704.6769094538486 1575.8510433340432 2688.642193258188 1576.5917028510116 2671.0035223240657C 1578.5174204050784 2625.6386578838005 1589.8248632077295 2591.3855280774656 1599.157214248964 2563.8477509412055C 1608.1438990062752 2537.1989125756545 1617.5256370273546 2516.6905153925945 1618.5132063243032 2515.4102503152058C 1618.5296260759355 2515.3893151629986 1618.546045827568 2515.3683800107888 1618.562465579199 2515.347444858579C 1618.7107968186615 2515.4102503152058 1617.821873756454 2517.7098962655336 1616.2911754061702 2521.801913324204C 1615.3529930890654 2524.294806833379 1614.1679610227052 2527.5510282000178 1612.7854236119545 2531.3241867865854C 1612.637262672422 2531.7058507153138 1612.4890591579071 2532.0875146440458 1612.39028519822 2532.4740097617478C 1612.0446614892774 2533.4933906346846 1611.6496508004911 2534.5176026965946 1611.3039845165652 2535.6046202151338C 1611.3039845165652 2535.6046202151338 1611.3041122415145 2535.6674256717606 1611.2547252616691 2535.6674256717606C 1608.2920599458075 2543.909434056756 1604.7861804266438 2554.388282935447 1601.2803860574452 2566.210202348157C 1601.1816546727403 2566.5290608202595 1601.0828807130529 2566.9155559379615 1600.9841493283466 2567.234414410067C 1600.934762348503 2567.3600253233194 1600.8854179436428 2567.4228307799463 1600.8854179436428 2567.55327288217C 1597.5771714938205 2578.800280807298 1594.663893157801 2588.5737760961842 1592.2443994702567 2598.03324410194C 1592.0962811057077 2598.670961046148 1591.9481201661754 2599.308677990355 1591.7506148217817 2600.014031580163C 1588.7879495059194 2611.768314347273 1586.6153481426127 2623.1457643746253 1585.2821551367217 2636.180312219121C 1585.2821551367217 2636.180312219121 1585.2821551367217 2636.243117675747 1585.2821551367217 2636.305923132376C 1585.2328107318601 2636.948471265555 1585.1339941971892 2637.523382753136 1585.084607217347 2638.161099697344C 1583.553908867062 2654.070204979749 1580.640673106026 2688.3185035971137 1592.1949699154304 2726.2095186988186C 1592.1949699154304 2726.2771553444163 1592.2443994702567 2726.402766257668 1592.2443994702567 2726.465571714295C 1592.4419048146501 2727.108119847474 1592.639452734025 2727.7458367916843 1592.8863450582623 2728.4463591925173C 1595.0095594417257 2735.4129336890946 1597.8239786680906 2743.7853841763144 1602.3666867390991 2752.5394985922635C 1603.3048690562036 2754.3270385116343 1604.2924383531522 2756.1145784310074 1605.329352054962 2757.9069495393496C 1606.9094373850892 2760.52545396178 1608.6376410797666 2763.1439583842107 1610.5633501188374 2765.762462806641C 1614.3654237921166 2770.8786919272184 1625.475535807803 2785.000257290255 1647.8435801788485 2795.092611051246C 1648.040702348398 2795.2230531534697 1648.2382502677742 2795.2858586100956 1648.4851851669941 2795.3486640667224C 1654.0646366398803 2797.8415575759 1663.9403296093649 2801.547079516871 1680.9260446770718 2802.6969024920336C 1681.074205616604 2802.6969024920336 1681.2223665561364 2802.6969024920336 1681.3211405158236 2802.6969024920336C 1694.109813796448 2803.5278669950912 1710.94779367445 2802.827344594257 1733.0195161664299 2799.12182265329C 1735.4386266791319 2798.735327535587 1738.7965155586937 2798.0976105913796 1742.9441703659334 2797.266646088322C 1743.2404922449964 2797.266646088322 1743.5862011039037 2797.1410351750665 1743.882097233142 2797.073398529469C 1772.767945694108 2789.5995491909057 1803.0855908207234 2779.695611799795 1803.0855908207234 2779.695611799795C 1847.9698405023455 2760.6510648750323 1880.5094739721112 2742.9544196732563 1902.3342615648728 2729.9198718287576C 1917.3449231886486 2720.9725098539566 1961.883464011363 2693.623149087573 1968.1543332020647 2689.7920162333526C 1981.9307460795683 2681.3567602895073 1993.2378099648743 2674.3901857929313 1997.385890521939 2671.8344868271265C 2056.4416489198165 2635.34934771606 2085.9673993696233 2617.135765294358 2120.7809626613425 2593.240704642436C 2173.3184912194693 2557.1372294601047 2214.795039291859 2524.232001376753 2238.790299498797 2504.549737507783C 2249.4553326461337 2495.9212340050876 2258.3449890180423 2488.4473846665264 2264.6162839585722 2483.142739176065Z"></path><path fill="url(#tSvgGradient7d28267f6b)" stroke="none" fill-opacity="1" stroke-width="1" stroke-opacity="1" color="rgb(51, 51, 51)" font-size-adjust="none" id="tSvgaba1a0eede" title="Path 34" d="M 1598.032170333123 2662.312213364745 C 1597.884009393592 2661.4812488616844 1597.785405733835 2660.7130898152527 1597.6866317741465 2659.882125312193C 1597.8347501386952 2660.775895271879 1597.933438948418 2661.669665231566 1598.0815998879502 2662.5682663802218C 1598.3284922121877 2664.099753284115 1598.575384536424 2665.568434731383 1598.8716212655227 2667.0371161786506C 1598.52599755658 2665.505629274757 1598.2790626573603 2663.9065057252656 1598.032170333123 2662.312213364745Z"></path><path fill="url(#tSvgGradientc7d1e5347e)" stroke="none" fill-opacity="1" stroke-width="1" stroke-opacity="1" color="rgb(51, 51, 51)" font-size-adjust="none" id="tSvg89b724ba1f" title="Path 35" d="M 1600.8893774170263 2567.490467425543 C 1597.5810883922218 2578.732644161698 1594.667852631186 2588.5109706395588 1592.24835894364 2597.970438645314C 1593.532164969687 2592.791404068107 1594.667852631186 2588.6414127417847 1595.5072609886022 2585.6364132016483C 1596.3960563258618 2582.5058027482623 1598.272378385089 2575.9885288260148 1600.8893774170263 2567.490467425543Z"></path><path fill="url(#tSvgGradient1256646f8b9)" stroke="none" fill-opacity="1" stroke-width="1" stroke-opacity="1" color="rgb(51, 51, 51)" font-size-adjust="none" id="tSvg15da010e9a" title="Path 36" d="M 1606.20788682141 2564.2342460589052 C 1605.7634891527803 2566.2778389937544 1605.3191766341147 2568.451874030827 1604.9241659453287 2570.621077878929C 1602.6528331973163 2580.206156797937 1600.6776946034195 2589.9844832757976 1599.1963832329795 2599.7579785646867C 1598.4557062602687 2604.6809601264117 1597.813845822227 2609.5991104991713 1597.369448153597 2614.4544554153003C 1597.1719428092033 2616.053578964793 1597.0731262745337 2617.71550797091 1596.8756209301398 2619.314631520402C 1596.5299972211974 2623.5950649489505 1596.2830197469953 2627.8126929208734 1596.1842883622903 2632.0303208927958C 1596.1842883622903 2632.1994125067895 1596.1842883622903 2632.3685041207864 1596.1842883622903 2632.53759573478C 1596.0855144026018 2637.779435768613 1596.1349013824467 2642.953639156848 1596.480525091388 2648.002231631831C 1596.5299120712316 2649.21486006362 1596.628643455938 2650.495125141009 1596.7767618204869 2651.707753572795C 1596.974309739863 2654.456700097453 1597.2706741939087 2657.205646622107 1597.6656848826947 2659.886956501164C 1597.2706741939087 2657.13800997651 1596.9743948898272 2654.3262579952257 1596.72750256559 2651.5193372029166C 1596.6287711808861 2650.3018775821565 1596.5299972211974 2649.026443693741 1596.4312658364925 2647.808984072978C 1596.0855995525676 2642.76522278697 1596.0362551477065 2637.523382753136 1596.1349865324112 2632.349179364901C 1596.1349865324112 2632.1784773545824 1596.1349865324112 2632.0077753442647 1596.1349865324112 2631.8370733339466C 1596.2831474719435 2627.6194453620237 1596.48056766637 2623.401817390101 1596.826191375314 2619.121383961552C 1596.974352314845 2617.459454955434 1597.1224706793953 2615.86033140594 1597.270589043944 2614.198402399824C 1597.7643736924174 2609.343057483695 1598.4062767054413 2604.424907110936 1599.1469536781524 2599.501925549205C 1600.628265048592 2589.728430260318 1602.603403642489 2579.9501037824575 1604.8747363905013 2570.3650248634503C 1605.3191340591322 2568.1958210153484 1605.763574302746 2566.084591434902 1606.1586275665145 2563.9781930434256C 1606.7017566198494 2561.4224940776244 1607.2448005232202 2558.929600568446 1607.738585171695 2556.499512515894C 1607.6398112120062 2557.074424003478 1607.5905093821268 2557.7169721366568 1607.4917354224394 2558.291883624238C 1607.0473377538094 2560.2726711024584 1606.6028975101976 2562.253458580682 1606.20788682141 2564.2342460589052Z"></path><path fill="url(#tSvgGradientd628cab895)" stroke="none" fill-opacity="1" stroke-width="1" stroke-opacity="1" color="rgb(51, 51, 51)" font-size-adjust="none" id="tSvg130e4b3abac" title="Path 37" d="M 1616.3265977917133 2521.739107867575 C 1615.3884580495906 2524.232001376753 1614.2032556833014 2527.4930539323627 1612.8207182725494 2531.2613813299563C 1615.0427066157004 2524.8745495099347 1616.968415654771 2519.5070985628467 1618.5485009848983 2515.2894705909275C 1618.6967470743969 2514.9657809298506 1618.7955210340838 2514.6469224577454 1618.8942949937712 2514.3280639856434C 1618.8942949937712 2514.3908694422694 1618.8449080139274 2514.5213115444926 1618.8449080139274 2514.5213115444926C 1618.7955210340838 2514.6469224577454 1618.7955210340838 2514.7773645599686 1618.7461340542388 2514.9029754732214C 1618.6967470743969 2514.9657809298506 1618.6473600945515 2515.096223032074 1618.5979731147079 2515.2894705909275C 1617.8079091621519 2517.3330635257735 1617.0672747644244 2519.5070985628467 1616.3265977917133 2521.739107867575Z"></path><path fill="url(#tSvgGradientceb0fd78ba)" stroke="none" fill-opacity="1" stroke-width="1" stroke-opacity="1" color="rgb(51, 51, 51)" font-size-adjust="none" id="tSvg1187a3f8273" title="Path 38" d="M 2076.443375756615 1882.1186752046885 C 2070.1720808160853 1866.8468037475914 2063.9007858755567 1852.3421250991362 2057.57840095588 1838.7316995292642Z"></path><path fill="url(#tSvgGradient16a18cd85a2)" stroke="none" fill-opacity="1" stroke-width="1" stroke-opacity="1" color="rgb(51, 51, 51)" font-size-adjust="none" id="tSvg59893753cc" title="Path 39" d="M 2341.851559936933 2011.7684624378035 C 2341.7848591308216 2007.2955866485663 2341.7181583247107 2002.822710859328 2341.651457518602 1998.34983507009C 2340.9617428000915 1961.4168447413897 2337.0107844125764 1941.097347047107 2333.902810681016 1925.825475590012C 2331.135436810451 1912.2150500201406 2327.827360660558 1901.0332631461233 2327.827360660558 1901.0332631461233C 2327.184478422936 1898.796905771323 2325.1621667482927 1892.023578833596 2322.0499355184684 1883.588806008647C 2318.0989771309532 1872.7263607256343 2319.3336516270538 1875.7294277901788 2316.421522815566 1869.0841273601927C 2315.58279565787 1867.1671115763904 2306.199269487521 1845.5692812803054 2297.462883053056 1832.2149087259122C 2268.524667363463 1787.7418817697398 2229.7644031824902 1769.211373351522 2229.7644031824902 1769.211373351522C 2196.730474164458 1753.364493783067 2168.090283353232 1757.3261653632906 2150.7111754460784 1759.9461191424114C 2124.1443862886454 1763.971465793279 2096.6409475134824 1777.9654877674725 2041.5872374822702 1805.8887937836432C 2030.8242818749004 1811.383788119568 2022.032547963025 1815.9845293769154 2016.2551228209363 1819.1156229491976C 2016.2551228209363 1819.1156229491976 1985.2477629758114 1835.7291155836165 1953.7448303329406 1854.7069921005743C 1892.7638312208028 1891.5124390404326 1817.3643884931912 1947.4870775805155 1812.6734769076688 1951.00128443822C 1841.5099383887923 1910.426060744076 1871.383526446637 1869.4034689511939 1902.2938153313794 1827.9972807539891C 1932.4139125386205 1787.677626956423 1962.3364618264834 1748.699884207521 1991.9626892352826 1711.0000006038981C 1998.1352102161234 1721.479274627223 2004.4065051566529 1732.2780931514849 2010.6267101180317 1743.3963498905264C 2016.6510701593397 1754.0673351546068 2022.4795852805782 1764.6106320941778 2028.107997983483 1775.0899640917705C 2041.7830824023417 1766.5914195724004 2060.596967223928 1756.36765747139 2083.706667792283 1747.9331262058902C 2095.8022203557875 1743.5241348388147 2122.0709846348527 1734.0033107331249 2149.8213583092356 1732.8531495747354C 2163.104752887951 1732.2780931514849 2219.5932398335945 1729.9777708347008 2270.351134118035 1780.1375903289559C 2325.358011668361 1834.5150377951338 2336.6148370741707 1914.0045224150977 2340.2209381024295 1939.3721294654672C 2344.4699213683157 1968.1901716791162 2342.8392995338118 1994.6438300102272 2341.851559936933 2011.7684624378035Z"></path><path fill="url(#tSvgGradient13078603f97)" stroke="none" fill-opacity="1" stroke-width="1" stroke-opacity="1" color="rgb(51, 51, 51)" font-size-adjust="none" id="tSvg17b5be75226" title="Path 40" d="M 2337.5642591866877 1978.0298542569126 C 2334.605297894313 1957.1992167694664 2329.466497491588 1934.643361700381 2320.730111057124 1912.278821714558C 2315.0974408559537 1897.965458149364 2299.251032323269 1858.6043122436997 2265.3783761475406 1830.4892080253694C 2262.066042499388 1827.7417108574064 2250.8603070727263 1818.7320265448784 2234.8606286025943 1811.1919899174115C 2225.7751273106132 1806.9105902510678 2206.9144100081407 1798.3482740372765 2182.3231000444657 1799.0512120325996C 2166.425601532631 1799.4985801313385 2154.9175837293387 1803.6519532899413 2143.3627334451594 1807.9333529562846C 2127.4652349333246 1813.8119436965333 2104.3555343649678 1824.7381606739664 2078.780742302676 1846.2722192756273C 2088.8539831915373 1887.0392411719333 2096.3088626490144 1919.6908318342876 2101.247560633408 1944.4197557026523C 2100.898445775892 1944.547299091494 2101.0474582150764 1944.4835273970757 2100.7026008558205 1944.6753255992326C 2095.1721106129517 1928.253148048079 2089.0498281116074 1911.1285156204997 2082.088818452568 1893.428971705339C 2081.1010788556896 1890.9370444339552 2080.113339258811 1888.4446340436764 2079.1255996619316 1885.8889350778716C 2078.2357825250874 1883.652577703068 2077.3459653882446 1881.4162203282651 2076.460405749663 1879.2436346478826C 2070.189110809135 1863.9717631907854 2063.9178158686072 1849.4670845423304 2057.5954309489293 1835.856658972459C 2080.8541439564697 1817.9653168551356 2100.898445775892 1806.1438805613275 2115.61661726904 1798.412528850597C 2129.193779227863 1791.2556055085488 2137.538475822184 1787.9969685474243 2143.3159009642723 1786.016181069204C 2155.8074008661806 1781.607238014019 2168.7927705665297 1777.0702684510923 2186.371980892017 1777.325838347675C 2204.9389308143823 1777.5814082442548 2219.107885031679 1783.1406573934999 2225.234425031288 1785.8243828670452C 2233.9239789848634 1789.6584144346468 2240.3911188454636 1793.9393309820914 2244.686934592235 1796.814854657796C 2249.1785952590753 1799.81792172234 2259.354016106231 1806.9748450643847 2271.006788850446 1818.9238247470355C 2275.8433068765435 1823.907679289805 2282.0166793570384 1830.7447779219497 2288.632831656819 1839.6906905400597C 2288.632831656819 1839.7544622344803 2288.683921635967 1839.7544622344803 2288.683921635967 1839.7544622344803C 2289.9185961320686 1841.607706323862 2291.2980255690904 1843.5884938020854 2292.7328024835197 1845.5050264669908C 2296.236723553485 1850.6811623308135 2298.9019174657506 1854.9620788782584 2300.4814493211056 1857.6458043518C 2326.0604988816604 1900.7134384362264 2333.9113256775427 1946.2725166731343 2337.5642591866877 1978.0298542569126Z"></path><path fill="url(#tSvgGradientabcca546b0)" stroke="none" fill-opacity="1" stroke-width="1" stroke-opacity="1" color="rgb(51, 51, 51)" font-size-adjust="none" id="tSvg88e2ef2b8c" title="Path 41" d="M 1687.7394284552845 1755.8088748146158 C 1687.7032609756097 1754.3370517206304 1687.6159601626016 1752.7373642113416 1687.442605691057 1751.0370439514152C 1687.3846130081301 1750.4245388441648 1687.3122780487804 1749.7481015292628 1687.2256008130082 1749.0167861896307C 1687.587275609756 1751.4941073991974 1687.7176032520326 1753.8159869492963 1687.7394284552845 1755.8088748146158Z"></path><path fill="url(#tSvgGradientdc2cd7cee5)" stroke="none" fill-opacity="1" stroke-width="1" stroke-opacity="1" color="rgb(51, 51, 51)" font-size-adjust="none" id="tSvg16a59b64dcb" title="Path 42" d="M 2340.4934179912234 2060.007401197083 C 2340.5445079703736 2060.007401197083 2340.5913404512603 2058.4739818175995 2340.7403528904456 2055.470431634159C 2340.889365329631 2052.8509609739313 2341.0383777688135 2049.016929406329 2341.136300228851 2044.1606182524044C 2341.2342226888854 2038.4738257143179 2341.2342226888854 2032.4034367719103 2341.136300228851 2026.0137062385047C 2341.136300228851 2025.8219080363456 2341.136300228851 2025.6301098341833 2341.136300228851 2025.4383116320275C 2340.936197810517 2011.5085444711503 2340.050638171934 1995.3424199354743 2337.6281216606244 1978.0259893057357C 2333.9751881514762 1946.2686517219604 2326.124361355595 1900.709090366151 2300.5453117950424 1857.641939400624C 2298.965779939687 1854.9582139270817 2296.3516760065663 1850.6768142607382 2292.7966649574564 1845.5011615158116C 2291.561990461358 1843.6484005453297 2290.178303526077 1841.731384761527 2288.7477841099067 1839.7505972833046C 2288.6966941307583 1839.7505972833046 2288.6966941307583 1839.6868255888835 2288.6966941307583 1839.6868255888835C 2281.386569614202 1829.7186333844534 2270.278756647575 1816.427549405582 2254.870870435916 1804.5428245362466C 2244.6017846269865 1796.6191915044574 2226.2817696038387 1782.689424343584 2200.2131077431077 1778.6640776927168C 2178.3380816708495 1775.2774142238545 2161.1037287046192 1780.3892952743593 2150.5366180173196 1783.4561340333246C 2136.9594560584974 1787.481963803088 2126.0474880119414 1793.0407298334364 2115.676222244714 1798.3444090861005C 2102.3970851642607 1805.117736023828 2092.3706767562862 1811.5712382516542 2085.6566019964675 1815.9801813068404C 2074.3997765906583 1823.2646480377277 2064.96941793942 1830.1655183642931 2057.6592934228656 1835.7890223268575C 2067.4345094333557 1857.7699659083623 2074.497699050693 1874.063633832881 2076.5200107253368 1879.175514883389C 2077.4098278621814 1881.3481005637682 2078.2996449990237 1883.5844579385719 2079.189462135868 1885.8212984322736C 2080.1772017327476 1888.3769973980754 2081.2117738105126 1890.8689246694623 2082.1526809265047 1893.3608519408426C 2088.568730807955 1909.7187746786815 2094.299323469158 1925.5655576233569 2099.4806988545097 1940.8374290804516C 2099.8766461929144 1941.9877351745126 2100.272593531318 1943.1375581496757 2100.6685408697213 1944.3516359381583C 2060.571422234352 1934.0003304483062 2008.8768783321818 1925.438014234515 1948.6839421484165 1927.7381433037397C 1895.7513177515357 1929.78318559528 1850.0279151623927 1939.559579597551 1813.488362075094 1950.7413664715637C 1818.2286606404602 1947.2271596138603 1893.6281033680718 1891.2525210737808 1954.5597155003666 1854.447074133921C 1986.0132611633917 1835.4691976169606 2017.0725624873196 1818.8557049825415 2017.0725624873196 1818.8557049825415C 2022.7988976502602 1815.7888662235773 2031.5863740638713 1811.123870152915 2042.4004196503909 1805.6288758169878C 2097.3604647198295 1777.705569800817 2124.8639034949924 1763.711547826623 2150.8857328748363 1759.7499728701807C 2168.017905882771 1757.1300190910551 2198.139706089316 1753.0407074982134 2232.553064544368 1770.2930765621918C 2239.2203068233002 1773.6159683366325 2270.870548906051 1790.2294609710511 2297.6842729627024 1832.018762453678C 2308.545151030107 1848.951596679095 2314.569511071417 1863.776100037453 2318.1756120996783 1872.7220126555592C 2339.1608210350932 1924.8626196280377 2341.0383777688135 1973.5532745561293 2341.7280924873244 1996.5564977239542C 2342.515729665867 2026.5886177260859 2340.3444055520413 2060.007401197083 2340.4934179912234 2060.007401197083Z"></path><path fill="url(#tSvgGradient11472da9a09)" stroke="none" fill-opacity="1" stroke-width="1" stroke-opacity="1" color="rgb(51, 51, 51)" font-size-adjust="none" id="tSvg16abdabcf59" title="Path 43" d="M 2340.9489703053027 2080.3940524180643 C 2340.5019329877496 2115.218228760804 2326.0349538920836 2262.3139224880892 2320.8024885275804 2291.1947701583676C 2320.8024885275804 2291.1319647017413 2320.7003085692854 2291.1319647017413 2320.6534760883987 2291.1319647017413C 2320.1596062899594 2290.808275040665 2319.712568972406 2290.4894165685605 2319.218699173967 2290.170558096457C 2315.3188307656 2287.3588061151772 2311.074104997979 2284.4214432206404 2306.629276812024 2281.4164436805067C 2300.064214491388 2276.9427626931083 2292.8520124348665 2272.217859879202 2285.052275618132 2267.2948783174716C 2281.4972645690227 2265.0580378237755 2277.69531862069 2262.7583918734467 2273.6932702540257 2260.3331350098665C 2271.7177910602686 2259.115675389106 2269.695479385625 2257.9030469573167 2267.570987752685 2256.7532239821535C 2258.732421359923 2251.5790205939184 2249.004037830316 2246.1439330012354 2238.3900946621307 2240.7764820541474C 2238.241082222947 2240.713676597522 2237.896224863691 2240.5204290386714 2237.4534450444016 2240.33201266879C 2237.155420166032 2240.2015705665663 2236.810562806778 2240.0131541966875 2236.3635254892233 2239.819906637835C 2230.935215204654 2237.133765569807 2216.6129910499085 2230.1092168055748 2215.13138165459 2229.40386321577C 2214.739691814448 2229.21061565692 2214.343744476045 2229.0221992870383 2213.9988871167893 2228.828951728185C 2211.925485462996 2227.8047396662787 2209.7499038509045 2226.910969706592 2207.578579737076 2225.891588833653C 2204.713283406475 2224.611323756263 2201.801154594987 2223.3358898678507 2198.837935804351 2222.0556247904615C 2198.1950535667274 2221.799571774982 2197.603261308252 2221.4807133028803 2196.9603790706287 2221.224660287401C 2195.3340147343883 2220.524137886567 2193.6523029207365 2219.818784296762 2192.0259385844956 2219.181067352552C 2190.395316749994 2218.4757137627466 2188.7178624346034 2217.775191361912 2187.036150620952 2217.069837772108C 2183.7280744710606 2215.7315984270635 2180.2709858819844 2214.388527893048 2176.81815479117 2212.9826519024086C 2173.3610662020947 2211.639581368393 2169.8528876338687 2210.364147479975 2166.3489665639077 2209.083882402588C 2164.6204222693696 2208.446165458381 2162.8918779748296 2207.8084485141703 2161.1633336802925 2207.2335370265923C 2161.1633336802925 2207.2335370265923 2161.1633336802925 2207.2335370265923 2161.116501199406 2207.2335370265923C 2160.3246065225985 2206.9774840111168 2159.238944465683 2206.59098889341 2157.8552575304006 2206.083714051427C 2157.1655428118893 2205.8904664925763 2156.4247381142304 2205.5716080204743 2155.6328434374236 2205.315555004995C 2153.1166619643386 2204.4845905019374 2150.004430734518 2203.3975729833983 2146.3004072462227 2202.2477500082355C 2140.6209045641685 2200.4602100888646 2133.6598949051295 2198.348980508418 2125.762235628361 2196.179776660316C 2112.6746859697155 2192.5998656326014 2095.146565623377 2187.7430713597782 2073.1736170910835 2183.525443387855C 2072.087955034169 2183.269873491278 2070.951202998106 2183.142330102436 2069.8144509620433 2182.8867602058526C 2066.80439969052 2182.375137293796 2063.841180899883 2181.8002258062147 2060.8268721300974 2181.2890860130524C 2060.8268721300974 2181.2890860130524 2060.7800396492107 2181.2890860130524 2060.7289496700614 2181.2890860130524C 2060.696308850051 2181.2890860130524 2060.663668030038 2181.2890860130524 2060.631027210026 2181.2890860130524C 2056.5310563833273 2180.5861480177355 2052.3842530757397 2180.01123653015 2048.237449768155 2179.4358419236733C 2048.1395273081175 2179.372070229252 2047.990514868935 2179.372070229252 2047.8415024297499 2179.372070229252C 2043.4988542020924 2178.73338704725 2039.1008584970227 2178.221764135191 2034.707120290218 2177.7106243420303C 2030.2622921042635 2177.1994845488707 2025.8217214165697 2176.68834475571 2021.3258032514655 2176.3052314702877C 2012.1934694785984 2175.4742669672273 2002.958955747434 2174.835583785225 1993.6265195562319 2174.4519873809068C 1989.0343819303982 2174.196417484327 1984.5410182642518 2174.0683909765853 1979.948880638418 2174.0046192821674C 1974.862873214143 2173.877075893325 1969.629130600163 2173.877075893325 1964.2468012968254 2174.0046192821674C 1964.2468012968254 2174.0046192821674 1962.815004631177 2174.0046192821674 1961.5313689050618 2174.0046192821674C 1956.5441354404752 2174.0683909765853 1897.2912548730492 2177.1994845488707 1852.851488010023 2186.8483351622995C 1816.3123606725494 2194.7739006696747 1744.0238719252802 2217.0070323154787 1655.8357559170422 2266.9132143887427C 1652.6264537268391 2233.7519332899155 1649.7130476658717 2199.6292455858047 1647.194737443658 2164.5475668708978C 1643.8866612937659 2119.6271718159896 1641.022642212643 2073.4931820914953 1640.6275463738912 2054.3872790667992C 1704.4725645671517 2016.7513507427789 1820.7069503790078 1961.287851995856 1971.258475185188 1961.5434218924397C 2145.759704966897 1961.6709652812783 2276.8565914629994 2036.6877351516382 2340.9489703053027 2080.3940524180643Z"></path><path fill="url(#tSvgGradientf0fae0afca)" stroke="none" fill-opacity="1" stroke-width="1" stroke-opacity="1" color="rgb(51, 51, 51)" font-size-adjust="none" id="tSvg152c8ea7cd0" title="Path 44" d="M 2264.556678982897 2483.9108982224993 C 2264.556678982897 2483.9108982224993 2264.556678982897 2483.973703679125 2264.5098465020114 2483.973703679125C 2264.360834062826 2484.0365091357517 2264.262911602792 2484.104145781349 2264.1138991636058 2484.1669512379776C 2264.1138991636058 2484.1669512379776 2264.1138991636058 2484.1669512379776 2264.0628091844583 2484.1669512379776C 2263.815874285238 2484.292562151231 2263.5689393860184 2484.48580971008 2263.3730944659474 2484.5486151667073C 2263.3220044867994 2484.5486151667073 2263.2751720059127 2484.616251812304 2263.2240820267643 2484.616251812304C 2262.930314646656 2484.804668182183 2262.5811997891396 2484.9351102844093 2262.287432409034 2485.1235266542885C 2262.781302207474 2484.6790572689297 2263.3220044867994 2484.229756694604 2263.8669642643868 2483.7852873092465C 2208.072449535516 2512.9849934516274 2115.8337496804234 2550.876008553332 1998.7602109610452 2552.6007430160766C 1958.5668728649464 2492.346154166344 1894.8700156112177 2412.2788593454143 1803.0775015740246 2346.7196250052225C 1803.0281145941813 2346.7196250052225 1803.0281145941813 2346.6568195485966 1802.9787276143363 2346.6568195485966C 1802.9293406344925 2346.59401409197 1802.8799536546503 2346.531208635344 1802.8305666748054 2346.531208635344C 1801.1518351099376 2345.3137490145814 1799.028620726474 2343.78226211069 1796.5596974841035 2341.86428008909C 1801.6457049083774 2345.3813856601782 1747.6759539347743 2303.847654074136 1750.7869079151155 2272.536718351305C 1754.2925319843846 2237.776313702989 1823.2235576019189 2222.442119908161 1868.848186231373 2212.2821295015747C 1950.6666590892198 2194.06854707987 2027.3501632927741 2204.9966965328895 2036.0908072255008 2206.339767066905C 2038.1131189001444 2208.190112442905 2039.790573215534 2209.9776523622754 2041.1274276699298 2211.451164998515C 2043.6946991221637 2213.494757933361 2047.445555091346 2216.3693153712707 2051.8903832773008 2220.012031855612C 2051.8903832773008 2220.012031855612 2094.503683385753 2254.3907725751997 2133.212857587576 2296.3061680899737C 2197.8501962074724 2366.401888874193 2258.928266279993 2473.750907815907 2264.360834062826 2483.3987921915436C 2264.360834062826 2483.4615976481705 2264.360834062826 2483.4615976481705 2264.411924041974 2483.5292342937673C 2264.4587565228608 2483.717650663646 2264.5098465020114 2483.7852873092465 2264.556678982897 2483.9108982224993Z"></path><path fill="url(#tSvgGradient1067e43d023)" stroke="none" fill-opacity="1" stroke-width="1" stroke-opacity="1" color="rgb(51, 51, 51)" font-size-adjust="none" id="tSvga51ccc0322" title="Path 45" d="M 2320.8024885275804 2291.1947701583676 C 2315.5189331839333 2295.6056456891397 2310.2864678194333 2300.011690030941 2305.002912475783 2304.485371018343C 2244.367622222553 2267.0388253019955 2193.7544828790337 2244.1631455230136 2152.771804605085 2231.4474561506163C 2123.9826013546735 2222.5677308214163 2085.073324734517 2212.3449349582015 2038.8070911169175 2206.9146785544863C 2038.7602586360308 2206.9146785544863 2038.7602586360308 2206.9146785544863 2038.7091686568822 2206.9146785544863C 2038.168466377557 2206.8470419088894 2037.623506599968 2206.7842364522626 2037.0317143414934 2206.721430995637C 2036.9806243623448 2206.6586255390107 2036.882701902309 2206.59098889341 2036.8316119231595 2206.5281834367843C 2036.8316119231595 2206.5281834367843 2036.8316119231595 2206.5281834367843 2036.7847794422732 2206.5281834367843C 2036.7847794422732 2206.5281834367843 2036.4867545639056 2206.465377980158 2035.9460522845782 2206.402572523532C 2027.2054083518533 2205.0595019895163 1950.5214783984711 2194.198989182093 1868.7034312904507 2212.3449349582015C 1823.0788026609964 2222.5049253647903 1754.1477770434626 2237.776313702989 1750.6421529741947 2272.5995238079304C 1747.4818120140073 2303.9104595307617 1801.4515629876107 2345.444191116805 1796.4149425431815 2341.927085545719C 1796.3984802165658 2341.927085545719 1796.3820178899507 2341.927085545719 1796.3655555633368 2341.927085545719C 1744.766379622244 2306.466158496566 1696.376505871354 2282.121797270313 1655.146041198533 2267.1692674042188C 1655.3435891179076 2267.0388253019955 1655.5905240171273 2266.9132143887427 1655.7880719365046 2266.78277228652C 1743.9761879447396 2216.881421402226 1816.2646766920107 2194.580653110824 1852.8038040294844 2186.7207917734604C 1897.2435708925111 2177.0719411600285 1956.4964514599367 2174.005102401063 1961.4836849245228 2173.877075893325C 1962.816707630482 2173.877075893325 1964.1991173162874 2173.877075893325 1964.1991173162874 2173.877075893325C 1969.6308335994681 2173.813304198904 1974.8650019632748 2173.813304198904 1979.901196657877 2173.877075893325C 1984.493334283712 2173.9413307066425 1989.0360849297028 2174.068874095484 1993.5788355756933 2174.324443992064C 2002.912123266546 2174.643785583066 2012.1466369977122 2175.346723578385 2021.2789707705788 2176.177688081446C 2025.774888935683 2176.560801366868 2030.215459623376 2177.0719411600285 2034.6602878093317 2177.583564072087C 2039.1051159952863 2178.158475559668 2043.4520217212066 2178.6696153528287 2047.7946699488637 2179.24452684041C 2047.9436823880471 2179.24452684041 2048.0926948272318 2179.24452684041 2048.1906172872677 2179.3082985348315C 2052.337420594854 2179.8836931413084 2056.4842239024406 2180.5228594422106 2060.5841947291397 2181.161542624213C 2060.616835549151 2181.161542624213 2060.649476369163 2181.161542624213 2060.682117189175 2181.161542624213C 2060.682117189175 2181.161542624213 2060.733207168325 2181.161542624213 2060.7800396492107 2181.161542624213C 2063.7943484189964 2181.672682417373 2066.80439969052 2182.1838222105366 2069.767618481158 2182.7592168170136C 2070.90437051722 2183.014786713594 2071.9900325741346 2183.142330102436 2073.1267846101973 2183.3978999990163C 2095.0997331424896 2187.61504485204 2112.57676350968 2192.4066180737514 2125.711145649211 2196.049334558092C 2133.6130624242433 2198.2233695951627 2140.574072083282 2200.3297679866414 2146.253574765336 2202.1221390949827C 2149.906508274483 2203.334767526772 2153.069829483452 2204.3589795886824 2155.5860109565365 2205.185112902771C 2156.377905633344 2205.4411659182474 2157.1187103310035 2205.760024390352 2157.808425049514 2205.9532719492026C 2159.1921119847966 2206.465377980158 2160.3246065225985 2206.8470419088894 2161.065411220258 2207.103094924368C 2161.065411220258 2207.103094924368 2161.065411220258 2207.103094924368 2161.116501199406 2207.103094924368C 2162.845045493944 2207.745643057547 2164.5735897884806 2208.3205545451287 2166.302134083021 2208.9582714893368C 2169.806055152983 2210.233705377754 2173.314233721208 2211.51397045514 2176.767064812022 2212.8570409891536C 2180.2241534010977 2214.262916979795 2183.6301520110246 2215.60115632484 2186.9893181400657 2216.944226858852C 2188.666772455454 2217.6495804486603 2190.348484269105 2218.350102849494 2191.979106103609 2219.0554564393024C 2193.6054704398503 2219.693173383507 2195.287182253501 2220.3936957843407 2196.9135465897425 2221.0990493741488C 2197.5564288273654 2221.2874657440275 2198.1993110649883 2221.67396086173 2198.7911033234645 2221.9300138772087C 2201.754322114101 2223.2054477656243 2204.6196184447026 2224.4857128430103 2207.531747256189 2225.761146731428C 2209.7030713700187 2226.7853587933396 2211.8275630029602 2227.679128753026 2213.9520546359026 2228.703340814936C 2214.343744476045 2228.8917571848115 2214.739691814448 2229.0850047436643 2215.0845491737036 2229.2782523025176C 2216.61724854817 2229.978774703351 2230.888382723767 2237.0709601131807 2236.316693008337 2239.694295724585C 2236.712640346742 2239.882712094461 2237.1085876851466 2240.0759596533135 2237.402355065253 2240.2015705665663C 2237.849392382805 2240.394818125419 2238.1942497420605 2240.588065684269 2238.3432621812444 2240.650871140895C 2248.9572053494294 2246.0811275446067 2258.736678858183 2251.5113839483215 2267.524155271798 2256.627613068899C 2269.6486469047386 2257.840241500691 2271.670958579383 2259.052869932479 2273.6464377731404 2260.202692907643C 2277.6484861398035 2262.5699755035653 2281.399342108988 2264.9324269105205 2285.005443137246 2267.1692674042188C 2287.2278572302257 2268.5751433948612 2295.4703738662515 2273.749346783097 2306.582444331137 2281.2908327672553C 2310.384390279468 2283.9721426463116 2315.2209083055654 2287.2331952019217 2320.8024885275804 2291.1947701583676Z"></path><defs><linearGradient id="tSvgGradientbc62349c28" x1="1583.5684942543203" x2="2263.7691487384636" y1="2643.1223614552896" y2="2643.1223614552896" color="rgb(51, 51, 51)" fill="rgb(0, 0, 0)" font-size-adjust="none" gradientUnits="userSpaceOnUse" gradientTransform=""><stop offset="0" stop-color="hsl(227.988,40%,9.8%)" stop-opacity="1"></stop><stop offset="0.4142" stop-color="hsl(196.56,52.76%,49.8%)" stop-opacity="1"></stop><stop offset="0.475" stop-color="hsl(196.88400000000001,52.459999999999994%,47.839999999999996%)" stop-opacity="1"></stop><stop offset="0.5657" stop-color="hsl(197.82,51.629999999999995%,42.16%)" stop-opacity="1"></stop><stop offset="0.6751" stop-color="hsl(200.48399999999998,49.13%,33.92%)" stop-opacity="1"></stop><stop offset="0.7991" stop-color="hsl(205.704,45.9%,23.919999999999998%)" stop-opacity="1"></stop><stop offset="0.9337" stop-color="hsl(218.55599999999998,41.18%,13.33%)" stop-opacity="1"></stop><stop offset="0.9792" stop-color="hsl(227.988,40%,9.8%)" stop-opacity="1"></stop></linearGradient><linearGradient id="tSvgGradient11d7c7eee16" x1="1596.0805560281703" x2="1821.8815467167162" y1="2648.485357267997" y2="2648.485357267997" color="rgb(51, 51, 51)" fill="rgb(0, 0, 0)" font-size-adjust="none" gradientUnits="userSpaceOnUse" gradientTransform=""><stop offset="0" stop-color="hsl(227.988,40%,9.8%)" stop-opacity="1"></stop><stop offset="0.4142" stop-color="hsl(196.56,52.76%,49.8%)" stop-opacity="1"></stop><stop offset="0.475" stop-color="hsl(196.88400000000001,52.459999999999994%,47.839999999999996%)" stop-opacity="1"></stop><stop offset="0.5657" stop-color="hsl(197.82,51.629999999999995%,42.16%)" stop-opacity="1"></stop><stop offset="0.6751" stop-color="hsl(200.48399999999998,49.13%,33.92%)" stop-opacity="1"></stop><stop offset="0.7991" stop-color="hsl(205.704,45.9%,23.919999999999998%)" stop-opacity="1"></stop><stop offset="0.9337" stop-color="hsl(218.55599999999998,41.18%,13.33%)" stop-opacity="1"></stop><stop offset="0.9792" stop-color="hsl(227.988,40%,9.8%)" stop-opacity="1"></stop></linearGradient><linearGradient id="tSvgGradient190dc9b76dd" x1="1576.0318006126847" x2="2264.6204497254885" y1="2675.5249029949437" y2="2675.5249029949437" color="rgb(51, 51, 51)" fill="rgb(0, 0, 0)" font-size-adjust="none" gradientUnits="userSpaceOnUse" gradientTransform=""><stop offset="0.0659" stop-color="hsl(178.74,42.99%,56.67%)" stop-opacity="1"></stop><stop offset="0.4376" stop-color="hsl(179.352,42.34%,56.47%)" stop-opacity="1"></stop><stop offset="0.7201" stop-color="hsl(192.456,71.93%,55.28999999999999%)" stop-opacity="1"></stop></linearGradient><linearGradient id="tSvgGradient7d28267f6b" x1="1597.669871705379" x2="1598.8661758890353" y1="2663.4721849360594" y2="2663.4721849360594" color="rgb(51, 51, 51)" fill="rgb(0, 0, 0)" font-size-adjust="none" gradientUnits="userSpaceOnUse" gradientTransform=""><stop offset="0" stop-color="hsl(227.988,40%,9.8%)" stop-opacity="1"></stop><stop offset="0.4142" stop-color="hsl(196.56,52.76%,49.8%)" stop-opacity="1"></stop><stop offset="0.475" stop-color="hsl(196.88400000000001,52.459999999999994%,47.839999999999996%)" stop-opacity="1"></stop><stop offset="0.5657" stop-color="hsl(197.82,51.629999999999995%,42.16%)" stop-opacity="1"></stop><stop offset="0.6751" stop-color="hsl(200.48399999999998,49.13%,33.92%)" stop-opacity="1"></stop><stop offset="0.7991" stop-color="hsl(205.704,45.9%,23.919999999999998%)" stop-opacity="1"></stop><stop offset="0.9337" stop-color="hsl(218.55599999999998,41.18%,13.33%)" stop-opacity="1"></stop><stop offset="0.9792" stop-color="hsl(227.988,40%,9.8%)" stop-opacity="1"></stop></linearGradient><linearGradient id="tSvgGradientc7d1e5347e" x1="1592.2370615678121" x2="1600.8889513284823" y1="2582.7661784489305" y2="2582.7661784489305" color="rgb(51, 51, 51)" fill="rgb(0, 0, 0)" font-size-adjust="none" gradientUnits="userSpaceOnUse" gradientTransform=""><stop offset="0" stop-color="hsl(227.988,40%,9.8%)" stop-opacity="1"></stop><stop offset="0.4142" stop-color="hsl(196.56,52.76%,49.8%)" stop-opacity="1"></stop><stop offset="0.475" stop-color="hsl(196.88400000000001,52.459999999999994%,47.839999999999996%)" stop-opacity="1"></stop><stop offset="0.5657" stop-color="hsl(197.82,51.629999999999995%,42.16%)" stop-opacity="1"></stop><stop offset="0.6751" stop-color="hsl(200.48399999999998,49.13%,33.92%)" stop-opacity="1"></stop><stop offset="0.7991" stop-color="hsl(205.704,45.9%,23.919999999999998%)" stop-opacity="1"></stop><stop offset="0.9337" stop-color="hsl(218.55599999999998,41.18%,13.33%)" stop-opacity="1"></stop><stop offset="0.9792" stop-color="hsl(227.988,40%,9.8%)" stop-opacity="1"></stop></linearGradient><linearGradient id="tSvgGradient1256646f8b9" x1="1596.0634361439147" x2="1607.7315793683467" y1="2608.227193910461" y2="2608.227193910461" color="rgb(51, 51, 51)" fill="rgb(0, 0, 0)" font-size-adjust="none" gradientUnits="userSpaceOnUse" gradientTransform=""><stop offset="0" stop-color="hsl(227.988,40%,9.8%)" stop-opacity="1"></stop><stop offset="0.4142" stop-color="hsl(196.56,52.76%,49.8%)" stop-opacity="1"></stop><stop offset="0.475" stop-color="hsl(196.88400000000001,52.459999999999994%,47.839999999999996%)" stop-opacity="1"></stop><stop offset="0.5657" stop-color="hsl(197.82,51.629999999999995%,42.16%)" stop-opacity="1"></stop><stop offset="0.6751" stop-color="hsl(200.48399999999998,49.13%,33.92%)" stop-opacity="1"></stop><stop offset="0.7991" stop-color="hsl(205.704,45.9%,23.919999999999998%)" stop-opacity="1"></stop><stop offset="0.9337" stop-color="hsl(218.55599999999998,41.18%,13.33%)" stop-opacity="1"></stop><stop offset="0.9792" stop-color="hsl(227.988,40%,9.8%)" stop-opacity="1"></stop></linearGradient><linearGradient id="tSvgGradientd628cab895" x1="1612.8117911335232" x2="1618.9002606332615" y1="2522.821538845238" y2="2522.821538845238" color="rgb(51, 51, 51)" fill="rgb(0, 0, 0)" font-size-adjust="none" gradientUnits="userSpaceOnUse" gradientTransform=""><stop offset="0" stop-color="hsl(227.988,40%,9.8%)" stop-opacity="1"></stop><stop offset="0.4142" stop-color="hsl(196.56,52.76%,49.8%)" stop-opacity="1"></stop><stop offset="0.475" stop-color="hsl(196.88400000000001,52.459999999999994%,47.839999999999996%)" stop-opacity="1"></stop><stop offset="0.5657" stop-color="hsl(197.82,51.629999999999995%,42.16%)" stop-opacity="1"></stop><stop offset="0.6751" stop-color="hsl(200.48399999999998,49.13%,33.92%)" stop-opacity="1"></stop><stop offset="0.7991" stop-color="hsl(205.704,45.9%,23.919999999999998%)" stop-opacity="1"></stop><stop offset="0.9337" stop-color="hsl(218.55599999999998,41.18%,13.33%)" stop-opacity="1"></stop><stop offset="0.9792" stop-color="hsl(227.988,40%,9.8%)" stop-opacity="1"></stop></linearGradient><linearGradient id="tSvgGradientceb0fd78ba" x1="2057.582468649368" x2="2076.430429915251" y1="1860.456637040333" y2="1860.456637040333" color="rgb(51, 51, 51)" fill="rgb(0, 0, 0)" font-size-adjust="none" gradientUnits="userSpaceOnUse" gradientTransform=""><stop offset="0.0659" stop-color="hsl(178.74,42.99%,56.67%)" stop-opacity="1"></stop><stop offset="0.4376" stop-color="hsl(179.352,42.34%,56.47%)" stop-opacity="1"></stop><stop offset="0.7201" stop-color="hsl(192.456,71.93%,55.28999999999999%)" stop-opacity="1"></stop></linearGradient><linearGradient id="tSvgGradient16a18cd85a2" x1="1812.7737526002911" x2="2343.0136175490056" y1="1861.3561450801637" y2="1861.3561450801637" color="rgb(51, 51, 51)" fill="rgb(0, 0, 0)" font-size-adjust="none" gradientUnits="userSpaceOnUse" gradientTransform=""><stop offset="0.0659" stop-color="hsl(178.74,42.99%,56.67%)" stop-opacity="1"></stop><stop offset="0.4376" stop-color="hsl(179.352,42.34%,56.47%)" stop-opacity="1"></stop><stop offset="0.7201" stop-color="hsl(192.456,71.93%,55.28999999999999%)" stop-opacity="1"></stop></linearGradient><linearGradient id="tSvgGradient13078603f97" x1="2056.791033311122" x2="2402.103794216382" y1="1757.481088066877" y2="2013.1602789172166" color="rgb(51, 51, 51)" fill="rgb(0, 0, 0)" font-size-adjust="none" gradientUnits="userSpaceOnUse" gradientTransform=""><stop offset="0.0855" stop-color="hsl(227.988,40%,9.8%)" stop-opacity="1"></stop><stop offset="0.595" stop-color="hsl(196.668,52.5%,47.06%)" stop-opacity="1"></stop><stop offset="0.617" stop-color="hsl(197.28000000000003,52.21%,44.31%)" stop-opacity="1"></stop><stop offset="0.8828" stop-color="hsl(211.5,43.480000000000004%,18.04%)" stop-opacity="1"></stop><stop offset="1" stop-color="hsl(227.988,40%,9.8%)" stop-opacity="1"></stop></linearGradient><linearGradient id="tSvgGradientabcca546b0" x1="1687.2256212508448" x2="1687.742472235884" y1="1752.4122413639773" y2="1752.4122413639773" color="rgb(51, 51, 51)" fill="rgb(0, 0, 0)" font-size-adjust="none" gradientUnits="userSpaceOnUse" gradientTransform=""><stop offset="0.076" stop-color="hsl(227.988,40%,9.8%)" stop-opacity="1"></stop><stop offset="0.5573" stop-color="hsl(196.56,52.76%,49.8%)" stop-opacity="1"></stop><stop offset="0.6038" stop-color="hsl(196.88400000000001,52.459999999999994%,47.839999999999996%)" stop-opacity="1"></stop><stop offset="0.6732" stop-color="hsl(197.82,51.629999999999995%,42.16%)" stop-opacity="1"></stop><stop offset="0.7565" stop-color="hsl(200.232,49.43%,34.12%)" stop-opacity="1"></stop><stop offset="0.8391" stop-color="hsl(204.984,46.150000000000006%,25.490000000000002%)" stop-opacity="1"></stop></linearGradient><linearGradient id="tSvgGradientdc2cd7cee5" x1="1845.9290393566614" x2="2332.420860113388" y1="2078.4296668048787" y2="1918.5887584794627" color="rgb(51, 51, 51)" fill="rgb(0, 0, 0)" font-size-adjust="none" gradientUnits="userSpaceOnUse" gradientTransform=""><stop offset="0.076" stop-color="hsl(227.988,40%,9.8%)" stop-opacity="1"></stop><stop offset="0.5573" stop-color="hsl(196.56,52.76%,49.8%)" stop-opacity="1"></stop><stop offset="0.6038" stop-color="hsl(196.88400000000001,52.459999999999994%,47.839999999999996%)" stop-opacity="1"></stop><stop offset="0.6732" stop-color="hsl(197.82,51.629999999999995%,42.16%)" stop-opacity="1"></stop><stop offset="0.7565" stop-color="hsl(200.232,49.43%,34.12%)" stop-opacity="1"></stop><stop offset="0.8391" stop-color="hsl(204.984,46.150000000000006%,25.490000000000002%)" stop-opacity="1"></stop></linearGradient><linearGradient id="tSvgGradient11472da9a09" x1="1771.4549991798706" x2="2294.614665184366" y1="2297.0454878750497" y2="2058.0136072132" color="rgb(51, 51, 51)" fill="rgb(0, 0, 0)" font-size-adjust="none" gradientUnits="userSpaceOnUse" gradientTransform=""><stop offset="0.07" stop-color="hsl(179.424,82.54%,24.709999999999997%)" stop-opacity="1"></stop><stop offset="0.44" stop-color="hsl(178.74,42.99%,56.67%)" stop-opacity="1"></stop><stop offset="0.72" stop-color="hsl(192.52800000000002,60.260000000000005%,70.39%)" stop-opacity="1"></stop></linearGradient><linearGradient id="tSvgGradientf0fae0afca" x1="1715.9806700807337" x2="2267.45614047463" y1="2265.8208867589756" y2="2425.815446019165" color="rgb(51, 51, 51)" fill="rgb(0, 0, 0)" font-size-adjust="none" gradientUnits="userSpaceOnUse" gradientTransform=""><stop offset="0.1303" stop-color="hsl(192.85199999999998,58.330000000000005%,32.940000000000005%)" stop-opacity="1"></stop><stop offset="0.2125" stop-color="hsl(194.148,55.78999999999999%,37.25%)" stop-opacity="1"></stop><stop offset="0.48" stop-color="hsl(197.352,52.89%,47.449999999999996%)" stop-opacity="1"></stop><stop offset="0.58" stop-color="hsl(197.352,51.82%,43.14%)" stop-opacity="1"></stop><stop offset="0.71" stop-color="hsl(199.332,50.56%,34.9%)" stop-opacity="1"></stop><stop offset="0.84" stop-color="hsl(203.79600000000002,50%,22.75%)" stop-opacity="1"></stop><stop offset="0.98" stop-color="hsl(227.988,40%,9.8%)" stop-opacity="1"></stop></linearGradient><linearGradient id="tSvgGradient1067e43d023" x1="1655.1815728167007" x2="2320.819345085226" y1="2257.936622592995" y2="2257.936622592995" color="rgb(51, 51, 51)" fill="rgb(0, 0, 0)" font-size-adjust="none" gradientUnits="userSpaceOnUse" gradientTransform=""><stop offset="0" stop-color="hsl(227.988,40%,9.8%)" stop-opacity="1"></stop><stop offset="0.4142" stop-color="hsl(196.56,52.76%,49.8%)" stop-opacity="1"></stop><stop offset="0.475" stop-color="hsl(196.88400000000001,52.459999999999994%,47.839999999999996%)" stop-opacity="1"></stop><stop offset="0.5657" stop-color="hsl(197.82,51.629999999999995%,42.16%)" stop-opacity="1"></stop><stop offset="0.6751" stop-color="hsl(200.48399999999998,49.13%,33.92%)" stop-opacity="1"></stop><stop offset="0.7991" stop-color="hsl(205.704,45.9%,23.919999999999998%)" stop-opacity="1"></stop><stop offset="0.9337" stop-color="hsl(218.55599999999998,41.18%,13.33%)" stop-opacity="1"></stop><stop offset="0.9792" stop-color="hsl(227.988,40%,9.8%)" stop-opacity="1"></stop></linearGradient></defs></svg> 