<?xml version="1.0" encoding="UTF-8"?> <svg xmlns="http://www.w3.org/2000/svg" width="180" height="63" viewBox="0 0 180 63" fill="none"><g clip-path="url(#clip0_1_2)"><path d="M48.2572 41.9038C48.2226 41.928 48.1845 41.9523 48.1463 41.9765C46.2235 43.2446 44.2626 44.5126 42.267 45.7806C42.267 45.7806 42.267 45.7806 42.2635 45.7806C39.2078 47.6307 22.2903 55.5576 21.6008 55.8348C20.0833 56.448 18.9816 56.8915 18.1189 57.2172C18.0982 57.2276 18.0739 57.2345 18.0496 57.2414C17.9907 57.2622 17.9284 57.2865 17.8695 57.3073C17.8522 57.3142 17.8348 57.3177 17.821 57.3246C17.5438 57.4251 17.2874 57.5151 17.0415 57.5983C17.038 57.5983 17.038 57.5983 17.0345 57.6017C16.9548 57.626 16.8786 57.6537 16.8024 57.678C16.7296 57.7022 16.6604 57.723 16.5911 57.7438C16.3624 57.8131 16.1407 57.8824 15.9224 57.9447C15.8392 57.969 15.7561 57.9932 15.6764 58.014C15.4685 58.0695 15.2607 58.1249 15.0424 58.1769C14.1763 58.3882 13.033 58.6688 11.7684 58.8836C11.7476 58.8871 11.7233 58.894 11.7026 58.894C11.4115 58.9391 11.1759 58.9702 11.0062 58.9945C9.45751 59.1954 8.2761 59.2301 7.37878 59.1885C7.36839 59.1885 7.35799 59.1885 7.35106 59.1885C6.5646 59.1366 5.79547 59.0118 5.07483 58.7901C5.06098 58.7866 5.04712 58.7797 5.02979 58.7762C3.46034 58.2288 2.68082 57.4632 2.41405 57.186C2.27893 57.044 2.15767 56.8984 2.04681 56.7599C1.97405 56.6628 1.90476 56.5658 1.83893 56.4688C1.52019 55.9873 1.32271 55.5299 1.17374 55.1627C1.15988 55.128 1.14256 55.0899 1.1287 55.0553C1.1287 55.0518 1.12523 55.0449 1.12523 55.0414C0.31452 52.9835 0.522393 51.1299 0.62633 50.2673C0.629795 50.2326 0.636727 50.2014 0.640192 50.1668C0.640192 50.1633 0.640192 50.1599 0.640192 50.1599C0.754522 49.3838 0.934679 48.7117 1.09405 48.1989C1.10444 48.1608 1.11484 48.1262 1.1287 48.0915C1.29846 47.5788 1.50287 47.0487 1.735 46.4389C1.735 46.432 1.73846 46.4285 1.74192 46.4216C1.88397 46.0682 2.05374 45.6559 2.24429 45.2159C2.32051 45.0392 2.39327 44.8695 2.46256 44.7136C2.46602 44.7136 2.46602 44.7101 2.46602 44.7101C2.49373 44.6512 2.51798 44.5958 2.54224 44.5403C2.55263 44.5195 2.55957 44.4988 2.56996 44.478C2.66697 44.2736 2.75011 44.0969 2.81594 43.9617C2.58728 44.4918 2.37247 45.1189 2.22696 45.8257C2.22696 45.8291 2.2235 45.8361 2.2235 45.843C2.22004 45.8465 2.22003 45.8534 2.22003 45.8603C2.2131 45.888 2.20271 45.9158 2.19578 45.9435C2.20271 45.9123 2.20618 45.8776 2.21311 45.8465C2.17846 45.9781 2.13689 46.1132 2.10224 46.2518C2.07452 46.3627 2.04334 46.477 2.01216 46.5983C1.84932 47.118 1.7142 47.648 1.61027 48.1781C1.5583 48.4449 1.51326 48.7117 1.47861 48.975C1.46822 49.0651 1.45783 49.1517 1.44743 49.2417C1.42318 49.4739 1.40933 49.7025 1.39893 49.9312V49.9589C1.392 50.243 1.39547 50.5236 1.41972 50.7973C1.42318 50.8632 1.43011 50.9325 1.44051 50.9983C1.45783 51.1542 1.47862 51.3032 1.50633 51.4521C1.51326 51.4972 1.52019 51.5422 1.53059 51.5838C1.54791 51.6704 1.56869 51.7536 1.58948 51.8402C1.6172 51.9476 1.64838 52.055 1.68303 52.1589C1.68303 52.1624 1.68649 52.1693 1.68649 52.1728C1.78696 52.4742 1.91169 52.7617 2.06759 53.032C2.09877 53.0874 2.13342 53.1428 2.1646 53.1948C2.31011 53.4547 2.47987 53.7006 2.68082 53.9328C5.06444 56.6906 10.0707 55.6408 11.8065 55.2805C11.8446 55.2736 11.8827 55.2632 11.9243 55.2528C11.9451 55.2458 11.9624 55.2424 11.9867 55.2389C12.0213 55.232 12.0559 55.2251 12.0906 55.2147C13.8506 54.7816 15.9363 53.7145 16.8163 53.2364C16.8232 53.2364 16.8301 53.2295 16.837 53.226C17.0934 53.0909 17.2389 53.0043 17.2389 53.0008C17.2355 52.9973 17.2355 52.9973 17.232 52.9939V52.9904C16.7504 52.391 16.0402 51.4729 15.2226 50.3158C14.689 49.5605 14.3044 48.975 14.0342 48.5662C12.4197 46.1028 10.3826 42.8669 9.75547 41.8691C13.7709 43.501 20.7 45.7287 29.5451 45.6421C29.5763 45.6421 29.6075 45.6421 29.6386 45.6421C37.8704 45.5416 44.3423 43.4871 48.2572 41.9038Z" fill="url(#paint0_linear_1_2)"></path><path d="M17.2538 53.0151C17.2538 53.0185 17.2538 53.0185 17.2538 53.0185C17.2503 53.0185 17.2295 53.0324 17.226 53.0324C15.6843 53.8327 14.9117 54.2346 14.5064 54.4113C13.4427 54.8721 12.5662 55.1111 12.1054 55.2255C12.0604 55.2359 12.0257 55.2463 12.0015 55.2497H11.998C11.9772 55.2532 11.9599 55.2601 11.9391 55.2636C11.901 55.2705 11.8629 55.2809 11.8248 55.2878C10.0925 55.6482 5.08273 56.6979 2.69911 53.9367C2.49816 53.7045 2.3284 53.4585 2.18289 53.2022C2.14825 53.1467 2.11706 53.0948 2.08242 53.0428V53.0393C1.92651 52.7726 1.80525 52.4885 1.70478 52.194C1.70478 52.1905 1.70131 52.1836 1.70131 52.1801C1.66667 52.0762 1.63549 51.9688 1.60777 51.8614C1.58699 51.7782 1.56619 51.6916 1.54887 51.605C1.53848 51.56 1.53155 51.5184 1.52462 51.4733C1.4969 51.3244 1.47611 51.1719 1.45879 51.0195C1.45186 50.9537 1.44493 50.8844 1.438 50.8185C1.41375 50.5448 1.41029 50.2607 1.41722 49.9801V49.9524C1.42761 49.7237 1.44147 49.4951 1.46572 49.263C1.47612 49.1729 1.48651 49.0863 1.4969 48.9962C1.53155 48.7329 1.57659 48.4661 1.62856 48.1993C1.7325 47.6692 1.87108 47.1392 2.03045 46.6195C2.06163 46.5017 2.09281 46.3874 2.12052 46.273C2.15863 46.1344 2.19675 45.9993 2.23139 45.8677C2.22446 45.8989 2.221 45.9335 2.21407 45.9647C2.12053 46.4705 2.05816 47.0179 2.05816 47.6C2.05816 47.794 1.85375 50.8255 3.60682 52.6132C5.13123 54.1653 7.42478 54.0752 8.48147 54.0337C12.1678 53.8882 15.5561 51.4872 15.8714 51.2551C15.8887 51.2447 15.8956 51.2378 15.8956 51.2378L17.2538 53.0151Z" fill="url(#paint1_linear_1_2)"></path><path d="M48.3168 41.8657C48.3133 41.8727 48.3064 41.8796 48.303 41.8865C48.303 41.8865 48.303 41.8865 48.2995 41.89C48.2995 41.89 48.2995 41.89 48.2995 41.8934C48.2926 41.9038 48.2891 41.9142 48.2822 41.9246C47.2913 43.4594 45.9609 45.3996 44.2667 47.5545C43.5565 48.4623 42.1429 50.2153 39.839 52.689C37.5766 55.1212 34.1017 58.6273 29.279 62.7328C29.279 62.7328 27.7615 61.7731 27.0236 61.2881C26.7707 61.1218 26.348 60.8412 25.8456 60.4912C25.2324 60.0616 24.4009 59.4623 23.4274 58.6897C22.1316 59.3029 20.091 60.1483 17.4822 60.7372C14.1666 61.4856 7.75019 62.9372 3.40562 59.5385C2.8305 59.0881 0.869556 57.5533 0.211288 54.9549C-0.0624129 53.8774 -0.0104516 53.0078 0.041517 52.0516C0.176635 49.5917 0.970024 47.7347 1.62483 46.2415C2.25538 44.7967 2.91365 43.6846 2.98294 43.6153L2.9864 43.6119C2.99679 43.6153 2.93443 43.7401 2.82703 43.9618C2.76121 44.0969 2.67806 44.2736 2.58105 44.478C2.57066 44.4988 2.56026 44.5196 2.55333 44.5404C2.52908 44.5958 2.50136 44.6512 2.47711 44.7101C2.47711 44.7101 2.47712 44.7136 2.47365 44.7136C2.26578 45.1605 2.01979 45.7287 1.7738 46.3697C1.76687 46.387 1.75994 46.4078 1.75301 46.4251C1.74955 46.432 1.74609 46.4355 1.74609 46.4424C1.51396 47.0522 1.30955 47.5823 1.13979 48.095C1.1294 48.1297 1.119 48.1643 1.10514 48.2024C0.897268 48.8399 0.744828 49.4566 0.651284 50.1634C0.651284 50.1634 0.651284 50.1668 0.651284 50.1703C0.64782 50.2049 0.640888 50.2361 0.637423 50.2708C0.530022 51.1334 0.325613 52.9904 1.13632 55.0449C1.13632 55.0484 1.13979 55.0553 1.13979 55.0588C1.15365 55.0934 1.16751 55.1281 1.18483 55.1662C1.33381 55.5438 1.53128 55.9977 1.85002 56.4723C1.91585 56.5693 1.98514 56.6664 2.0579 56.7634C2.16876 56.9054 2.29002 57.0475 2.42514 57.1895C2.69191 57.4667 3.47145 58.2323 5.0409 58.7797C5.05476 58.7867 5.0686 58.7901 5.08593 58.7936C5.47742 58.9287 6.17034 59.1297 7.36215 59.192C7.37255 59.192 7.38294 59.192 7.38987 59.192C8.2872 59.2371 9.46862 59.199 11.0173 58.998C11.187 58.9772 11.4226 58.9426 11.7136 58.8975C11.7344 58.8975 11.7587 58.8906 11.7795 58.8871C13.8062 58.4818 15.9335 57.9448 15.9335 57.9448C19.0828 56.9123 21.3659 55.9527 22.8973 55.2459C23.9505 54.7608 27.0756 53.278 27.5156 53.0701C28.4822 52.6128 29.2755 52.2352 29.5666 52.0966C33.7102 50.1183 35.782 49.1309 38.2245 47.8352C41.9108 45.8777 44.8211 44.0934 46.5048 43.0264C47.2532 42.5586 47.8768 42.1533 48.3168 41.8657Z" fill="url(#paint2_linear_1_2)"></path><path d="M1.54378 51.5804C1.53338 51.5353 1.52646 51.4938 1.51953 51.4487C1.52992 51.4972 1.53685 51.5457 1.54724 51.5942C1.56457 51.6774 1.58189 51.7571 1.60268 51.8368C1.57843 51.7536 1.5611 51.667 1.54378 51.5804Z" fill="url(#paint3_linear_1_2)"></path><path d="M1.74692 46.439C1.5148 47.0487 1.3104 47.5788 1.14062 48.0916C1.23071 47.8109 1.3104 47.5857 1.3693 47.4229C1.43166 47.2531 1.5633 46.8998 1.74692 46.439Z" fill="url(#paint4_linear_1_2)"></path><path d="M2.12007 46.2625C2.08889 46.3733 2.05772 46.4911 2.03 46.6089C1.87063 47.1286 1.73205 47.6587 1.62811 48.1888C1.57614 48.4555 1.5311 48.7223 1.49992 48.9856C1.48606 49.0722 1.47913 49.1623 1.46528 49.2489C1.44102 49.4811 1.4237 49.7097 1.41677 49.9384V49.9661C1.40984 50.2502 1.4133 50.5308 1.43755 50.8045C1.44102 50.8704 1.44795 50.9396 1.45834 51.0055C1.4722 51.1544 1.49299 51.3034 1.52071 51.4489C1.49299 51.3 1.4722 51.1475 1.45488 50.9951C1.44795 50.9293 1.44102 50.86 1.4341 50.7941C1.40984 50.5204 1.40638 50.2363 1.41331 49.9557V49.928C1.4237 49.6993 1.43756 49.4707 1.46181 49.2385C1.4722 49.1485 1.48259 49.0618 1.49299 48.9718C1.52763 48.7085 1.57267 48.4417 1.62464 48.1749C1.72858 47.6448 1.86716 47.1148 2.02653 46.5951C2.05771 46.4773 2.0889 46.363 2.11662 46.2486C2.15473 46.11 2.19283 45.9749 2.22747 45.8433C2.22054 45.8744 2.21708 45.9091 2.21016 45.9403C2.17897 46.0477 2.14779 46.1551 2.12007 46.2625Z" fill="url(#paint5_linear_1_2)"></path><path d="M2.83193 43.9585C2.7661 44.0936 2.68295 44.2703 2.58594 44.4747C2.74184 44.1283 2.87696 43.8373 2.98783 43.6086C2.99822 43.5913 3.00515 43.574 3.01208 43.5566C3.01208 43.5601 3.00862 43.567 3.00862 43.567C3.00515 43.574 3.00515 43.5809 3.00169 43.5878C2.99823 43.5913 2.99476 43.5982 2.9913 43.6086C2.93586 43.7195 2.8839 43.8373 2.83193 43.9585Z" fill="url(#paint6_linear_1_2)"></path><path d="M35.1125 9.27822C34.6725 8.45019 34.2325 7.66373 33.7891 6.92578C34.2291 7.65681 34.6725 8.4398 35.1125 9.27822Z" fill="url(#paint7_linear_1_2)"></path><path d="M53.7352 16.3077L53.7214 15.5802C53.6729 13.5776 53.3957 12.4759 53.1774 11.6479C52.9834 10.9099 52.7513 10.3036 52.7513 10.3036C52.7063 10.1824 52.5642 9.81512 52.346 9.3578C52.0688 8.76882 52.1554 8.93166 51.951 8.57134C51.8921 8.46741 51.2338 7.29638 50.6206 6.57229C48.5904 4.16095 45.8707 3.15622 45.8707 3.15622C43.5529 2.29701 41.5434 2.51181 40.3239 2.65386C38.46 2.87213 36.5302 3.63087 32.6672 5.14488C31.9119 5.44284 31.2952 5.69229 30.8899 5.86205C30.8899 5.86205 28.7141 6.76284 26.5037 7.79182C22.225 9.78741 16.9346 12.8224 16.6055 13.0129C18.6288 10.8129 20.7248 8.58866 22.8937 6.34362C25.0071 4.15748 27.1066 2.0441 29.1853 0C29.6184 0.568189 30.0584 1.1537 30.4949 1.75654C30.9176 2.33512 31.3264 2.90677 31.7214 3.47496C32.6811 3.01417 34.0011 2.45984 35.6225 2.00252C36.4713 1.76346 38.3145 1.24724 40.2615 1.18488C41.1935 1.1537 45.157 1.02898 48.7186 3.74866C52.5781 6.69701 53.368 11.0069 53.6209 12.3824C53.9189 13.9449 53.8045 15.3792 53.7352 16.3077Z" fill="url(#paint8_linear_1_2)"></path><path d="M53.4332 14.4785C53.2253 13.349 52.865 12.126 52.2517 10.9134C51.8568 10.1374 50.7447 8.00319 48.368 6.47878C48.1358 6.32981 47.3494 5.8413 46.2269 5.43248C45.5894 5.20036 44.2659 4.73611 42.5406 4.77422C41.425 4.79847 40.6177 5.02366 39.807 5.25579C38.6914 5.57453 37.07 6.16697 35.2754 7.33453C35.9821 9.54493 36.5053 11.3153 36.8517 12.6561C36.8275 12.663 36.8379 12.6596 36.8136 12.67C36.4256 11.7796 35.996 10.8511 35.5075 9.89138C35.4382 9.75627 35.3689 9.62115 35.2996 9.48256C35.2373 9.3613 35.1749 9.24005 35.1125 9.12225C34.6725 8.29422 34.2325 7.50776 33.7891 6.76981C35.4209 5.79973 36.8275 5.15878 37.8599 4.73957C38.8127 4.35154 39.3982 4.17485 39.8036 4.06744C40.6801 3.82839 41.5913 3.5824 42.8247 3.59626C44.1273 3.61012 45.1217 3.91154 45.5513 4.05705C46.161 4.26492 46.6149 4.49705 46.9163 4.65296C47.2316 4.81579 47.9453 5.20382 48.7629 5.8517C49.1025 6.12193 49.5355 6.49264 49.9998 6.97768C49.9998 6.98115 50.0032 6.98115 50.0032 6.98115C50.0899 7.08162 50.1869 7.18902 50.2873 7.29296C50.5333 7.57359 50.7204 7.80571 50.8313 7.95122C52.6259 10.2863 53.1768 12.7566 53.4332 14.4785Z" fill="url(#paint9_linear_1_2)"></path><path d="M53.6796 17.0527C53.6623 16.4949 53.6207 15.8886 53.5375 15.2442C53.5098 15.0121 53.4752 14.7557 53.4336 14.4785C53.6068 15.4174 53.6692 16.2974 53.6796 17.0527Z" fill="url(#paint10_linear_1_2)"></path><path d="M53.6414 18.9233C53.6449 18.9233 53.6483 18.8402 53.6587 18.6774C53.6691 18.5353 53.6795 18.3274 53.6864 18.0641C53.6934 17.7558 53.6934 17.4266 53.6864 17.0802V17.049C53.6726 16.2937 53.6102 15.4172 53.4405 14.4783C53.1841 12.7564 52.6332 10.2862 50.8386 7.95105C50.7277 7.80554 50.5441 7.57341 50.2946 7.29278C50.208 7.19231 50.111 7.08837 50.0105 6.98097C50.0071 6.98097 50.0071 6.97751 50.0071 6.97751C49.4943 6.43703 48.7148 5.7164 47.6338 5.07199C46.9132 4.64239 45.6279 3.88711 43.7986 3.66884C42.2638 3.48522 41.0546 3.76239 40.3132 3.92869C39.3605 4.14695 38.5948 4.44837 37.8672 4.73593C36.9353 5.10317 36.2319 5.4531 35.7608 5.69215C34.9708 6.08711 34.3091 6.46129 33.7964 6.76617C34.4823 7.95798 34.9778 8.84144 35.1198 9.11861C35.1822 9.2364 35.2445 9.35767 35.3069 9.47893C35.3762 9.61751 35.449 9.75262 35.5148 9.88774C35.9652 10.7747 36.3671 11.6339 36.7308 12.4619C36.7586 12.5243 36.7863 12.5866 36.814 12.6525C34.0008 12.0912 30.3734 11.627 26.1501 11.7517C22.436 11.8625 19.2278 12.3926 16.6641 12.9989C16.9967 12.8084 22.2871 9.77341 26.5623 7.77782C28.7693 6.74884 30.9485 5.84806 30.9485 5.84806C31.3504 5.68176 31.9671 5.42884 32.7258 5.13089C36.5819 3.61687 38.5116 2.85813 40.3375 2.64333C41.5397 2.50128 43.653 2.27955 46.0679 3.21498C46.5356 3.39514 48.7564 4.29593 50.6376 6.56176C51.3998 7.47987 51.8225 8.28365 52.0754 8.76869C53.5479 11.5958 53.6795 14.2358 53.728 15.483C53.7835 17.1114 53.631 18.9233 53.6414 18.9233Z" fill="url(#paint11_linear_1_2)"></path><path d="M53.6731 20.0286C53.6419 21.9168 52.6268 29.8922 52.2596 31.4582C52.2596 31.4548 52.2527 31.4548 52.2492 31.4548C52.2145 31.4374 52.1834 31.4201 52.1487 31.4028C51.875 31.2504 51.5771 31.091 51.2653 30.9282C50.8045 30.6856 50.2986 30.4293 49.7512 30.1625C49.5018 30.0412 49.235 29.9165 48.9544 29.7848C48.8158 29.719 48.6738 29.6532 48.5248 29.5908C47.9046 29.3102 47.2221 29.0157 46.4772 28.7247C46.4668 28.7212 46.4426 28.7108 46.4114 28.7004C46.3906 28.6935 46.3663 28.6831 46.3352 28.6727C45.9541 28.5272 44.9493 28.1461 44.8454 28.108C44.8177 28.0976 44.79 28.0872 44.7657 28.0768C44.6202 28.0214 44.4678 27.9729 44.3153 27.9174C44.1144 27.8482 43.91 27.7789 43.7021 27.7096C43.6571 27.6957 43.6155 27.6784 43.5704 27.6645C43.4561 27.6264 43.3383 27.5883 43.224 27.5537C43.1097 27.5156 42.9919 27.4774 42.8741 27.4393C42.6419 27.3666 42.3994 27.2938 42.1569 27.2176C41.9144 27.1448 41.6684 27.0755 41.4224 27.0063C41.3012 26.9716 41.1799 26.937 41.0586 26.9058C41.0586 26.9058 41.0586 26.9058 41.0552 26.9058C40.9997 26.8919 40.9235 26.8711 40.8265 26.8434C40.778 26.833 40.726 26.8157 40.6706 26.8019C40.4939 26.7568 40.2756 26.6979 40.0158 26.6356C39.6174 26.5385 39.1289 26.4242 38.5745 26.3064C37.6564 26.1124 36.4265 25.8491 34.8848 25.6204C34.8086 25.6066 34.7289 25.5996 34.6492 25.5858C34.4378 25.5581 34.23 25.5269 34.0186 25.4992C34.0186 25.4992 34.0152 25.4992 34.0117 25.4992H34.0048C33.7172 25.4611 33.4262 25.4299 33.1352 25.3987C33.1282 25.3952 33.1178 25.3952 33.1074 25.3952C32.8026 25.3606 32.4942 25.3329 32.1859 25.3052C31.8741 25.2774 31.5623 25.2497 31.247 25.2289C30.606 25.1839 29.9582 25.1493 29.3034 25.1285C28.9812 25.1146 28.6659 25.1077 28.3437 25.1042C27.9868 25.0973 27.6196 25.0973 27.2419 25.1042C27.2419 25.1042 27.1415 25.1042 27.0514 25.1042C26.7015 25.1077 22.544 25.2774 19.4259 25.8006C16.8621 26.2302 11.79 27.4359 5.60225 30.1417C5.37705 28.3436 5.17264 26.4935 4.99595 24.5915C4.76382 22.1559 4.56287 19.6544 4.53516 18.6185C9.01484 16.5779 17.1704 13.5707 27.7339 13.5845C39.9777 13.5914 49.1761 17.6589 53.6731 20.0286Z" fill="url(#paint12_linear_1_2)"></path><path d="M48.3118 41.9073C48.3118 41.9073 48.3118 41.9107 48.3084 41.9107C48.298 41.9142 48.291 41.9177 48.2807 41.9211C48.2807 41.9211 48.2807 41.9211 48.2772 41.9211C48.2599 41.9281 48.2425 41.9385 48.2287 41.9419C48.2252 41.9419 48.2217 41.9454 48.2183 41.9454C48.1975 41.9558 48.1732 41.9627 48.1525 41.9731C48.1871 41.9489 48.2252 41.9246 48.2633 41.9004C44.3484 43.4837 37.8766 45.5381 29.6621 45.6317C26.8419 42.3646 22.3726 38.0235 15.932 34.4689C15.9285 34.4689 15.9285 34.4654 15.9251 34.4654C15.9216 34.4619 15.9181 34.4585 15.9147 34.4585C15.7969 34.3926 15.6479 34.3095 15.4747 34.2055C15.8315 34.3961 12.0447 32.1441 12.263 30.4465C12.509 28.5618 17.3455 27.7303 20.5468 27.1794C26.2876 26.192 31.668 26.7844 32.2813 26.8572C32.4233 26.9577 32.5411 27.0547 32.6347 27.1344C32.8148 27.2452 33.0781 27.4011 33.3899 27.5986C33.3899 27.5986 36.3799 29.4626 39.0961 31.7353C43.6312 35.5359 47.9169 41.3564 48.298 41.8796C48.298 41.883 48.298 41.883 48.3014 41.8865C48.3049 41.8969 48.3084 41.9004 48.3118 41.9073Z" fill="url(#paint13_linear_1_2)"></path><path d="M52.2605 31.4583C51.8898 31.6973 51.5226 31.9364 51.1519 32.1789C46.8974 30.1487 43.3462 28.9083 40.4706 28.2189C38.4508 27.7373 35.7207 27.183 32.4744 26.8885C32.4709 26.8885 32.4709 26.8885 32.4674 26.8885C32.4293 26.885 32.3912 26.8816 32.3497 26.8781C32.3462 26.8746 32.3393 26.8712 32.3358 26.8677C32.3358 26.8677 32.3358 26.8677 32.3323 26.8677C32.3323 26.8677 32.3115 26.8643 32.2734 26.8608C31.6602 26.788 26.2797 26.1991 20.5389 27.183C17.3377 27.7339 12.5011 28.5619 12.2552 30.4501C12.0334 32.1477 15.8202 34.3997 15.4668 34.2091H15.4634C11.8429 32.2863 8.4476 30.9663 5.55469 30.1556C5.56855 30.1487 5.58587 30.1417 5.59973 30.1348C11.7874 27.429 16.8596 26.2198 19.4234 25.7937C22.5415 25.2706 26.6989 25.1043 27.0489 25.0973C27.1424 25.0973 27.2394 25.0973 27.2394 25.0973C27.6205 25.0939 27.9878 25.0939 28.3412 25.0973C28.6634 25.1008 28.9821 25.1077 29.3008 25.1216C29.9556 25.1389 30.6035 25.177 31.2445 25.222C31.5597 25.2428 31.8716 25.2706 32.1834 25.2983C32.4952 25.3295 32.8001 25.3572 33.1049 25.3883C33.1153 25.3883 33.1257 25.3883 33.1327 25.3918C33.4237 25.423 33.7147 25.4576 34.0023 25.4923H34.0092C34.0092 25.4923 34.0126 25.4923 34.0161 25.4923C34.2274 25.52 34.4388 25.5477 34.6467 25.5789C34.7264 25.5928 34.8026 25.5997 34.8823 25.6135C36.424 25.8422 37.6505 26.1021 38.572 26.2995C39.1264 26.4173 39.6149 26.5317 40.0133 26.6287C40.2697 26.6945 40.4914 26.7499 40.6681 26.795C40.7235 26.8088 40.7755 26.8261 40.824 26.8365C40.921 26.8643 41.0007 26.885 41.0526 26.8989C41.0526 26.8989 41.0527 26.8989 41.0561 26.8989C41.1774 26.9335 41.2986 26.9647 41.4199 26.9994C41.6659 27.0687 41.9119 27.138 42.1544 27.2107C42.3969 27.2869 42.636 27.3597 42.8715 27.4324C42.9893 27.4706 43.1071 27.5087 43.2215 27.5468C43.3358 27.5814 43.4536 27.6195 43.5679 27.6576C43.613 27.668 43.658 27.6888 43.6996 27.7027C43.9075 27.772 44.1084 27.8413 44.3128 27.9106C44.4652 27.966 44.6142 28.0145 44.7632 28.0699C44.7909 28.0803 44.8186 28.0907 44.8429 28.1011C44.9503 28.1392 45.9516 28.5238 46.3327 28.6658C46.3604 28.6762 46.3881 28.6866 46.4089 28.6935C46.4401 28.7039 46.4643 28.7143 46.4747 28.7178C47.2196 29.0123 47.9056 29.3068 48.5223 29.5839C48.6712 29.6498 48.8133 29.7156 48.9519 29.778C49.2325 29.9061 49.4958 30.0343 49.7487 30.1556C49.9046 30.2318 50.4832 30.5124 51.2627 30.9213C51.5295 31.0668 51.869 31.2435 52.2605 31.4583Z" fill="url(#paint14_linear_1_2)"></path><path d="M77.9186 43.7792C78.4784 43.2194 79.1874 42.9209 80.0084 42.9209C80.8294 42.9209 81.5385 43.2194 82.0982 43.7792C82.658 44.339 82.9192 45.048 82.9192 45.869C82.9192 46.69 82.6207 47.3617 82.0982 47.9215C81.5385 48.4812 80.8667 48.7798 80.0084 48.7798C79.1501 48.7798 78.4784 48.4812 77.9186 47.9215C77.3589 47.3617 77.0977 46.6527 77.0977 45.869C77.0977 45.0853 77.3589 44.3763 77.9186 43.7792ZM80.0084 47.6976C80.4936 47.6976 80.9041 47.511 81.2399 47.1751C81.5758 46.8393 81.725 46.3915 81.725 45.869C81.725 45.3466 81.5385 44.8987 81.2399 44.5629C80.9041 44.227 80.4936 44.0404 80.0084 44.0404C79.5233 44.0404 79.0755 44.227 78.777 44.5629C78.4784 44.8987 78.2918 45.3466 78.2918 45.869C78.2918 46.3915 78.4411 46.8393 78.777 47.1751C79.1128 47.511 79.5233 47.6976 80.0084 47.6976Z" fill="url(#paint15_linear_1_2)"></path><path d="M85.6797 48.6677V43.0327H89.7473V44.0776H86.8365V44.9732H88.1053C88.7397 44.9732 89.2622 45.1598 89.6727 45.4957C90.0459 45.8315 90.2324 46.2793 90.2324 46.8391C90.2324 47.3989 90.0459 47.8094 89.6727 48.1826C89.2995 48.5184 88.7771 48.705 88.1053 48.705H85.6797V48.6677ZM86.8365 47.6601H88.0307C88.7024 47.6601 89.0756 47.3616 89.0756 46.8018C89.0756 46.242 88.7024 45.9435 88.0307 45.9435H86.8365V47.6601Z" fill="url(#paint16_linear_1_2)"></path><path d="M92.9219 48.6677V43.0327H94.0787L95.7207 45.3464L97.3627 43.0327H98.5195V48.6677H97.3627V44.824L96.0566 46.6152H95.4222L94.116 44.824V48.6677H92.9592H92.9219Z" fill="url(#paint17_linear_1_2)"></path><path d="M101.43 48.6677V43.0327H105.572V44.0776H102.587V45.1598H104.975V46.1674H102.587V47.6228H105.647V48.6677H101.43Z" fill="url(#paint18_linear_1_2)"></path><path d="M108.297 48.6677V43.0327H109.454V45.1225H111.991V43.0327H113.148V48.6677H111.991V46.2047H109.454V48.6677H108.297Z" fill="url(#paint19_linear_1_2)"></path><path d="M116.094 48.6677V43.0327H117.251V45.1225H119.788V43.0327H120.945V48.6677H119.788V46.2047H117.251V48.6677H116.094Z" fill="url(#paint20_linear_1_2)"></path><path d="M123.895 48.6677V43.0327H125.051V46.6898L127.776 43.0327H128.783V48.6677H127.626V44.9732L124.865 48.6677H123.895Z" fill="url(#paint21_linear_1_2)"></path><path d="M131.729 48.6677V43.0327H132.886V45.2345L134.938 43.0327H136.356L133.968 45.6076L136.767 48.6677H135.274L132.848 46.0928V48.6677H131.691H131.729Z" fill="url(#paint22_linear_1_2)"></path><path d="M142.891 48.6677V43.0327H145.54C146.585 43.0327 147.257 43.5552 147.257 44.4508C147.257 45.3464 146.921 45.421 146.548 45.5703C146.846 45.6449 147.108 45.7942 147.369 46.0555C147.63 46.3167 147.705 46.6525 147.705 47.063C147.705 47.4735 147.518 47.9213 147.182 48.2199C146.846 48.5184 146.361 48.6677 145.764 48.6677H142.928H142.891ZM144.047 45.2345H145.354C145.839 45.2345 146.137 45.0105 146.137 44.6374C146.137 44.2642 145.839 44.003 145.354 44.003H144.047V45.2345ZM144.047 47.6601H145.503C146.063 47.6601 146.436 47.3989 146.436 46.9138C146.436 46.4286 146.1 46.1674 145.503 46.1674H144.047V47.6228V47.6601Z" fill="url(#paint23_linear_1_2)"></path><path d="M149.867 48.6677L152.293 43.0327H153.412L155.838 48.6677H154.607L154.047 47.3616H151.658L151.099 48.6677H149.904H149.867ZM151.994 46.4286H153.636L152.815 44.4881L151.994 46.4286Z" fill="url(#paint24_linear_1_2)"></path><path d="M157.705 47.5482C157.817 47.5855 157.967 47.6228 158.116 47.6228C158.414 47.6228 158.638 47.3989 158.713 46.9884C158.825 46.5779 158.899 45.7942 158.899 44.6747V43.0327H162.892V48.6677H161.736V44.0776H160.019V45.2345C159.944 46.5406 159.795 47.4362 159.534 47.9586C159.273 48.4438 158.825 48.705 158.153 48.705C157.481 48.705 157.78 48.705 157.668 48.6304V47.5855L157.705 47.5482Z" fill="url(#paint25_linear_1_2)"></path><path d="M172.445 43.7795C172.968 44.3393 173.229 45.0483 173.229 45.8693C173.229 46.6903 172.968 47.362 172.445 47.9591C171.923 48.5188 171.288 48.8174 170.505 48.8174C169.721 48.8174 169.198 48.5935 168.713 48.1457C168.228 47.6978 167.93 47.1008 167.818 46.3917H166.997V48.7054H165.84V43.0705H166.997V45.3468H167.818C167.93 44.6751 168.228 44.078 168.713 43.6302C169.198 43.1824 169.796 42.9585 170.467 42.9585C171.139 42.9585 171.885 43.257 172.408 43.8168L172.445 43.7795ZM171.624 47.1754C171.923 46.8395 172.072 46.3917 172.072 45.832C172.072 45.2722 171.923 44.8244 171.624 44.4885C171.326 44.1527 170.952 43.9661 170.505 43.9661C170.057 43.9661 169.684 44.1527 169.385 44.4885C169.086 44.8244 168.937 45.2722 168.937 45.832C168.937 46.3917 169.086 46.8395 169.385 47.1754C169.684 47.5113 170.057 47.6978 170.505 47.6978C170.952 47.6978 171.326 47.5113 171.624 47.2127V47.1754Z" fill="url(#paint26_linear_1_2)"></path><path d="M175.205 43.0327H179.907V44.0776H178.116V48.6677H176.959V44.0776H175.168V43.0327H175.205Z" fill="url(#paint27_linear_1_2)"></path><path d="M77.2109 33.7411V29.2256C78.0692 29.972 79.2261 30.6437 80.7188 31.2035C82.2115 31.7632 83.6669 32.0245 85.085 32.0245C87.3987 32.0245 89.1526 31.1661 89.1526 29.5615C89.1526 27.9568 88.7794 28.1434 88.0704 27.8075C87.6599 27.5836 87.4733 27.4717 86.8762 27.2478L86.1672 27.0239L84.4879 26.5014L82.9205 25.979C82.622 25.9043 82.1369 25.7178 81.5025 25.4565C80.8681 25.2326 80.4203 25.0087 80.159 24.8221C79.5993 24.4116 78.5544 23.7026 78.1812 22.9936C77.808 22.2845 77.4722 21.2396 77.4722 20.0455C77.4722 18.1796 78.1812 16.6869 79.5993 15.642C81.0173 14.5598 82.9952 14 85.4208 14C87.8465 14 90.1975 14.5598 92.3246 15.7539V19.9708C90.1975 18.6274 87.8838 17.993 85.4581 17.993C83.0325 17.993 81.8756 18.702 81.8756 20.0828C81.8756 21.4635 82.2861 21.2023 82.9952 21.5382C83.4057 21.7621 84.152 22.0233 84.7118 22.1726C85.2716 22.3219 86.3911 22.6204 87.0255 22.8443C89.0406 23.4787 90.1975 24.0385 91.6156 25.046C93.0336 26.0536 93.7427 27.509 93.7427 29.4495C93.7427 31.3901 92.959 33.0693 91.3543 34.2635C89.7497 35.4577 87.7718 36.0174 85.3462 36.0174C82.9205 36.0174 79.4873 35.2711 77.3229 33.7411H77.2109Z" fill="url(#paint28_linear_1_2)"></path><path d="M101.84 35.5699L110.908 14.2988H115.088L124.156 35.5699H119.528L117.439 30.6813H108.482L106.393 35.5699H101.84ZM109.863 27.0988H116.058L112.961 19.7472L109.863 27.0988Z" fill="url(#paint29_linear_1_2)"></path><path d="M133.783 35.5698V14.4106H149.27V18.2917H138.112V22.5832H146.733V26.4269H138.112V35.5325H133.746L133.783 35.5698Z" fill="url(#paint30_linear_1_2)"></path><path d="M157.592 35.5698V14.4106H173.116V18.2917H161.921V22.3593H170.914V26.203H161.921V31.6514H173.415V35.5325H157.555L157.592 35.5698Z" fill="url(#paint31_linear_1_2)"></path></g><defs><linearGradient id="paint0_linear_1_2" x1="0.531713" y1="50.5399" x2="48.2581" y2="50.5399" gradientUnits="userSpaceOnUse"><stop stop-color="#0F1323"></stop><stop offset="0.4142" stop-color="#3C9DC2"></stop><stop offset="0.475" stop-color="#3A96BA"></stop><stop offset="0.5657" stop-color="#3482A3"></stop><stop offset="0.6751" stop-color="#2C6481"></stop><stop offset="0.7991" stop-color="#214159"></stop><stop offset="0.9337" stop-color="#141E30"></stop><stop offset="0.9792" stop-color="#0F1323"></stop></linearGradient><linearGradient id="paint1_linear_1_2" x1="1.40873" y1="50.8308" x2="17.2521" y2="50.8308" gradientUnits="userSpaceOnUse"><stop stop-color="#0F1323"></stop><stop offset="0.4142" stop-color="#3C9DC2"></stop><stop offset="0.475" stop-color="#3A96BA"></stop><stop offset="0.5657" stop-color="#3482A3"></stop><stop offset="0.6751" stop-color="#2C6481"></stop><stop offset="0.7991" stop-color="#214159"></stop><stop offset="0.9337" stop-color="#141E30"></stop><stop offset="0.9792" stop-color="#0F1323"></stop></linearGradient><linearGradient id="paint2_linear_1_2" x1="0.00223131" y1="52.2967" x2="48.3172" y2="52.2967" gradientUnits="userSpaceOnUse"><stop offset="0.0659" stop-color="#61C0BE"></stop><stop offset="0.4376" stop-color="#61BFBE"></stop><stop offset="0.7201" stop-color="#3BBDDF"></stop></linearGradient><linearGradient id="paint3_linear_1_2" x1="1.51835" y1="51.6432" x2="1.6023" y2="51.6432" gradientUnits="userSpaceOnUse"><stop stop-color="#0F1323"></stop><stop offset="0.4142" stop-color="#3C9DC2"></stop><stop offset="0.475" stop-color="#3A96BA"></stop><stop offset="0.5657" stop-color="#3482A3"></stop><stop offset="0.6751" stop-color="#2C6481"></stop><stop offset="0.7991" stop-color="#214159"></stop><stop offset="0.9337" stop-color="#141E30"></stop><stop offset="0.9792" stop-color="#0F1323"></stop></linearGradient><linearGradient id="paint4_linear_1_2" x1="1.13984" y1="47.2673" x2="1.74689" y2="47.2673" gradientUnits="userSpaceOnUse"><stop stop-color="#0F1323"></stop><stop offset="0.4142" stop-color="#3C9DC2"></stop><stop offset="0.475" stop-color="#3A96BA"></stop><stop offset="0.5657" stop-color="#3482A3"></stop><stop offset="0.6751" stop-color="#2C6481"></stop><stop offset="0.7991" stop-color="#214159"></stop><stop offset="0.9337" stop-color="#141E30"></stop><stop offset="0.9792" stop-color="#0F1323"></stop></linearGradient><linearGradient id="paint5_linear_1_2" x1="1.40829" y1="48.6479" x2="2.22699" y2="48.6479" gradientUnits="userSpaceOnUse"><stop stop-color="#0F1323"></stop><stop offset="0.4142" stop-color="#3C9DC2"></stop><stop offset="0.475" stop-color="#3A96BA"></stop><stop offset="0.5657" stop-color="#3482A3"></stop><stop offset="0.6751" stop-color="#2C6481"></stop><stop offset="0.7991" stop-color="#214159"></stop><stop offset="0.9337" stop-color="#141E30"></stop><stop offset="0.9792" stop-color="#0F1323"></stop></linearGradient><linearGradient id="paint6_linear_1_2" x1="2.58531" y1="44.0172" x2="3.0125" y2="44.0172" gradientUnits="userSpaceOnUse"><stop stop-color="#0F1323"></stop><stop offset="0.4142" stop-color="#3C9DC2"></stop><stop offset="0.475" stop-color="#3A96BA"></stop><stop offset="0.5657" stop-color="#3482A3"></stop><stop offset="0.6751" stop-color="#2C6481"></stop><stop offset="0.7991" stop-color="#214159"></stop><stop offset="0.9337" stop-color="#141E30"></stop><stop offset="0.9792" stop-color="#0F1323"></stop></linearGradient><linearGradient id="paint7_linear_1_2" x1="33.7894" y1="8.1037" x2="35.1118" y2="8.1037" gradientUnits="userSpaceOnUse"><stop offset="0.0659" stop-color="#61C0BE"></stop><stop offset="0.4376" stop-color="#61BFBE"></stop><stop offset="0.7201" stop-color="#3BBDDF"></stop></linearGradient><linearGradient id="paint8_linear_1_2" x1="16.6125" y1="8.15234" x2="53.8167" y2="8.15234" gradientUnits="userSpaceOnUse"><stop offset="0.0659" stop-color="#61C0BE"></stop><stop offset="0.4376" stop-color="#61BFBE"></stop><stop offset="0.7201" stop-color="#3BBDDF"></stop></linearGradient><linearGradient id="paint9_linear_1_2" x1="33.7327" y1="2.52027" x2="55.9661" y2="19.0647" gradientUnits="userSpaceOnUse"><stop offset="0.0855" stop-color="#0F1323"></stop><stop offset="0.595" stop-color="#3994B7"></stop><stop offset="0.617" stop-color="#368AAC"></stop><stop offset="0.8828" stop-color="#1A2D42"></stop><stop offset="1" stop-color="#0F1323"></stop></linearGradient><linearGradient id="paint10_linear_1_2" x1="53.4336" y1="15.7654" x2="53.6811" y2="15.7654" gradientUnits="userSpaceOnUse"><stop offset="0.076" stop-color="#0F1323"></stop><stop offset="0.5573" stop-color="#3C9DC2"></stop><stop offset="0.6038" stop-color="#3A96BA"></stop><stop offset="0.6732" stop-color="#3482A3"></stop><stop offset="0.7565" stop-color="#2C6582"></stop><stop offset="0.8391" stop-color="#23465F"></stop></linearGradient><linearGradient id="paint11_linear_1_2" x1="18.9402" y1="19.9222" x2="52.2995" y2="8.90706" gradientUnits="userSpaceOnUse"><stop offset="0.076" stop-color="#0F1323"></stop><stop offset="0.5573" stop-color="#3C9DC2"></stop><stop offset="0.6038" stop-color="#3A96BA"></stop><stop offset="0.6732" stop-color="#3482A3"></stop><stop offset="0.7565" stop-color="#2C6582"></stop><stop offset="0.8391" stop-color="#23465F"></stop></linearGradient><linearGradient id="paint12_linear_1_2" x1="13.7147" y1="31.7756" x2="48.9451" y2="15.5984" gradientUnits="userSpaceOnUse"><stop offset="0.07" stop-color="#0B7372"></stop><stop offset="0.44" stop-color="#61C0BE"></stop><stop offset="0.72" stop-color="#86CEE1"></stop></linearGradient><linearGradient id="paint13_linear_1_2" x1="9.82083" y1="30.0824" x2="47.8147" y2="41.1603" gradientUnits="userSpaceOnUse"><stop offset="0.1303" stop-color="#237085"></stop><stop offset="0.2125" stop-color="#2A7B94"></stop><stop offset="0.48" stop-color="#3994B9"></stop><stop offset="0.58" stop-color="#3586A7"></stop><stop offset="0.71" stop-color="#2C6986"></stop><stop offset="0.84" stop-color="#1D4057"></stop><stop offset="0.98" stop-color="#0F1323"></stop></linearGradient><linearGradient id="paint14_linear_1_2" x1="5.55718" y1="29.6552" x2="52.2618" y2="29.6552" gradientUnits="userSpaceOnUse"><stop stop-color="#0F1323"></stop><stop offset="0.4142" stop-color="#3C9DC2"></stop><stop offset="0.475" stop-color="#3A96BA"></stop><stop offset="0.5657" stop-color="#3482A3"></stop><stop offset="0.6751" stop-color="#2C6481"></stop><stop offset="0.7991" stop-color="#214159"></stop><stop offset="0.9337" stop-color="#141E30"></stop><stop offset="0.9792" stop-color="#0F1323"></stop></linearGradient><linearGradient id="paint15_linear_1_2" x1="82.0609" y1="47.9215" x2="77.9186" y2="43.7792" gradientUnits="userSpaceOnUse"><stop stop-color="#0B7372"></stop><stop offset="0.4" stop-color="#61C0BE"></stop><stop offset="0.7" stop-color="#86CEE1"></stop></linearGradient><linearGradient id="paint16_linear_1_2" x1="89.8593" y1="47.9586" x2="85.3065" y2="43.4059" gradientUnits="userSpaceOnUse"><stop stop-color="#0B7372"></stop><stop offset="0.4" stop-color="#61C0BE"></stop><stop offset="0.7" stop-color="#86CEE1"></stop></linearGradient><linearGradient id="paint17_linear_1_2" x1="98.4822" y1="48.6304" x2="92.8846" y2="43.07" gradientUnits="userSpaceOnUse"><stop stop-color="#0B7372"></stop><stop offset="0.4" stop-color="#61C0BE"></stop><stop offset="0.7" stop-color="#86CEE1"></stop></linearGradient><linearGradient id="paint18_linear_1_2" x1="105.982" y1="48.3318" x2="101.057" y2="43.4059" gradientUnits="userSpaceOnUse"><stop stop-color="#0B7372"></stop><stop offset="0.4" stop-color="#61C0BE"></stop><stop offset="0.7" stop-color="#86CEE1"></stop></linearGradient><linearGradient id="paint19_linear_1_2" x1="113.335" y1="48.4438" x2="108.073" y2="43.2193" gradientUnits="userSpaceOnUse"><stop stop-color="#0B7372"></stop><stop offset="0.4" stop-color="#61C0BE"></stop><stop offset="0.7" stop-color="#86CEE1"></stop></linearGradient><linearGradient id="paint20_linear_1_2" x1="121.132" y1="48.4438" x2="115.907" y2="43.2193" gradientUnits="userSpaceOnUse"><stop stop-color="#0B7372"></stop><stop offset="0.4" stop-color="#61C0BE"></stop><stop offset="0.7" stop-color="#86CEE1"></stop></linearGradient><linearGradient id="paint21_linear_1_2" x1="128.932" y1="48.4811" x2="123.708" y2="43.2193" gradientUnits="userSpaceOnUse"><stop stop-color="#0B7372"></stop><stop offset="0.4" stop-color="#61C0BE"></stop><stop offset="0.7" stop-color="#86CEE1"></stop></linearGradient><linearGradient id="paint22_linear_1_2" x1="136.804" y1="48.6304" x2="131.468" y2="43.2939" gradientUnits="userSpaceOnUse"><stop stop-color="#0B7372"></stop><stop offset="0.4" stop-color="#61C0BE"></stop><stop offset="0.7" stop-color="#86CEE1"></stop></linearGradient><linearGradient id="paint23_linear_1_2" x1="147.07" y1="48.2945" x2="142.368" y2="43.5552" gradientUnits="userSpaceOnUse"><stop stop-color="#0B7372"></stop><stop offset="0.4" stop-color="#61C0BE"></stop><stop offset="0.7" stop-color="#86CEE1"></stop></linearGradient><linearGradient id="paint24_linear_1_2" x1="155.129" y1="49.3394" x2="150.539" y2="44.7493" gradientUnits="userSpaceOnUse"><stop stop-color="#0B7372"></stop><stop offset="0.4" stop-color="#61C0BE"></stop><stop offset="0.7" stop-color="#86CEE1"></stop></linearGradient><linearGradient id="paint25_linear_1_2" x1="163.004" y1="48.5557" x2="158.228" y2="43.7418" gradientUnits="userSpaceOnUse"><stop stop-color="#0B7372"></stop><stop offset="0.4" stop-color="#61C0BE"></stop><stop offset="0.7" stop-color="#86CEE1"></stop></linearGradient><linearGradient id="paint26_linear_1_2" x1="171.661" y1="48.7427" x2="165.914" y2="42.9585" gradientUnits="userSpaceOnUse"><stop stop-color="#0B7372"></stop><stop offset="0.4" stop-color="#61C0BE"></stop><stop offset="0.7" stop-color="#86CEE1"></stop></linearGradient><linearGradient id="paint27_linear_1_2" x1="179.683" y1="47.1003" x2="175.429" y2="42.8088" gradientUnits="userSpaceOnUse"><stop stop-color="#0B7372"></stop><stop offset="0.4" stop-color="#61C0BE"></stop><stop offset="0.7" stop-color="#86CEE1"></stop></linearGradient><linearGradient id="paint28_linear_1_2" x1="92.8097" y1="32.8081" x2="77.5468" y2="17.5452" gradientUnits="userSpaceOnUse"><stop stop-color="#0B7372"></stop><stop offset="0.4" stop-color="#61C0BE"></stop><stop offset="0.7" stop-color="#86CEE1"></stop></linearGradient><linearGradient id="paint29_linear_1_2" x1="121.618" y1="38.1075" x2="104.377" y2="20.8294" gradientUnits="userSpaceOnUse"><stop stop-color="#0B7372"></stop><stop offset="0.4" stop-color="#61C0BE"></stop><stop offset="0.7" stop-color="#86CEE1"></stop></linearGradient><linearGradient id="paint30_linear_1_2" x1="145.128" y1="28.5914" x2="132.365" y2="15.8287" gradientUnits="userSpaceOnUse"><stop stop-color="#0B7372"></stop><stop offset="0.4" stop-color="#61C0BE"></stop><stop offset="0.7" stop-color="#86CEE1"></stop></linearGradient><linearGradient id="paint31_linear_1_2" x1="174.684" y1="34.3383" x2="156.174" y2="15.8287" gradientUnits="userSpaceOnUse"><stop stop-color="#0B7372"></stop><stop offset="0.4" stop-color="#61C0BE"></stop><stop offset="0.7" stop-color="#86CEE1"></stop></linearGradient><clipPath id="clip0_1_2"><rect width="180" height="63" fill="white"></rect></clipPath></defs></svg> 